<svg xmlns="http://www.w3.org/2000/svg" viewBox="0 -200 1200 1200" shape-rendering="crispEdges">
<polygon points="668,406 645,372 628,404" style="fill:rgb(187,186,179)"/>

<polygon points="645,372 619,388 628,404" style="fill:rgb(172,173,170)"/>

<polygon points="668,406 683,365 645,372" style="fill:rgb(180,179,173)"/>
<polygon points="619,388 604,404 628,404" style="fill:rgb(170,167,160)"/>
<polygon points="628,404 595,436 668,406" style="fill:rgb(185,184,178)"/>


<polygon points="604,404 595,436 628,404" style="fill:rgb(186,182,172)"/>
<polygon points="594,408 595,436 604,404" style="fill:rgb(166,162,150)"/>

<polygon points="594,408 582,418 595,436" style="fill:rgb(175,171,159)"/>




<polygon points="668,406 719,357 683,365" style="fill:rgb(188,187,180)"/>



<polygon points="582,418 569,425 595,436" style="fill:rgb(163,159,150)"/>

<polygon points="765,370 726,356 772,397" style="fill:rgb(194,194,190)"/>


<polygon points="516,595 713,486 595,436" style="fill:rgb(207,206,201)"/>
<polygon points="595,436 713,486 668,406" style="fill:rgb(205,205,200)"/>
<polygon points="772,397 726,356 719,357" style="fill:rgb(184,184,180)"/>
<polygon points="772,397 719,357 668,406" style="fill:rgb(191,189,182)"/>



<polygon points="713,486 772,397 668,406" style="fill:rgb(208,207,204)"/>
<polygon points="552,319 544,324 550,322" style="fill:rgb(151,145,137)"/>
<polygon points="550,322 544,324 542,344" style="fill:rgb(170,165,156)"/>
<polygon points="784,368 771,360 765,370" style="fill:rgb(171,171,166)"/>
<polygon points="765,370 771,360 726,356" style="fill:rgb(182,183,177)"/>
<polygon points="772,397 784,368 765,370" style="fill:rgb(192,192,187)"/>
<polygon points="816,386 786,365 784,368" style="fill:rgb(178,178,172)"/>
<polygon points="784,368 786,365 771,360" style="fill:rgb(131,133,130)"/>


<polygon points="552,319 561,284 544,324" style="fill:rgb(164,159,150)"/>
<polygon points="491,419 542,344 444,362" style="fill:rgb(196,192,186)"/>
<polygon points="491,419 497,420 542,344" style="fill:rgb(156,154,148)"/>


<polygon points="569,425 499,483 595,436" style="fill:rgb(166,164,158)"/>

<polygon points="561,284 546,265 544,324" style="fill:rgb(187,180,170)"/>
<polygon points="488,302 542,344 544,324" style="fill:rgb(197,191,183)"/>

<polygon points="713,486 809,427 772,397" style="fill:rgb(204,203,198)"/>
<polygon points="772,397 816,386 784,368" style="fill:rgb(194,193,187)"/>
<polygon points="566,258 546,265 561,284" style="fill:rgb(179,173,162)"/>
<polygon points="809,427 816,386 772,397" style="fill:rgb(196,195,190)"/>

<polygon points="491,507 499,483 459,506" style="fill:rgb(177,176,172)"/>

<polygon points="557,216 569,233 570,206" style="fill:rgb(175,169,158)"/>
<polygon points="566,258 569,233 546,265" style="fill:rgb(180,173,162)"/>
<polygon points="713,486 821,450 809,427" style="fill:rgb(203,202,197)"/>
<polygon points="809,427 833,399 816,386" style="fill:rgb(191,191,187)"/>
<polygon points="491,419 473,448 497,420" style="fill:rgb(138,138,131)"/>
<polygon points="470,446 473,448 491,419" style="fill:rgb(178,176,170)"/>
<polygon points="833,416 833,399 809,427" style="fill:rgb(143,139,128)"/>
<polygon points="486,285 488,302 546,265" style="fill:rgb(201,195,189)"/>
<polygon points="546,265 488,302 544,324" style="fill:rgb(201,195,187)"/>
<polygon points="821,450 833,416 809,427" style="fill:rgb(199,198,193)"/>
<polygon points="456,436 470,446 491,419" style="fill:rgb(187,184,179)"/>
<polygon points="469,512 491,507 459,506" style="fill:rgb(180,180,174)"/>

<polygon points="499,483 491,507 595,436" style="fill:rgb(179,177,170)"/>
<polygon points="498,258 486,285 546,265" style="fill:rgb(201,195,187)"/>
<polygon points="444,385 456,436 491,419" style="fill:rgb(199,195,189)"/>
<polygon points="461,327 542,344 488,302" style="fill:rgb(199,194,187)"/>

<polygon points="713,486 814,504 821,450" style="fill:rgb(204,203,198)"/>
<polygon points="866,414 847,403 833,416" style="fill:rgb(171,171,167)"/>
<polygon points="805,530 814,504 713,486" style="fill:rgb(214,215,213)"/>
<polygon points="858,440 833,416 821,450" style="fill:rgb(197,197,195)"/>
<polygon points="833,416 847,403 833,399" style="fill:rgb(164,162,160)"/>
<polygon points="833,399 851,392 816,386" style="fill:rgb(184,183,179)"/>
<polygon points="816,386 851,392 786,365" style="fill:rgb(155,154,151)"/>
<polygon points="474,297 461,327 488,302" style="fill:rgb(176,171,167)"/>
<polygon points="486,285 474,297 488,302" style="fill:rgb(188,181,175)"/>
<polygon points="569,233 557,216 546,265" style="fill:rgb(191,185,174)"/>
<polygon points="814,504 837,468 821,450" style="fill:rgb(200,200,196)"/>


<polygon points="557,216 498,258 546,265" style="fill:rgb(204,197,189)"/>
<polygon points="486,285 481,279 474,297" style="fill:rgb(165,160,155)"/>
<polygon points="489,260 481,279 486,285" style="fill:rgb(169,162,157)"/>
<polygon points="486,260 489,260 491,211" style="fill:rgb(115,109,109)"/>
<polygon points="444,362 444,385 491,419" style="fill:rgb(202,196,190)"/>
<polygon points="807,536 805,530 713,486" style="fill:rgb(207,208,207)"/>
<polygon points="814,504 839,476 837,468" style="fill:rgb(192,191,187)"/>
<polygon points="461,327 444,362 542,344" style="fill:rgb(196,192,186)"/>
<polygon points="442,357 444,362 461,327" style="fill:rgb(151,149,148)"/>
<polygon points="849,485 839,476 814,504" style="fill:rgb(197,197,193)"/>
<polygon points="859,444 858,440 821,450" style="fill:rgb(178,178,176)"/>
<polygon points="489,260 498,258 491,211" style="fill:rgb(181,175,167)"/>
<polygon points="498,258 489,260 486,285" style="fill:rgb(188,182,175)"/>

<polygon points="444,362 416,391 444,385" style="fill:rgb(183,180,174)"/>
<polygon points="522,198 498,258 557,216" style="fill:rgb(203,197,186)"/>
<polygon points="489,260 486,260 481,279" style="fill:rgb(145,137,133)"/>
<polygon points="850,613 807,536 722,683" style="fill:rgb(210,209,206)"/>
<polygon points="805,530 841,522 814,504" style="fill:rgb(206,206,204)"/>
<polygon points="859,444 821,450 837,468" style="fill:rgb(202,203,202)"/>

<polygon points="491,507 516,595 595,436" style="fill:rgb(201,200,194)"/>
<polygon points="473,448 470,446 438,491" style="fill:rgb(157,154,148)"/>
<polygon points="865,448 859,444 837,468" style="fill:rgb(191,191,191)"/>
<polygon points="858,440 866,414 833,416" style="fill:rgb(201,202,202)"/>
<polygon points="867,472 837,468 839,476" style="fill:rgb(157,156,150)"/>
<polygon points="566,175 522,198 557,216" style="fill:rgb(199,193,182)"/>
<polygon points="873,432 866,414 858,440" style="fill:rgb(193,193,194)"/>
<polygon points="438,491 470,446 422,475" style="fill:rgb(179,176,171)"/>
<polygon points="841,522 849,485 814,504" style="fill:rgb(208,208,206)"/>
<polygon points="867,472 865,448 837,468" style="fill:rgb(200,201,200)"/>



<polygon points="859,492 858,483 849,485" style="fill:rgb(70,70,69)"/>

<polygon points="882,428 873,432 871,438" style="fill:rgb(163,163,163)"/>
<polygon points="871,438 873,432 858,440" style="fill:rgb(127,128,126)"/>
<polygon points="807,536 841,522 805,530" style="fill:rgb(176,173,168)"/>
<polygon points="432,492 438,491 422,475" style="fill:rgb(169,167,162)"/>
<polygon points="408,423 456,436 444,385" style="fill:rgb(203,199,193)"/>


<polygon points="848,519 859,492 849,485" style="fill:rgb(195,195,191)"/>
<polygon points="442,357 416,391 444,362" style="fill:rgb(162,160,158)"/>
<polygon points="449,565 469,512 420,536" style="fill:rgb(181,180,174)"/>
<polygon points="449,565 488,563 469,512" style="fill:rgb(194,193,188)"/>
<polygon points="469,512 488,563 491,507" style="fill:rgb(192,189,182)"/>
<polygon points="566,175 557,216 570,206" style="fill:rgb(177,171,159)"/>

<polygon points="841,522 848,519 849,485" style="fill:rgb(206,206,205)"/>
<polygon points="886,428 882,428 871,438" style="fill:rgb(135,133,134)"/>
<polygon points="873,432 882,428 866,414" style="fill:rgb(179,179,178)"/>

<polygon points="422,475 470,446 456,436" style="fill:rgb(192,188,183)"/>


<polygon points="882,428 886,428 866,414" style="fill:rgb(141,138,138)"/>
<polygon points="865,448 867,472 881,473" style="fill:rgb(192,193,192)"/>
<polygon points="488,563 516,595 491,507" style="fill:rgb(204,204,200)"/>
<polygon points="406,454 422,475 456,436" style="fill:rgb(202,199,193)"/>
<polygon points="491,194 491,211 522,198" style="fill:rgb(197,192,184)"/>
<polygon points="522,198 491,211 498,258" style="fill:rgb(196,190,181)"/>

<polygon points="416,391 408,423 444,385" style="fill:rgb(190,186,178)"/>
<polygon points="841,522 856,530 848,519" style="fill:rgb(148,145,138)"/>
<polygon points="879,490 858,483 859,492" style="fill:rgb(70,70,69)"/>
<polygon points="807,536 845,537 841,522" style="fill:rgb(104,97,82)"/>
<polygon points="861,555 845,537 807,536" style="fill:rgb(191,191,189)"/>


<polygon points="877,516 859,492 848,519" style="fill:rgb(192,192,191)"/>
<polygon points="845,537 856,530 841,522" style="fill:rgb(84,78,62)"/>
<polygon points="845,537 857,531 856,530" style="fill:rgb(118,119,109)"/>
<polygon points="877,516 879,490 859,492" style="fill:rgb(184,184,182)"/>
<polygon points="867,530 848,519 856,530" style="fill:rgb(102,97,85)"/>
<polygon points="881,473 894,467 865,448" style="fill:rgb(175,175,175)"/>
<polygon points="408,423 406,454 456,436" style="fill:rgb(203,200,194)"/>
<polygon points="422,475 419,510 432,492" style="fill:rgb(177,176,172)"/>
<polygon points="484,187 491,194 522,198" style="fill:rgb(196,192,184)"/>



<polygon points="403,522 419,510 422,475" style="fill:rgb(183,182,176)"/>
<polygon points="432,492 419,510 438,491" style="fill:rgb(130,130,123)"/>
<polygon points="488,563 459,597 516,595" style="fill:rgb(200,200,198)"/>
<polygon points="871,544 867,530 857,531" style="fill:rgb(204,205,207)"/>
<polygon points="857,531 867,530 856,530" style="fill:rgb(183,184,186)"/>
<polygon points="867,530 877,516 848,519" style="fill:rgb(99,94,81)"/>
<polygon points="407,529 419,521 403,522" style="fill:rgb(173,165,152)"/>

<polygon points="420,536 469,512 459,506" style="fill:rgb(171,169,162)"/>
<polygon points="884,520 882,517 877,516" style="fill:rgb(198,199,203)"/>
<polygon points="877,516 893,496 879,490" style="fill:rgb(183,183,182)"/>
<polygon points="539,127 484,187 522,198" style="fill:rgb(206,200,192)"/>
<polygon points="491,194 484,187 491,211" style="fill:rgb(169,165,159)"/>
<polygon points="882,517 893,496 877,516" style="fill:rgb(202,202,201)"/>
<polygon points="867,530 884,520 877,516" style="fill:rgb(138,137,129)"/>
<polygon points="845,537 861,555 857,531" style="fill:rgb(189,190,189)"/>
<polygon points="850,613 861,555 807,536" style="fill:rgb(210,209,207)"/>
<polygon points="871,544 884,520 867,530" style="fill:rgb(196,198,198)"/>
<polygon points="882,517 898,502 893,496" style="fill:rgb(190,188,185)"/>
<polygon points="861,555 871,544 857,531" style="fill:rgb(192,192,190)"/>
<polygon points="407,529 420,536 419,521" style="fill:rgb(166,159,144)"/>
<polygon points="419,521 420,536 459,506" style="fill:rgb(156,147,131)"/>

<polygon points="566,175 554,137 522,198" style="fill:rgb(195,189,178)"/>

<polygon points="466,167 479,184 484,187" style="fill:rgb(148,147,141)"/>

<polygon points="910,510 898,502 884,520" style="fill:rgb(191,191,187)"/>
<polygon points="884,520 898,502 882,517" style="fill:rgb(200,199,198)"/>


<polygon points="403,522 419,521 419,510" style="fill:rgb(143,136,124)"/>
<polygon points="420,612 459,597 449,565" style="fill:rgb(189,188,184)"/>
<polygon points="408,423 375,435 406,454" style="fill:rgb(195,193,188)"/>
<polygon points="406,454 403,522 422,475" style="fill:rgb(197,196,191)"/>
<polygon points="374,432 375,435 408,423" style="fill:rgb(179,177,171)"/>
<polygon points="374,432 408,423 416,391" style="fill:rgb(172,171,166)"/>
<polygon points="320,491 403,522 406,454" style="fill:rgb(199,198,193)"/>

<polygon points="375,435 320,491 406,454" style="fill:rgb(187,187,182)"/>
<polygon points="449,565 459,597 488,563" style="fill:rgb(201,200,198)"/>
<polygon points="420,612 449,565 420,536" style="fill:rgb(182,181,176)"/>
<polygon points="861,555 883,550 871,544" style="fill:rgb(182,182,180)"/>
<polygon points="871,544 892,546 884,520" style="fill:rgb(200,202,203)"/>
<polygon points="374,432 369,434 375,435" style="fill:rgb(84,86,88)"/>
<polygon points="892,546 910,510 884,520" style="fill:rgb(204,205,205)"/>

<polygon points="883,550 892,546 871,544" style="fill:rgb(147,147,145)"/>
<polygon points="924,511 913,506 922,517" style="fill:rgb(127,126,125)"/>
<polygon points="910,510 913,506 898,502" style="fill:rgb(151,152,150)"/>
<polygon points="554,137 539,127 522,198" style="fill:rgb(200,194,183)"/>
<polygon points="466,167 462,173 479,184" style="fill:rgb(116,115,109)"/>

<polygon points="539,127 466,167 484,187" style="fill:rgb(200,195,188)"/>


<polygon points="722,683 713,486 610,702" style="fill:rgb(215,215,214)"/>
<polygon points="722,683 807,536 713,486" style="fill:rgb(214,214,213)"/>
<polygon points="861,555 850,613 883,550" style="fill:rgb(209,209,208)"/>

<polygon points="610,702 713,486 516,595" style="fill:rgb(211,211,208)"/>
<polygon points="922,517 910,510 892,546" style="fill:rgb(201,201,199)"/>
<polygon points="922,517 913,506 910,510" style="fill:rgb(174,174,169)"/>
<polygon points="931,551 922,517 892,546" style="fill:rgb(200,201,202)"/>
<polygon points="420,179 438,175 403,157" style="fill:rgb(182,179,174)"/>
<polygon points="466,167 438,175 462,173" style="fill:rgb(167,167,161)"/>

<polygon points="510,697 610,702 516,595" style="fill:rgb(205,205,204)"/>
<polygon points="554,137 535,104 539,127" style="fill:rgb(178,171,160)"/>
<polygon points="478,86 449,112 466,167" style="fill:rgb(205,201,195)"/>

<polygon points="401,170 420,179 403,157" style="fill:rgb(177,171,167)"/>

<polygon points="373,613 420,612 420,536" style="fill:rgb(173,169,161)"/>
<polygon points="459,597 510,697 516,595" style="fill:rgb(198,198,196)"/>
<polygon points="373,613 420,536 407,529" style="fill:rgb(178,172,159)"/>
<polygon points="373,613 407,529 345,610" style="fill:rgb(169,164,152)"/>
<polygon points="401,170 409,181 420,179" style="fill:rgb(143,134,123)"/>
<polygon points="945,583 892,546 883,550" style="fill:rgb(160,160,159)"/>
<polygon points="922,517 954,542 924,511" style="fill:rgb(135,135,133)"/>
<polygon points="667,748 745,712 722,683" style="fill:rgb(206,206,206)"/>
<polygon points="722,683 745,712 850,613" style="fill:rgb(205,205,202)"/>
<polygon points="952,548 954,542 931,551" style="fill:rgb(182,181,181)"/>
<polygon points="420,612 510,697 459,597" style="fill:rgb(193,193,191)"/>
<polygon points="610,702 667,748 722,683" style="fill:rgb(206,206,206)"/>
<polygon points="403,157 438,175 419,127" style="fill:rgb(195,194,191)"/>

<polygon points="931,551 954,542 922,517" style="fill:rgb(192,193,192)"/>

<polygon points="945,583 883,550 850,613" style="fill:rgb(207,208,208)"/>
<polygon points="401,170 385,178 409,181" style="fill:rgb(110,93,82)"/>
<polygon points="440,123 438,175 466,167" style="fill:rgb(202,200,195)"/>
<polygon points="401,170 395,160 385,178" style="fill:rgb(38,30,29)"/>
<polygon points="369,434 319,485 375,435" style="fill:rgb(120,120,123)"/>
<polygon points="449,112 440,123 466,167" style="fill:rgb(203,200,194)"/>
<polygon points="319,485 320,491 375,435" style="fill:rgb(150,150,147)"/>
<polygon points="401,144 395,160 403,157" style="fill:rgb(50,50,54)"/>
<polygon points="403,157 395,160 401,170" style="fill:rgb(74,67,66)"/>
<polygon points="478,86 466,167 539,127" style="fill:rgb(205,200,193)"/>
<polygon points="419,127 401,144 403,157" style="fill:rgb(73,72,78)"/>
<polygon points="535,104 478,86 539,127" style="fill:rgb(193,187,175)"/>

<polygon points="368,178 371,184 385,178" style="fill:rgb(65,36,24)"/>

<polygon points="449,112 429,116 440,123" style="fill:rgb(124,114,104)"/>
<polygon points="478,86 450,107 449,112" style="fill:rgb(195,192,185)"/>
<polygon points="510,697 596,741 610,702" style="fill:rgb(201,202,202)"/>
<polygon points="954,589 945,583 954,596" style="fill:rgb(182,181,180)"/>

<polygon points="345,610 407,529 340,608" style="fill:rgb(178,171,154)"/>
<polygon points="422,719 463,736 510,697" style="fill:rgb(187,187,188)"/>
<polygon points="419,127 438,175 440,123" style="fill:rgb(201,199,195)"/>
<polygon points="369,171 368,178 385,178" style="fill:rgb(48,36,32)"/>

<polygon points="504,79 478,86 535,104" style="fill:rgb(186,179,168)"/>
<polygon points="429,116 449,112 442,101" style="fill:rgb(36,34,32)"/>
<polygon points="429,116 419,127 440,123" style="fill:rgb(165,157,149)"/>
<polygon points="498,76 478,86 504,79" style="fill:rgb(177,171,160)"/>
<polygon points="596,741 667,748 610,702" style="fill:rgb(196,196,196)"/>
<polygon points="369,171 385,178 395,160" style="fill:rgb(63,50,43)"/>

<polygon points="419,127 407,121 401,144" style="fill:rgb(69,74,80)"/>
<polygon points="442,101 449,112 450,107" style="fill:rgb(68,62,55)"/>
<polygon points="954,589 951,582 945,583" style="fill:rgb(159,160,161)"/>

<polygon points="319,485 306,495 320,491" style="fill:rgb(112,113,115)"/>
<polygon points="340,608 407,529 403,522" style="fill:rgb(186,179,163)"/>

<polygon points="375,141 369,171 395,160" style="fill:rgb(186,106,67)"/>
<polygon points="388,137 395,160 401,144" style="fill:rgb(34,30,31)"/>
<polygon points="478,86 450,96 450,107" style="fill:rgb(206,205,200)"/>
<polygon points="429,116 407,121 419,127" style="fill:rgb(56,58,63)"/>
<polygon points="437,98 450,96 431,78" style="fill:rgb(202,200,194)"/>
<polygon points="450,96 442,101 450,107" style="fill:rgb(176,171,160)"/>
<polygon points="340,608 403,522 320,491" style="fill:rgb(199,197,191)"/>
<polygon points="954,596 945,583 850,613" style="fill:rgb(203,204,204)"/>
<polygon points="456,69 450,96 478,86" style="fill:rgb(196,192,185)"/>
<polygon points="450,96 437,98 442,101" style="fill:rgb(164,163,150)"/>
<polygon points="442,101 437,98 429,116" style="fill:rgb(35,35,32)"/>
<polygon points="423,101 407,121 429,116" style="fill:rgb(38,40,45)"/>
<polygon points="958,605 954,596 850,613" style="fill:rgb(113,108,102)"/>
<polygon points="407,121 388,137 401,144" style="fill:rgb(26,28,33)"/>
<polygon points="574,765 593,758 596,741" style="fill:rgb(169,168,168)"/>
<polygon points="596,741 634,771 667,748" style="fill:rgb(188,188,188)"/>
<polygon points="574,765 596,741 525,758" style="fill:rgb(174,174,176)"/>
<polygon points="437,98 423,101 429,116" style="fill:rgb(29,28,26)"/>
<polygon points="382,108 375,141 388,137" style="fill:rgb(155,61,27)"/>
<polygon points="431,78 423,101 437,98" style="fill:rgb(189,188,181)"/>
<polygon points="498,76 472,69 478,86" style="fill:rgb(179,172,160)"/>

<polygon points="340,608 320,491 284,582" style="fill:rgb(192,192,187)"/>
<polygon points="463,736 525,758 510,697" style="fill:rgb(183,184,186)"/>
<polygon points="355,140 375,141 382,108" style="fill:rgb(73,33,22)"/>
<polygon points="388,137 375,141 395,160" style="fill:rgb(191,98,66)"/>
<polygon points="317,204 371,184 368,178" style="fill:rgb(78,38,21)"/>
<polygon points="604,772 602,765 593,758" style="fill:rgb(155,152,152)"/>
<polygon points="593,758 602,765 596,741" style="fill:rgb(180,179,177)"/>
<polygon points="826,733 859,703 745,712" style="fill:rgb(197,198,200)"/>
<polygon points="745,712 859,703 850,613" style="fill:rgb(207,207,206)"/>
<polygon points="826,733 769,770 824,746" style="fill:rgb(178,180,186)"/>
<polygon points="961,614 958,605 850,613" style="fill:rgb(164,163,159)"/>


<polygon points="273,549 320,491 306,495" style="fill:rgb(143,143,143)"/>
<polygon points="525,758 596,741 510,697" style="fill:rgb(192,192,192)"/>
<polygon points="602,765 634,771 596,741" style="fill:rgb(182,182,181)"/>
<polygon points="420,612 422,719 510,697" style="fill:rgb(189,188,184)"/>
<polygon points="602,765 604,772 634,771" style="fill:rgb(152,151,151)"/>
<polygon points="472,69 456,69 478,86" style="fill:rgb(174,167,157)"/>
<polygon points="384,91 382,108 407,121" style="fill:rgb(22,23,26)"/>
<polygon points="574,765 604,772 593,758" style="fill:rgb(81,77,77)"/>
<polygon points="317,204 368,178 305,195" style="fill:rgb(58,46,40)"/>

<polygon points="962,647 961,614 850,613" style="fill:rgb(188,187,182)"/>
<polygon points="958,605 973,599 954,596" style="fill:rgb(141,142,138)"/>
<polygon points="769,770 745,712 758,775" style="fill:rgb(190,190,191)"/>
<polygon points="859,703 881,703 850,613" style="fill:rgb(205,206,205)"/>
<polygon points="305,195 368,178 369,171" style="fill:rgb(114,74,54)"/>
<polygon points="604,772 632,777 634,771" style="fill:rgb(113,110,111)"/>
<polygon points="634,771 665,785 667,748" style="fill:rgb(178,179,181)"/>
<polygon points="961,614 973,599 958,605" style="fill:rgb(156,157,151)"/>
<polygon points="436,71 431,78 450,96" style="fill:rgb(193,189,181)"/>
<polygon points="375,141 355,140 369,171" style="fill:rgb(174,75,29)"/>
<polygon points="420,612 402,717 422,719" style="fill:rgb(180,180,179)"/>
<polygon points="574,765 585,819 604,772" style="fill:rgb(43,39,35)"/>
<polygon points="671,795 665,785 632,777" style="fill:rgb(70,72,77)"/>
<polygon points="871,732 881,703 859,703" style="fill:rgb(179,181,187)"/>
<polygon points="456,69 436,71 450,96" style="fill:rgb(190,185,177)"/>
<polygon points="382,108 388,137 407,121" style="fill:rgb(25,22,24)"/>
<polygon points="824,746 843,730 826,733" style="fill:rgb(186,188,193)"/>
<polygon points="826,733 843,730 859,703" style="fill:rgb(190,193,197)"/>
<polygon points="407,121 423,101 384,91" style="fill:rgb(27,29,31)"/>
<polygon points="420,612 364,700 402,717" style="fill:rgb(174,173,169)"/>
<polygon points="990,603 973,599 961,614" style="fill:rgb(161,161,156)"/>
<polygon points="990,603 981,596 973,599" style="fill:rgb(135,135,133)"/>


<polygon points="436,71 404,77 431,78" style="fill:rgb(170,164,158)"/>


<polygon points="632,777 665,785 634,771" style="fill:rgb(84,84,87)"/>
<polygon points="404,77 423,101 431,78" style="fill:rgb(189,188,184)"/>
<polygon points="769,770 826,733 745,712" style="fill:rgb(193,194,196)"/>
<polygon points="871,732 907,701 881,703" style="fill:rgb(172,174,179)"/>
<polygon points="521,781 534,771 525,758" style="fill:rgb(143,145,152)"/>
<polygon points="525,758 534,771 574,765" style="fill:rgb(144,144,147)"/>
<polygon points="758,775 745,712 667,748" style="fill:rgb(198,198,199)"/>
<polygon points="420,612 373,613 364,700" style="fill:rgb(180,180,176)"/>
<polygon points="489,774 521,781 525,758" style="fill:rgb(139,142,152)"/>
<polygon points="715,800 758,775 667,748" style="fill:rgb(189,191,194)"/>
<polygon points="769,770 807,769 824,746" style="fill:rgb(162,166,173)"/>
<polygon points="355,140 305,195 369,171" style="fill:rgb(178,73,29)"/>
<polygon points="300,195 305,195 355,140" style="fill:rgb(138,55,35)"/>
<polygon points="962,647 990,603 961,614" style="fill:rgb(181,179,170)"/>

<polygon points="382,108 370,101 355,140" style="fill:rgb(33,28,29)"/>
<polygon points="871,732 859,703 843,730" style="fill:rgb(185,187,192)"/>
<polygon points="881,703 919,692 850,613" style="fill:rgb(203,203,201)"/>
<polygon points="671,795 632,777 585,819" style="fill:rgb(35,31,27)"/>
<polygon points="665,785 715,800 667,748" style="fill:rgb(181,183,187)"/>
<polygon points="291,194 300,195 355,140" style="fill:rgb(61,27,23)"/>
<polygon points="305,195 300,195 317,204" style="fill:rgb(25,22,21)"/>
<polygon points="907,701 919,692 881,703" style="fill:rgb(147,146,153)"/>
<polygon points="404,77 384,91 423,101" style="fill:rgb(152,152,150)"/>
<polygon points="919,692 962,647 850,613" style="fill:rgb(197,195,190)"/>
<polygon points="767,781 779,776 769,770" style="fill:rgb(163,165,171)"/>
<polygon points="835,756 871,732 843,730" style="fill:rgb(165,165,172)"/>
<polygon points="767,781 769,770 758,775" style="fill:rgb(162,164,172)"/>
<polygon points="907,701 919,696 919,692" style="fill:rgb(102,94,103)"/>
<polygon points="835,756 843,730 824,746" style="fill:rgb(179,181,186)"/>
<polygon points="758,785 767,781 758,775" style="fill:rgb(146,147,152)"/>
<polygon points="384,91 370,101 382,108" style="fill:rgb(16,17,20)"/>
<polygon points="871,732 919,696 907,701" style="fill:rgb(145,141,148)"/>
<polygon points="919,692 956,683 962,647" style="fill:rgb(199,197,192)"/>
<polygon points="753,794 758,785 739,800" style="fill:rgb(159,157,164)"/>

<polygon points="364,700 373,613 324,682" style="fill:rgb(160,161,159)"/>
<polygon points="422,719 438,743 463,736" style="fill:rgb(161,164,170)"/>
<polygon points="324,682 373,613 345,610" style="fill:rgb(163,161,155)"/>

<polygon points="779,776 807,769 769,770" style="fill:rgb(161,164,171)"/>

<polygon points="807,769 835,756 824,746" style="fill:rgb(155,158,165)"/>
<polygon points="489,774 525,758 463,736" style="fill:rgb(156,160,166)"/>
<polygon points="534,771 557,809 574,765" style="fill:rgb(42,38,34)"/>
<polygon points="407,747 438,743 422,719" style="fill:rgb(151,153,159)"/>
<polygon points="300,195 291,194 317,204" style="fill:rgb(18,17,17)"/>
<polygon points="273,549 284,582 320,491" style="fill:rgb(171,170,165)"/>

<polygon points="671,795 715,800 665,785" style="fill:rgb(129,131,140)"/>



<polygon points="458,761 489,774 463,736" style="fill:rgb(156,160,167)"/>
<polygon points="533,812 529,789 521,781" style="fill:rgb(21,20,22)"/>
<polygon points="521,781 529,789 534,771" style="fill:rgb(92,95,102)"/>
<polygon points="739,800 758,785 758,775" style="fill:rgb(170,172,176)"/>
<polygon points="460,765 458,761 407,747" style="fill:rgb(90,92,108)"/>
<polygon points="438,743 458,761 463,736" style="fill:rgb(158,162,168)"/>



<polygon points="715,800 739,800 758,775" style="fill:rgb(177,178,182)"/>
<polygon points="407,747 458,761 438,743" style="fill:rgb(127,131,142)"/>
<polygon points="458,761 460,765 489,774" style="fill:rgb(126,128,143)"/>
<polygon points="533,812 557,809 529,789" style="fill:rgb(26,25,26)"/>
<polygon points="1008,651 1011,601 990,603" style="fill:rgb(183,182,177)"/>
<polygon points="990,603 1016,592 981,596" style="fill:rgb(97,99,99)"/>
<polygon points="1008,651 990,603 962,647" style="fill:rgb(184,181,174)"/>
<polygon points="1011,601 1016,592 990,603" style="fill:rgb(157,159,154)"/>
<polygon points="324,682 345,610 292,652" style="fill:rgb(174,173,169)"/>
<polygon points="402,717 407,747 422,719" style="fill:rgb(161,163,168)"/>
<polygon points="585,819 632,777 604,772" style="fill:rgb(43,39,36)"/>


<polygon points="956,683 970,671 962,647" style="fill:rgb(196,194,189)"/>

<polygon points="529,789 557,809 534,771" style="fill:rgb(48,44,40)"/>
<polygon points="956,683 966,679 970,671" style="fill:rgb(171,164,160)"/>
<polygon points="1042,591 1035,588 1044,601" style="fill:rgb(170,171,171)"/>
<polygon points="399,743 407,747 402,717" style="fill:rgb(119,124,136)"/>



<polygon points="367,725 399,743 402,717" style="fill:rgb(124,129,141)"/>
<polygon points="557,809 585,819 574,765" style="fill:rgb(37,29,24)"/>
<polygon points="273,549 267,593 284,582" style="fill:rgb(154,154,152)"/>
<polygon points="284,582 292,652 340,608" style="fill:rgb(182,179,174)"/>
<polygon points="364,700 367,725 402,717" style="fill:rgb(137,141,149)"/>
<polygon points="263,598 267,593 273,549" style="fill:rgb(109,108,116)"/>
<polygon points="1016,592 1011,601 1044,601" style="fill:rgb(173,173,170)"/>
<polygon points="1044,601 1035,588 1016,592" style="fill:rgb(157,160,160)"/>


<polygon points="557,809 584,839 585,819" style="fill:rgb(12,11,12)"/>
<polygon points="292,652 345,610 340,608" style="fill:rgb(185,184,179)"/>
<polygon points="358,719 367,725 364,700" style="fill:rgb(116,121,131)"/>
<polygon points="337,703 358,719 364,700" style="fill:rgb(119,124,133)"/>
<polygon points="267,593 292,652 284,582" style="fill:rgb(166,166,163)"/>
<polygon points="328,706 337,703 324,682" style="fill:rgb(137,141,148)"/>
<polygon points="324,682 337,703 364,700" style="fill:rgb(141,144,150)"/>
<polygon points="1008,651 962,647 970,671" style="fill:rgb(190,190,185)"/>

<polygon points="274,646 292,652 267,593" style="fill:rgb(146,146,147)"/>
<polygon points="1014,657 1008,651 970,671" style="fill:rgb(191,191,190)"/>
<polygon points="292,652 309,679 324,682" style="fill:rgb(154,155,157)"/>
<polygon points="1008,651 1044,601 1011,601" style="fill:rgb(184,183,181)"/>
<polygon points="309,679 328,706 324,682" style="fill:rgb(138,142,148)"/>
<polygon points="337,703 328,706 358,719" style="fill:rgb(100,103,113)"/>

<polygon points="1057,593 1057,581 1042,591" style="fill:rgb(165,168,168)"/>
<polygon points="1042,591 1057,581 1035,588" style="fill:rgb(125,135,140)"/>
<polygon points="585,819 584,839 671,795" style="fill:rgb(24,23,24)"/>
<polygon points="1008,651 1014,657 1044,601" style="fill:rgb(136,135,134)"/>
<polygon points="1044,601 1048,602 1042,591" style="fill:rgb(189,191,188)"/>


<polygon points="263,598 274,646 267,593" style="fill:rgb(116,116,118)"/>
<polygon points="292,652 290,670 309,679" style="fill:rgb(120,122,128)"/>
<polygon points="309,679 290,670 328,706" style="fill:rgb(110,112,119)"/>
<polygon points="274,646 282,659 292,652" style="fill:rgb(133,134,135)"/>
<polygon points="282,659 290,670 292,652" style="fill:rgb(108,110,115)"/>

<polygon points="1048,602 1057,593 1042,591" style="fill:rgb(187,187,185)"/>

<polygon points="1057,593 1064,583 1057,581" style="fill:rgb(163,163,161)"/>







</svg>