<svg xmlns="http://www.w3.org/2000/svg" width="inherit" height="inherit" viewBox="-150 -100 700 700" shape-rendering="crispEdges">
<polygon points="212,305 218,329 250,299" style="fill:rgb(9,40,54)"/>
<polygon points="190,348 221,344 218,329" style="fill:rgb(16,11,8)"/>
<polygon points="218,329 221,344 250,299" style="fill:rgb(49,24,13)"/>
<polygon points="221,344 273,304 250,299" style="fill:rgb(104,39,8)"/>
<polygon points="247,228 182,295 212,305" style="fill:rgb(7,69,98)"/>
<polygon points="212,305 190,348 218,329" style="fill:rgb(6,43,65)"/>
<polygon points="182,295 190,348 212,305" style="fill:rgb(8,68,101)"/>
<polygon points="273,304 262,235 250,299" style="fill:rgb(160,83,23)"/>
<polygon points="250,299 247,228 212,305" style="fill:rgb(9,51,69)"/>
<polygon points="262,235 247,228 250,299" style="fill:rgb(48,55,49)"/>
<polygon points="279,412 330,295 273,304" style="fill:rgb(87,38,3)"/>
<polygon points="273,304 308,225 262,235" style="fill:rgb(152,72,15)"/>
<polygon points="247,228 169,234 182,295" style="fill:rgb(13,98,133)"/>
<polygon points="182,295 139,367 190,348" style="fill:rgb(9,82,120)"/>
<polygon points="308,225 261,210 262,235" style="fill:rgb(162,83,23)"/>
<polygon points="262,235 261,210 247,228" style="fill:rgb(103,88,70)"/>
<polygon points="247,228 202,208 169,234" style="fill:rgb(50,121,149)"/>
<polygon points="124,280 139,367 182,295" style="fill:rgb(13,97,133)"/>
<polygon points="190,348 165,398 221,344" style="fill:rgb(36,16,5)"/>
<polygon points="154,394 165,398 190,348" style="fill:rgb(12,22,27)"/>
<polygon points="221,344 279,412 273,304" style="fill:rgb(84,31,4)"/>
<polygon points="261,210 202,208 247,228" style="fill:rgb(26,70,83)"/>
<polygon points="259,439 279,412 212,442" style="fill:rgb(95,55,6)"/>
<polygon points="139,367 154,394 190,348" style="fill:rgb(12,89,135)"/>
<polygon points="169,234 124,280 182,295" style="fill:rgb(18,103,133)"/>
<polygon points="330,295 308,225 273,304" style="fill:rgb(107,46,6)"/>
<polygon points="169,234 121,249 124,280" style="fill:rgb(86,139,159)"/>
<polygon points="133,231 121,249 169,234" style="fill:rgb(108,145,160)"/>
<polygon points="177,177 133,231 169,234" style="fill:rgb(117,153,169)"/>
<polygon points="212,442 221,344 165,398" style="fill:rgb(134,55,7)"/>
<polygon points="212,442 279,412 221,344" style="fill:rgb(95,37,3)"/>

<polygon points="279,412 370,328 330,295" style="fill:rgb(105,63,4)"/>
<polygon points="157,477 212,442 165,398" style="fill:rgb(145,72,10)"/>

<polygon points="121,249 84,342 124,280" style="fill:rgb(50,118,140)"/>
<polygon points="315,187 250,177 261,210" style="fill:rgb(201,107,37)"/>
<polygon points="261,210 250,177 202,208" style="fill:rgb(43,89,100)"/>
<polygon points="202,208 177,177 169,234" style="fill:rgb(98,135,149)"/>

<polygon points="330,295 383,251 308,225" style="fill:rgb(124,64,12)"/>
<polygon points="259,439 281,448 279,434" style="fill:rgb(83,41,24)"/>

<polygon points="278,466 281,448 259,439" style="fill:rgb(156,137,115)"/>
<polygon points="250,177 211,169 202,208" style="fill:rgb(69,97,106)"/>
<polygon points="211,169 177,177 202,208" style="fill:rgb(81,109,116)"/>
<polygon points="369,214 315,187 308,225" style="fill:rgb(192,113,49)"/>
<polygon points="308,225 315,187 261,210" style="fill:rgb(202,106,31)"/>
<polygon points="250,177 225,157 211,169" style="fill:rgb(133,106,75)"/>
<polygon points="124,280 84,342 139,367" style="fill:rgb(21,111,148)"/>
<polygon points="81,431 113,444 154,394" style="fill:rgb(16,54,71)"/>

<polygon points="73,348 84,342 121,249" style="fill:rgb(32,114,139)"/>
<polygon points="235,465 212,442 157,477" style="fill:rgb(93,49,6)"/>
<polygon points="212,442 235,465 259,439" style="fill:rgb(84,45,9)"/>
<polygon points="207,141 170,172 177,177" style="fill:rgb(142,192,207)"/>
<polygon points="177,177 170,172 133,231" style="fill:rgb(128,169,180)"/>
<polygon points="267,144 225,157 250,177" style="fill:rgb(157,92,37)"/>
<polygon points="211,169 207,141 177,177" style="fill:rgb(114,130,128)"/>
<polygon points="260,471 278,466 259,439" style="fill:rgb(139,112,95)"/>
<polygon points="281,448 313,491 279,434" style="fill:rgb(108,104,73)"/>
<polygon points="235,465 260,471 259,439" style="fill:rgb(90,65,45)"/>
<polygon points="370,328 383,251 330,295" style="fill:rgb(118,66,9)"/>

<polygon points="84,342 66,400 139,367" style="fill:rgb(30,120,164)"/>
<polygon points="383,251 369,214 308,225" style="fill:rgb(145,81,25)"/>
<polygon points="286,145 267,144 250,177" style="fill:rgb(184,114,55)"/>
<polygon points="225,157 207,141 211,169" style="fill:rgb(195,171,128)"/>
<polygon points="286,145 250,177 315,187" style="fill:rgb(218,132,65)"/>
<polygon points="208,136 207,141 225,157" style="fill:rgb(196,184,140)"/>
<polygon points="113,444 165,398 154,394" style="fill:rgb(38,18,9)"/>
<polygon points="235,465 238,486 260,471" style="fill:rgb(155,90,43)"/>
<polygon points="260,471 313,491 278,466" style="fill:rgb(109,63,33)"/>
<polygon points="344,157 286,145 315,187" style="fill:rgb(227,163,108)"/>
<polygon points="81,431 154,394 139,367" style="fill:rgb(14,87,125)"/>
<polygon points="224,101 225,157 267,144" style="fill:rgb(166,130,61)"/>
<polygon points="224,101 208,136 225,157" style="fill:rgb(179,155,92)"/>

<polygon points="118,457 157,477 165,398" style="fill:rgb(130,66,5)"/>
<polygon points="106,466 118,457 113,444" style="fill:rgb(86,52,5)"/>
<polygon points="113,444 118,457 165,398" style="fill:rgb(79,35,3)"/>
<polygon points="73,348 66,400 84,342" style="fill:rgb(81,161,200)"/>
<polygon points="369,214 344,157 315,187" style="fill:rgb(212,141,80)"/>
<polygon points="344,157 290,130 286,145" style="fill:rgb(208,154,95)"/>
<polygon points="286,145 290,130 267,144" style="fill:rgb(213,187,148)"/>
<polygon points="66,400 81,431 139,367" style="fill:rgb(26,104,144)"/>
<polygon points="73,348 61,401 66,400" style="fill:rgb(133,197,227)"/>
<polygon points="66,400 70,434 81,431" style="fill:rgb(17,108,161)"/>
<polygon points="238,486 313,491 260,471" style="fill:rgb(23,12,6)"/>
<polygon points="278,466 313,491 281,448" style="fill:rgb(158,144,121)"/>
<polygon points="74,458 106,466 113,444" style="fill:rgb(23,25,21)"/>
<polygon points="118,457 106,466 157,477" style="fill:rgb(109,59,3)"/>
<polygon points="369,214 357,154 344,157" style="fill:rgb(205,135,69)"/>
<polygon points="344,157 347,143 290,130" style="fill:rgb(85,63,42)"/>
<polygon points="382,160 357,154 369,214" style="fill:rgb(168,94,24)"/>
<polygon points="61,401 70,434 66,400" style="fill:rgb(93,177,228)"/>
<polygon points="74,458 91,472 106,466" style="fill:rgb(16,58,86)"/>
<polygon points="290,130 267,111 267,144" style="fill:rgb(207,197,174)"/>
<polygon points="325,105 267,111 290,130" style="fill:rgb(34,96,119)"/>
<polygon points="357,154 347,143 344,157" style="fill:rgb(116,64,19)"/>
<polygon points="267,111 224,101 267,144" style="fill:rgb(201,182,140)"/>

<polygon points="74,458 113,444 81,431" style="fill:rgb(38,36,29)"/>
<polygon points="106,466 97,514 157,477" style="fill:rgb(94,53,6)"/>

<polygon points="383,251 382,160 369,214" style="fill:rgb(115,65,17)"/>
<polygon points="357,154 362,129 347,143" style="fill:rgb(76,73,68)"/>
<polygon points="61,448 74,458 70,434" style="fill:rgb(83,150,175)"/>
<polygon points="70,434 74,458 81,431" style="fill:rgb(41,115,159)"/>
<polygon points="61,401 61,448 70,434" style="fill:rgb(99,159,191)"/>
<polygon points="74,458 86,505 91,472" style="fill:rgb(64,144,192)"/>
<polygon points="271,82 229,89 267,111" style="fill:rgb(57,98,106)"/>
<polygon points="267,111 229,89 224,101" style="fill:rgb(215,201,172)"/>
<polygon points="200,87 184,91 208,136" style="fill:rgb(169,156,102)"/>
<polygon points="382,160 362,129 357,154" style="fill:rgb(139,78,24)"/>
<polygon points="347,143 325,105 290,130" style="fill:rgb(21,87,115)"/>
<polygon points="200,87 208,136 224,101" style="fill:rgb(168,152,94)"/>
<polygon points="362,129 325,105 347,143" style="fill:rgb(53,107,130)"/>
<polygon points="229,89 200,87 224,101" style="fill:rgb(199,188,163)"/>
<polygon points="325,105 271,82 267,111" style="fill:rgb(38,114,144)"/>
<polygon points="229,89 191,61 200,87" style="fill:rgb(42,48,47)"/>
<polygon points="362,129 342,97 325,105" style="fill:rgb(233,224,207)"/>
<polygon points="304,70 265,74 271,82" style="fill:rgb(162,112,63)"/>
<polygon points="382,160 373,121 362,129" style="fill:rgb(129,96,54)"/>
<polygon points="304,70 271,82 325,105" style="fill:rgb(191,130,74)"/>
<polygon points="271,82 265,74 229,89" style="fill:rgb(107,93,76)"/>
<polygon points="357,100 342,97 362,129" style="fill:rgb(234,232,220)"/>
<polygon points="61,448 86,505 74,458" style="fill:rgb(29,41,35)"/>
<polygon points="91,472 97,514 106,466" style="fill:rgb(6,26,34)"/>
<polygon points="86,505 97,514 91,472" style="fill:rgb(7,66,114)"/>
<polygon points="373,121 357,100 362,129" style="fill:rgb(221,210,185)"/>
<polygon points="279,42 256,63 265,74" style="fill:rgb(31,35,40)"/>
<polygon points="304,70 325,105 342,97" style="fill:rgb(188,110,44)"/>
<polygon points="265,74 256,63 229,89" style="fill:rgb(59,57,53)"/>
<polygon points="200,87 191,61 184,91" style="fill:rgb(49,47,33)"/>
<polygon points="327,58 304,70 342,97" style="fill:rgb(41,67,76)"/>
<polygon points="373,121 360,92 357,100" style="fill:rgb(75,86,73)"/>
<polygon points="357,100 360,92 342,97" style="fill:rgb(67,96,102)"/>
<polygon points="250,54 191,61 229,89" style="fill:rgb(73,68,64)"/>
<polygon points="279,42 250,54 256,63" style="fill:rgb(36,34,32)"/>
<polygon points="256,63 250,54 229,89" style="fill:rgb(121,112,100)"/>



<polygon points="220,26 182,49 191,61" style="fill:rgb(144,168,176)"/>
<polygon points="191,61 156,55 184,91" style="fill:rgb(28,33,28)"/>
<polygon points="182,49 156,55 191,61" style="fill:rgb(145,158,170)"/>
<polygon points="336,47 327,58 360,92" style="fill:rgb(23,88,115)"/>
<polygon points="360,92 327,58 342,97" style="fill:rgb(22,89,120)"/>
<polygon points="304,70 279,42 265,74" style="fill:rgb(38,45,45)"/>
<polygon points="250,54 242,38 191,61" style="fill:rgb(168,132,99)"/>
<polygon points="327,58 279,42 304,70" style="fill:rgb(12,54,68)"/>
<polygon points="279,42 242,38 250,54" style="fill:rgb(52,87,96)"/>
<polygon points="85,554 97,514 86,505" style="fill:rgb(41,111,159)"/>
<polygon points="85,554 97,557 97,514" style="fill:rgb(38,30,16)"/>
<polygon points="97,514 97,557 157,477" style="fill:rgb(71,41,4)"/>


<polygon points="327,58 336,47 279,42" style="fill:rgb(35,114,147)"/>
<polygon points="271,19 220,26 242,38" style="fill:rgb(120,161,174)"/>
<polygon points="271,19 242,38 279,42" style="fill:rgb(81,145,165)"/>
<polygon points="242,38 220,26 191,61" style="fill:rgb(140,164,174)"/>
<polygon points="182,49 112,46 156,55" style="fill:rgb(154,168,175)"/>

<polygon points="156,55 92,55 184,91" style="fill:rgb(14,20,12)"/>

<polygon points="112,46 104,49 156,55" style="fill:rgb(130,143,145)"/>
<polygon points="104,49 92,55 156,55" style="fill:rgb(62,70,65)"/>

<polygon points="336,47 271,19 279,42" style="fill:rgb(64,137,163)"/>





</svg>