<svg width="32" height="32" viewBox="0 0 32 32" fill="none" xmlns="http://www.w3.org/2000/svg">
<path d="M26.41 7L30 3.41L28.59 2L25 5.59L21.41 2L20 3.41L23.59 7L20 10.59L21.41 12L25 8.41L28.59 12L30 10.59L26.41 7ZM24 15V22.556C23.3947 22.1959 22.7043 22.004 22 22C21.2089 22 20.4355 22.2346 19.7777 22.6741C19.1199 23.1136 18.6072 23.7384 18.3045 24.4693C18.0017 25.2002 17.9225 26.0044 18.0769 26.7804C18.2312 27.5563 18.6122 28.269 19.1716 28.8284C19.731 29.3878 20.4437 29.7688 21.2196 29.9231C21.9956 30.0775 22.7998 29.9983 23.5307 29.6955C24.2616 29.3928 24.8864 28.8801 25.3259 28.2223C25.7654 27.5645 26 26.7911 26 26V15H24ZM22 28C21.6044 28 21.2178 27.8827 20.8889 27.6629C20.56 27.4432 20.3036 27.1308 20.1522 26.7654C20.0009 26.3999 19.9613 25.9978 20.0384 25.6098C20.1156 25.2219 20.3061 24.8655 20.5858 24.5858C20.8655 24.3061 21.2219 24.1156 21.6098 24.0384C21.9978 23.9613 22.3999 24.0009 22.7654 24.1522C23.1308 24.3036 23.4432 24.56 23.6629 24.8889C23.8827 25.2178 24 25.6044 24 26C23.9992 26.5302 23.7882 27.0384 23.4133 27.4133C23.0384 27.7882 22.5302 27.9992 22 28V28ZM17 6H10C9.46973 6.00053 8.96133 6.21141 8.58637 6.58637C8.21142 6.96133 8.00053 7.46973 8 8V22.556C7.39471 22.1959 6.70428 22.004 6 22C5.20888 22 4.43552 22.2346 3.77772 22.6741C3.11992 23.1136 2.60723 23.7384 2.30448 24.4693C2.00173 25.2002 1.92252 26.0044 2.07686 26.7804C2.2312 27.5563 2.61216 28.269 3.17157 28.8284C3.73098 29.3878 4.44372 29.7688 5.21964 29.9231C5.99556 30.0775 6.79983 29.9983 7.53074 29.6955C8.26164 29.3928 8.88635 28.8801 9.32588 28.2223C9.76541 27.5645 10 26.7911 10 26V8H17V6ZM6 28C5.60444 28 5.21776 27.8827 4.88886 27.6629C4.55996 27.4432 4.30362 27.1308 4.15224 26.7654C4.00087 26.3999 3.96126 25.9978 4.03843 25.6098C4.1156 25.2219 4.30608 24.8655 4.58579 24.5858C4.86549 24.3061 5.22186 24.1156 5.60982 24.0384C5.99778 23.9613 6.39992 24.0009 6.76537 24.1522C7.13082 24.3036 7.44318 24.56 7.66294 24.8889C7.8827 25.2178 8 25.6044 8 26C7.99947 26.5303 7.78859 27.0387 7.41363 27.4136C7.03867 27.7886 6.53027 27.9995 6 28V28Z" fill="white"/>
</svg>
