<svg xmlns="http://www.w3.org/2000/svg" viewBox="0 0 1000 1000" shape-rendering="crispEdges">
<polygon points="500,498 537,510 527,458" style="fill:rgb(122,103,86)"/>
<polygon points="537,510 553,505 527,458" style="fill:rgb(88,84,76)"/>
<polygon points="563,500 540,449 527,458" style="fill:rgb(65,67,66)"/>
<polygon points="553,505 563,500 527,458" style="fill:rgb(64,66,66)"/>
<polygon points="537,510 556,523 553,505" style="fill:rgb(87,81,74)"/>
<polygon points="553,505 556,523 563,500" style="fill:rgb(43,47,47)"/>
<polygon points="535,541 556,523 537,510" style="fill:rgb(93,83,73)"/>
<polygon points="500,498 535,541 537,510" style="fill:rgb(138,111,88)"/>
<polygon points="540,449 508,429 527,458" style="fill:rgb(74,71,69)"/>
<polygon points="527,458 473,457 500,498" style="fill:rgb(135,109,87)"/>
<polygon points="508,429 473,457 527,458" style="fill:rgb(133,108,89)"/>
<polygon points="563,500 576,448 540,449" style="fill:rgb(99,87,78)"/>
<polygon points="540,449 536,413 508,429" style="fill:rgb(72,69,66)"/>
<polygon points="473,457 458,489 500,498" style="fill:rgb(111,87,72)"/>
<polygon points="500,498 466,528 535,541" style="fill:rgb(107,87,72)"/>
<polygon points="620,495 587,460 563,500" style="fill:rgb(101,85,71)"/>
<polygon points="563,500 587,460 576,448" style="fill:rgb(63,62,60)"/>
<polygon points="603,413 565,427 576,448" style="fill:rgb(55,56,56)"/>
<polygon points="576,448 565,427 540,449" style="fill:rgb(73,68,67)"/>
<polygon points="574,547 579,532 556,523" style="fill:rgb(66,65,62)"/>
<polygon points="556,523 579,532 563,500" style="fill:rgb(33,37,37)"/>
<polygon points="458,489 466,528 500,498" style="fill:rgb(106,81,63)"/>
<polygon points="538,566 553,553 535,541" style="fill:rgb(70,66,64)"/>
<polygon points="535,541 553,553 556,523" style="fill:rgb(101,88,76)"/>
<polygon points="565,427 536,413 540,449" style="fill:rgb(74,70,67)"/>
<polygon points="574,547 588,532 579,532" style="fill:rgb(86,84,81)"/>
<polygon points="579,532 588,532 563,500" style="fill:rgb(112,100,89)"/>
<polygon points="553,553 574,547 556,523" style="fill:rgb(135,114,92)"/>
<polygon points="495,405 469,428 508,429" style="fill:rgb(125,93,68)"/>
<polygon points="508,429 469,428 473,457" style="fill:rgb(141,108,84)"/>
<polygon points="473,457 436,456 458,489" style="fill:rgb(140,107,82)"/>
<polygon points="497,577 538,566 535,541" style="fill:rgb(101,88,76)"/>
<polygon points="601,571 601,561 574,547" style="fill:rgb(130,112,96)"/>
<polygon points="469,428 463,431 473,457" style="fill:rgb(195,161,122)"/>
<polygon points="430,467 446,510 458,489" style="fill:rgb(125,92,70)"/>
<polygon points="458,489 446,510 466,528" style="fill:rgb(107,70,46)"/>
<polygon points="536,413 495,405 508,429" style="fill:rgb(62,52,45)"/>
<polygon points="469,428 428,423 463,431" style="fill:rgb(132,97,73)"/>
<polygon points="449,556 474,558 466,528" style="fill:rgb(166,126,91)"/>
<polygon points="466,528 482,564 535,541" style="fill:rgb(86,76,67)"/>
<polygon points="474,558 482,564 466,528" style="fill:rgb(127,101,81)"/>
<polygon points="463,431 436,456 473,457" style="fill:rgb(151,115,85)"/>
<polygon points="488,598 497,577 482,564" style="fill:rgb(70,65,62)"/>
<polygon points="482,564 497,577 535,541" style="fill:rgb(88,77,67)"/>
<polygon points="588,532 620,495 563,500" style="fill:rgb(83,72,62)"/>
<polygon points="587,460 603,413 576,448" style="fill:rgb(74,68,65)"/>
<polygon points="436,456 430,467 458,489" style="fill:rgb(169,130,93)"/>
<polygon points="437,554 449,556 466,528" style="fill:rgb(141,100,65)"/>
<polygon points="468,613 488,598 482,564" style="fill:rgb(84,73,64)"/>
<polygon points="437,554 466,528 446,510" style="fill:rgb(142,102,66)"/>
<polygon points="497,577 536,591 538,566" style="fill:rgb(168,152,124)"/>
<polygon points="538,566 543,596 553,553" style="fill:rgb(60,60,59)"/>
<polygon points="574,547 601,561 588,532" style="fill:rgb(103,94,85)"/>
<polygon points="622,427 603,413 587,460" style="fill:rgb(65,58,52)"/>
<polygon points="565,427 540,370 536,413" style="fill:rgb(95,81,72)"/>
<polygon points="536,413 518,377 495,405" style="fill:rgb(42,35,32)"/>
<polygon points="601,571 574,547 585,602" style="fill:rgb(181,158,125)"/>
<polygon points="588,532 601,561 620,495" style="fill:rgb(84,76,69)"/>
<polygon points="540,370 518,377 536,413" style="fill:rgb(72,53,44)"/>
<polygon points="444,356 428,423 469,428" style="fill:rgb(132,89,56)"/>
<polygon points="428,423 414,459 436,456" style="fill:rgb(137,98,70)"/>
<polygon points="421,527 437,554 446,510" style="fill:rgb(117,84,57)"/>
<polygon points="488,598 515,601 497,577" style="fill:rgb(76,71,64)"/>
<polygon points="412,501 421,527 446,510" style="fill:rgb(113,79,53)"/>
<polygon points="515,601 543,596 536,591" style="fill:rgb(76,76,69)"/>
<polygon points="536,591 543,596 538,566" style="fill:rgb(85,81,72)"/>
<polygon points="515,601 536,591 497,577" style="fill:rgb(143,134,113)"/>
<polygon points="430,467 412,501 446,510" style="fill:rgb(152,114,79)"/>
<polygon points="436,456 414,459 430,467" style="fill:rgb(177,138,98)"/>
<polygon points="430,467 414,459 412,501" style="fill:rgb(139,94,58)"/>
<polygon points="428,423 436,456 463,431" style="fill:rgb(154,115,84)"/>
<polygon points="642,459 622,427 587,460" style="fill:rgb(99,80,66)"/>
<polygon points="403,516 419,529 421,527" style="fill:rgb(62,52,40)"/>
<polygon points="421,527 419,529 437,554" style="fill:rgb(45,28,17)"/>
<polygon points="585,602 574,547 553,553" style="fill:rgb(98,91,80)"/>
<polygon points="675,493 642,459 620,495" style="fill:rgb(77,67,59)"/>
<polygon points="444,356 469,428 495,405" style="fill:rgb(120,80,53)"/>
<polygon points="482,564 474,558 468,613" style="fill:rgb(120,92,72)"/>
<polygon points="594,369 540,370 565,427" style="fill:rgb(72,67,65)"/>
<polygon points="622,427 616,411 603,413" style="fill:rgb(95,78,66)"/>
<polygon points="603,413 594,369 565,427" style="fill:rgb(64,63,62)"/>
<polygon points="381,453 408,504 412,501" style="fill:rgb(125,93,68)"/>
<polygon points="412,501 408,504 421,527" style="fill:rgb(107,77,55)"/>
<polygon points="468,613 474,558 449,556" style="fill:rgb(146,111,80)"/>
<polygon points="669,467 642,459 675,493" style="fill:rgb(94,79,67)"/>
<polygon points="620,495 642,459 587,460" style="fill:rgb(86,74,62)"/>
<polygon points="622,427 625,414 616,411" style="fill:rgb(145,117,93)"/>
<polygon points="644,443 625,414 622,427" style="fill:rgb(133,106,86)"/>
<polygon points="616,411 594,369 603,413" style="fill:rgb(36,37,38)"/>
<polygon points="408,504 403,516 421,527" style="fill:rgb(47,37,31)"/>
<polygon points="419,529 408,549 437,554" style="fill:rgb(128,99,73)"/>
<polygon points="395,518 403,516 408,504" style="fill:rgb(59,45,34)"/>
<polygon points="642,459 644,443 622,427" style="fill:rgb(136,105,82)"/>
<polygon points="490,339 487,363 505,330" style="fill:rgb(62,45,35)"/>
<polygon points="518,377 487,363 495,405" style="fill:rgb(76,57,44)"/>
<polygon points="554,619 585,602 543,596" style="fill:rgb(29,29,28)"/>
<polygon points="543,596 585,602 553,553" style="fill:rgb(60,59,58)"/>
<polygon points="395,518 408,549 419,529" style="fill:rgb(153,119,86)"/>
<polygon points="468,613 496,620 488,598" style="fill:rgb(84,74,66)"/>
<polygon points="360,498 395,518 408,504" style="fill:rgb(81,63,47)"/>
<polygon points="403,516 395,518 419,529" style="fill:rgb(154,123,95)"/>
<polygon points="637,358 594,369 616,411" style="fill:rgb(37,34,31)"/>
<polygon points="490,339 468,348 487,363" style="fill:rgb(80,62,51)"/>
<polygon points="533,636 543,596 515,601" style="fill:rgb(25,26,24)"/>
<polygon points="533,636 554,619 543,596" style="fill:rgb(18,19,19)"/>
<polygon points="468,613 449,556 459,619" style="fill:rgb(174,140,103)"/>
<polygon points="488,598 496,620 515,601" style="fill:rgb(45,45,44)"/>
<polygon points="466,621 468,613 459,619" style="fill:rgb(186,168,141)"/>
<polygon points="554,619 589,613 585,602" style="fill:rgb(56,52,43)"/>
<polygon points="585,602 625,594 601,571" style="fill:rgb(166,138,102)"/>
<polygon points="675,493 620,495 601,561" style="fill:rgb(75,65,56)"/>
<polygon points="642,459 669,467 644,443" style="fill:rgb(110,89,75)"/>
<polygon points="644,443 672,440 625,414" style="fill:rgb(55,54,48)"/>
<polygon points="625,414 637,358 616,411" style="fill:rgb(34,34,33)"/>
<polygon points="375,438 381,453 414,459" style="fill:rgb(135,95,63)"/>
<polygon points="414,459 381,453 412,501" style="fill:rgb(145,102,67)"/>
<polygon points="375,438 414,459 428,423" style="fill:rgb(121,80,50)"/>
<polygon points="459,619 449,556 411,584" style="fill:rgb(131,105,82)"/>
<polygon points="468,613 466,621 496,620" style="fill:rgb(101,87,73)"/>
<polygon points="496,620 533,636 515,601" style="fill:rgb(25,25,25)"/>
<polygon points="589,613 625,594 585,602" style="fill:rgb(157,124,84)"/>
<polygon points="487,363 518,377 505,330" style="fill:rgb(98,68,49)"/>
<polygon points="487,363 444,356 495,405" style="fill:rgb(133,96,67)"/>
<polygon points="411,584 449,556 437,554" style="fill:rgb(106,79,56)"/>
<polygon points="361,560 411,584 408,549" style="fill:rgb(128,98,72)"/>
<polygon points="408,549 411,584 437,554" style="fill:rgb(127,97,71)"/>
<polygon points="505,330 518,377 540,370" style="fill:rgb(85,60,45)"/>
<polygon points="521,650 533,636 496,620" style="fill:rgb(40,37,34)"/>
<polygon points="586,686 599,681 589,613" style="fill:rgb(114,90,65)"/>
<polygon points="446,345 444,356 468,348" style="fill:rgb(76,55,42)"/>
<polygon points="468,348 444,356 487,363" style="fill:rgb(113,80,56)"/>
<polygon points="464,641 488,634 466,621" style="fill:rgb(164,142,113)"/>
<polygon points="466,621 488,634 496,620" style="fill:rgb(149,122,93)"/>
<polygon points="684,466 672,440 669,467" style="fill:rgb(66,60,52)"/>
<polygon points="669,467 672,440 644,443" style="fill:rgb(51,50,46)"/>
<polygon points="532,297 505,330 540,370" style="fill:rgb(94,63,46)"/>
<polygon points="369,399 375,438 428,423" style="fill:rgb(136,92,58)"/>
<polygon points="356,482 360,498 408,504" style="fill:rgb(60,45,36)"/>
<polygon points="395,518 361,560 408,549" style="fill:rgb(87,64,47)"/>
<polygon points="521,650 539,644 533,636" style="fill:rgb(78,66,55)"/>
<polygon points="533,636 539,644 554,619" style="fill:rgb(29,30,29)"/>
<polygon points="589,613 620,620 625,594" style="fill:rgb(155,122,82)"/>
<polygon points="675,493 684,466 669,467" style="fill:rgb(112,92,74)"/>
<polygon points="444,356 402,369 428,423" style="fill:rgb(135,91,57)"/>
<polygon points="488,634 521,650 496,620" style="fill:rgb(111,81,54)"/>
<polygon points="624,647 620,620 589,613" style="fill:rgb(127,94,61)"/>
<polygon points="624,647 589,613 599,681" style="fill:rgb(158,119,77)"/>
<polygon points="356,482 408,504 381,453" style="fill:rgb(55,42,36)"/>
<polygon points="418,612 427,619 411,584" style="fill:rgb(77,62,52)"/>
<polygon points="411,584 427,619 459,619" style="fill:rgb(123,101,84)"/>
<polygon points="459,619 459,638 466,621" style="fill:rgb(192,170,142)"/>
<polygon points="488,634 513,665 521,650" style="fill:rgb(110,83,56)"/>
<polygon points="383,608 418,612 411,584" style="fill:rgb(100,81,66)"/>
<polygon points="427,619 459,638 459,619" style="fill:rgb(115,97,83)"/>
<polygon points="466,659 464,641 459,638" style="fill:rgb(211,191,163)"/>
<polygon points="459,638 464,641 466,621" style="fill:rgb(214,195,163)"/>
<polygon points="684,466 686,439 672,440" style="fill:rgb(97,81,66)"/>
<polygon points="672,440 637,358 625,414" style="fill:rgb(70,64,54)"/>
<polygon points="375,438 356,482 381,453" style="fill:rgb(73,53,40)"/>
<polygon points="404,347 402,369 444,356" style="fill:rgb(126,87,58)"/>
<polygon points="375,438 341,480 356,482" style="fill:rgb(86,59,43)"/>
<polygon points="686,439 637,358 672,440" style="fill:rgb(86,72,57)"/>
<polygon points="582,288 532,297 540,370" style="fill:rgb(90,61,44)"/>
<polygon points="341,480 356,518 360,498" style="fill:rgb(42,35,29)"/>
<polygon points="360,498 356,518 395,518" style="fill:rgb(102,73,51)"/>
<polygon points="402,369 369,399 428,423" style="fill:rgb(151,100,61)"/>
<polygon points="684,466 698,440 686,439" style="fill:rgb(127,107,89)"/>
<polygon points="732,382 691,329 637,358" style="fill:rgb(119,93,71)"/>
<polygon points="356,518 361,560 395,518" style="fill:rgb(61,50,42)"/>
<polygon points="466,659 513,665 488,634" style="fill:rgb(155,125,91)"/>
<polygon points="521,650 545,678 539,644" style="fill:rgb(60,51,40)"/>
<polygon points="461,665 466,659 459,638" style="fill:rgb(145,126,102)"/>
<polygon points="464,641 466,659 488,634" style="fill:rgb(151,131,104)"/>
<polygon points="427,653 427,619 416,649" style="fill:rgb(67,60,52)"/>
<polygon points="416,330 404,347 444,356" style="fill:rgb(127,90,61)"/>
<polygon points="402,369 377,367 369,399" style="fill:rgb(137,95,60)"/>
<polygon points="416,330 444,356 446,345" style="fill:rgb(112,86,64)"/>
<polygon points="323,415 341,480 375,438" style="fill:rgb(94,61,42)"/>
<polygon points="356,482 341,480 360,498" style="fill:rgb(114,82,59)"/>
<polygon points="356,518 354,554 361,560" style="fill:rgb(41,37,35)"/>
<polygon points="328,537 354,554 356,518" style="fill:rgb(29,27,28)"/>
<polygon points="361,560 383,608 411,584" style="fill:rgb(109,87,68)"/>
<polygon points="369,399 357,406 375,438" style="fill:rgb(76,58,44)"/>
<polygon points="360,608 383,608 361,560" style="fill:rgb(136,106,82)"/>
<polygon points="582,288 540,370 594,369" style="fill:rgb(62,48,40)"/>
<polygon points="404,347 377,367 402,369" style="fill:rgb(159,115,73)"/>
<polygon points="691,329 637,333 637,358" style="fill:rgb(115,90,67)"/>
<polygon points="637,358 637,333 594,369" style="fill:rgb(37,33,31)"/>
<polygon points="364,354 361,365 377,367" style="fill:rgb(190,153,108)"/>
<polygon points="589,613 554,619 586,686" style="fill:rgb(40,38,34)"/>
<polygon points="620,620 661,622 625,594" style="fill:rgb(152,125,90)"/>
<polygon points="698,440 708,435 686,439" style="fill:rgb(89,70,54)"/>
<polygon points="427,653 459,638 427,619" style="fill:rgb(117,99,85)"/>
<polygon points="466,659 496,698 513,665" style="fill:rgb(147,117,82)"/>
<polygon points="361,365 366,377 377,367" style="fill:rgb(91,69,50)"/>
<polygon points="377,367 366,377 369,399" style="fill:rgb(52,44,34)"/>
<polygon points="636,649 661,622 620,620" style="fill:rgb(155,124,89)"/>
<polygon points="567,249 528,292 532,297" style="fill:rgb(151,96,56)"/>
<polygon points="532,297 528,292 505,330" style="fill:rgb(135,85,53)"/>
<polygon points="530,688 545,678 513,665" style="fill:rgb(108,86,63)"/>
<polygon points="513,665 545,678 521,650" style="fill:rgb(65,50,37)"/>
<polygon points="416,649 427,619 418,612" style="fill:rgb(64,59,51)"/>
<polygon points="380,647 416,649 418,612" style="fill:rgb(93,77,64)"/>
<polygon points="624,647 636,649 620,620" style="fill:rgb(152,115,76)"/>
<polygon points="605,692 636,649 624,647" style="fill:rgb(149,115,76)"/>
<polygon points="496,698 530,688 513,665" style="fill:rgb(146,115,83)"/>
<polygon points="586,686 554,619 539,644" style="fill:rgb(66,59,50)"/>
<polygon points="732,382 637,358 686,439" style="fill:rgb(127,99,74)"/>
<polygon points="364,354 377,367 404,347" style="fill:rgb(180,137,91)"/>
<polygon points="357,406 323,415 375,438" style="fill:rgb(92,64,48)"/>
<polygon points="341,480 328,537 356,518" style="fill:rgb(51,41,36)"/>
<polygon points="327,557 360,608 361,560" style="fill:rgb(123,98,78)"/>
<polygon points="296,500 328,537 341,480" style="fill:rgb(63,48,40)"/>
<polygon points="327,557 361,560 354,554" style="fill:rgb(84,71,57)"/>
<polygon points="383,608 380,647 418,612" style="fill:rgb(97,79,65)"/>
<polygon points="637,333 582,288 594,369" style="fill:rgb(47,39,36)"/>
<polygon points="383,322 364,354 404,347" style="fill:rgb(94,73,57)"/>
<polygon points="364,354 359,359 361,365" style="fill:rgb(192,172,133)"/>
<polygon points="586,686 539,644 545,678" style="fill:rgb(101,72,51)"/>
<polygon points="571,700 586,686 545,678" style="fill:rgb(91,70,55)"/>
<polygon points="328,537 327,557 354,554" style="fill:rgb(48,36,32)"/>
<polygon points="637,333 639,309 582,288" style="fill:rgb(75,61,50)"/>
<polygon points="691,329 639,309 637,333" style="fill:rgb(125,96,71)"/>
<polygon points="343,373 366,377 361,365" style="fill:rgb(81,71,56)"/>
<polygon points="328,537 293,566 327,557" style="fill:rgb(90,73,60)"/>
<polygon points="359,359 343,373 361,365" style="fill:rgb(152,131,100)"/>
<polygon points="328,372 343,373 341,350" style="fill:rgb(190,170,142)"/>
<polygon points="467,720 496,698 461,665" style="fill:rgb(146,123,93)"/>
<polygon points="461,665 496,698 466,659" style="fill:rgb(146,121,89)"/>
<polygon points="546,711 571,700 545,678" style="fill:rgb(141,110,79)"/>
<polygon points="416,330 383,322 404,347" style="fill:rgb(128,90,63)"/>
<polygon points="364,354 341,350 359,359" style="fill:rgb(136,113,87)"/>
<polygon points="364,648 380,647 360,608" style="fill:rgb(69,59,51)"/>
<polygon points="360,608 380,647 383,608" style="fill:rgb(124,97,77)"/>
<polygon points="380,647 389,658 416,649" style="fill:rgb(91,70,55)"/>
<polygon points="639,309 599,279 582,288" style="fill:rgb(44,35,34)"/>
<polygon points="582,288 567,249 532,297" style="fill:rgb(107,70,47)"/>
<polygon points="546,711 545,678 530,688" style="fill:rgb(110,86,61)"/>
<polygon points="586,686 605,692 599,681" style="fill:rgb(143,105,70)"/>
<polygon points="328,372 330,382 343,373" style="fill:rgb(122,112,103)"/>
<polygon points="591,721 605,692 586,686" style="fill:rgb(137,103,70)"/>
<polygon points="599,681 605,692 624,647" style="fill:rgb(157,120,82)"/>
<polygon points="327,557 347,619 360,608" style="fill:rgb(62,56,47)"/>
<polygon points="380,647 364,648 389,658" style="fill:rgb(87,66,50)"/>
<polygon points="492,739 519,708 496,698" style="fill:rgb(109,82,58)"/>
<polygon points="496,698 519,708 530,688" style="fill:rgb(137,104,70)"/>
<polygon points="383,322 359,335 364,354" style="fill:rgb(110,88,71)"/>
<polygon points="519,708 546,711 530,688" style="fill:rgb(155,118,78)"/>
<polygon points="571,700 591,721 586,686" style="fill:rgb(62,50,39)"/>
<polygon points="341,350 343,373 359,359" style="fill:rgb(206,183,145)"/>
<polygon points="359,335 341,350 364,354" style="fill:rgb(59,53,45)"/>
<polygon points="624,269 587,266 599,279" style="fill:rgb(101,76,59)"/>
<polygon points="599,279 587,266 582,288" style="fill:rgb(61,50,43)"/>
<polygon points="732,382 686,439 708,435" style="fill:rgb(129,98,70)"/>
<polygon points="639,309 624,269 599,279" style="fill:rgb(91,67,52)"/>
<polygon points="347,619 364,648 360,608" style="fill:rgb(38,36,35)"/>
<polygon points="383,322 355,332 359,335" style="fill:rgb(138,100,68)"/>
<polygon points="359,335 355,332 341,350" style="fill:rgb(133,104,80)"/>
<polygon points="300,429 341,480 323,415" style="fill:rgb(96,61,42)"/>
<polygon points="300,429 296,500 341,480" style="fill:rgb(86,57,40)"/>
<polygon points="327,557 293,566 347,619" style="fill:rgb(91,78,66)"/>
<polygon points="292,414 300,429 323,415" style="fill:rgb(121,76,47)"/>
<polygon points="722,439 732,382 708,435" style="fill:rgb(126,94,68)"/>
<polygon points="647,242 624,269 690,255" style="fill:rgb(76,57,48)"/>
<polygon points="341,655 354,652 347,619" style="fill:rgb(108,89,75)"/>
<polygon points="347,619 354,652 364,648" style="fill:rgb(53,47,41)"/>
<polygon points="364,648 354,652 389,658" style="fill:rgb(63,48,37)"/>
<polygon points="519,708 548,723 546,711" style="fill:rgb(143,106,72)"/>
<polygon points="546,711 548,723 571,700" style="fill:rgb(137,100,67)"/>
<polygon points="531,761 548,723 519,708" style="fill:rgb(127,95,69)"/>
<polygon points="571,219 567,249 606,214" style="fill:rgb(124,81,54)"/>
<polygon points="587,266 567,249 582,288" style="fill:rgb(96,67,49)"/>
<polygon points="461,719 467,720 461,665" style="fill:rgb(67,57,48)"/>
<polygon points="229,459 272,512 296,500" style="fill:rgb(39,34,33)"/>
<polygon points="548,723 591,721 571,700" style="fill:rgb(115,87,62)"/>
<polygon points="605,692 656,724 636,649" style="fill:rgb(122,92,66)"/>
<polygon points="272,512 284,531 296,500" style="fill:rgb(59,55,49)"/>
<polygon points="296,500 284,531 328,537" style="fill:rgb(87,67,52)"/>
<polygon points="284,531 293,566 328,537" style="fill:rgb(93,79,65)"/>
<polygon points="328,653 341,655 347,619" style="fill:rgb(110,90,72)"/>
<polygon points="261,421 296,500 300,429" style="fill:rgb(106,66,44)"/>
<polygon points="284,531 277,571 293,566" style="fill:rgb(80,70,60)"/>
<polygon points="464,766 492,739 467,720" style="fill:rgb(144,117,88)"/>
<polygon points="467,720 492,739 496,698" style="fill:rgb(140,111,78)"/>
<polygon points="591,755 609,744 591,721" style="fill:rgb(81,63,49)"/>
<polygon points="464,766 467,720 461,719" style="fill:rgb(84,64,46)"/>
<polygon points="722,439 777,436 732,382" style="fill:rgb(142,108,77)"/>
<polygon points="690,255 639,309 691,329" style="fill:rgb(105,85,67)"/>
<polygon points="290,635 328,653 347,619" style="fill:rgb(99,84,70)"/>
<polygon points="571,219 556,226 567,249" style="fill:rgb(164,108,68)"/>
<polygon points="567,249 556,226 528,292" style="fill:rgb(163,106,63)"/>
<polygon points="262,531 277,571 284,531" style="fill:rgb(82,70,59)"/>
<polygon points="293,566 290,635 347,619" style="fill:rgb(65,61,54)"/>
<polygon points="292,414 261,421 300,429" style="fill:rgb(137,83,48)"/>
<polygon points="243,516 262,531 272,512" style="fill:rgb(48,41,36)"/>
<polygon points="272,512 262,531 284,531" style="fill:rgb(29,29,30)"/>
<polygon points="606,214 567,249 587,266" style="fill:rgb(85,60,46)"/>
<polygon points="612,216 587,266 624,269" style="fill:rgb(68,53,44)"/>
<polygon points="271,410 261,421 292,414" style="fill:rgb(172,113,65)"/>
<polygon points="591,755 591,721 548,723" style="fill:rgb(107,81,60)"/>
<polygon points="591,721 609,744 605,692" style="fill:rgb(117,87,60)"/>
<polygon points="653,728 656,724 605,692" style="fill:rgb(130,94,62)"/>
<polygon points="735,301 691,329 766,327" style="fill:rgb(135,111,87)"/>
<polygon points="690,255 624,269 639,309" style="fill:rgb(54,43,38)"/>
<polygon points="777,436 774,375 732,382" style="fill:rgb(123,95,71)"/>
<polygon points="643,736 653,728 605,692" style="fill:rgb(127,94,65)"/>
<polygon points="491,806 531,761 492,739" style="fill:rgb(90,72,56)"/>
<polygon points="492,739 531,761 519,708" style="fill:rgb(89,70,53)"/>
<polygon points="777,436 807,417 774,375" style="fill:rgb(124,95,72)"/>
<polygon points="609,744 643,736 605,692" style="fill:rgb(108,79,55)"/>
<polygon points="735,301 715,284 691,329" style="fill:rgb(112,94,77)"/>
<polygon points="564,768 591,755 548,723" style="fill:rgb(87,70,55)"/>
<polygon points="609,744 620,771 643,736" style="fill:rgb(134,99,69)"/>
<polygon points="283,634 290,635 277,571" style="fill:rgb(139,110,82)"/>
<polygon points="277,571 290,635 293,566" style="fill:rgb(95,78,63)"/>
<polygon points="636,649 656,724 723,693" style="fill:rgb(108,84,63)"/>
<polygon points="729,675 636,649 723,693" style="fill:rgb(125,96,68)"/>
<polygon points="729,675 661,622 636,649" style="fill:rgb(142,112,79)"/>
<polygon points="766,327 691,329 732,382" style="fill:rgb(126,99,76)"/>
<polygon points="696,223 635,228 647,242" style="fill:rgb(74,58,49)"/>
<polygon points="647,242 635,228 624,269" style="fill:rgb(42,37,37)"/>
<polygon points="620,771 656,736 643,736" style="fill:rgb(47,36,26)"/>
<polygon points="643,736 656,736 653,728" style="fill:rgb(131,102,72)"/>
<polygon points="229,459 243,516 272,512" style="fill:rgb(61,47,40)"/>
<polygon points="262,531 227,554 277,571" style="fill:rgb(115,91,70)"/>
<polygon points="635,228 612,216 624,269" style="fill:rgb(85,62,50)"/>
<polygon points="612,216 606,214 587,266" style="fill:rgb(54,47,41)"/>
<polygon points="204,634 283,634 277,571" style="fill:rgb(127,100,75)"/>
<polygon points="706,262 690,255 715,284" style="fill:rgb(142,121,98)"/>
<polygon points="715,284 690,255 691,329" style="fill:rgb(104,88,73)"/>
<polygon points="635,228 696,223 612,216" style="fill:rgb(107,77,59)"/>
<polygon points="531,761 564,768 548,723" style="fill:rgb(107,79,58)"/>
<polygon points="823,444 805,431 798,443" style="fill:rgb(159,123,96)"/>
<polygon points="798,443 805,431 777,436" style="fill:rgb(120,89,66)"/>
<polygon points="774,375 766,327 732,382" style="fill:rgb(131,105,81)"/>
<polygon points="723,693 742,671 729,675" style="fill:rgb(131,96,70)"/>
<polygon points="679,733 723,693 656,724" style="fill:rgb(125,95,68)"/>
<polygon points="717,266 706,262 715,284" style="fill:rgb(224,202,177)"/>
<polygon points="690,255 696,223 647,242" style="fill:rgb(65,55,49)"/>
<polygon points="794,352 766,327 774,375" style="fill:rgb(124,99,78)"/>
<polygon points="736,277 717,266 715,284" style="fill:rgb(223,201,171)"/>
<polygon points="464,766 464,770 492,739" style="fill:rgb(136,107,79)"/>
<polygon points="805,431 807,417 777,436" style="fill:rgb(139,105,77)"/>
<polygon points="606,774 609,744 591,755" style="fill:rgb(87,69,52)"/>
<polygon points="736,277 715,284 735,301" style="fill:rgb(194,174,148)"/>
<polygon points="706,262 712,252 690,255" style="fill:rgb(135,109,89)"/>
<polygon points="679,733 725,700 723,693" style="fill:rgb(117,89,62)"/>
<polygon points="261,421 229,459 296,500" style="fill:rgb(90,63,46)"/>
<polygon points="746,286 736,277 735,301" style="fill:rgb(167,141,112)"/>
<polygon points="494,822 491,806 485,825" style="fill:rgb(139,103,75)"/>
<polygon points="814,396 797,365 774,375" style="fill:rgb(95,76,60)"/>
<polygon points="766,327 746,286 735,301" style="fill:rgb(173,145,117)"/>
<polygon points="758,282 746,286 766,327" style="fill:rgb(183,155,127)"/>
<polygon points="722,258 717,266 738,267" style="fill:rgb(121,92,70)"/>
<polygon points="722,258 712,252 717,266" style="fill:rgb(141,111,88)"/>
<polygon points="717,266 712,252 706,262" style="fill:rgb(129,106,83)"/>
<polygon points="591,786 606,774 591,755" style="fill:rgb(139,103,71)"/>
<polygon points="576,781 591,755 564,768" style="fill:rgb(94,75,59)"/>
<polygon points="558,789 564,768 531,761" style="fill:rgb(117,86,60)"/>
<polygon points="797,365 794,352 774,375" style="fill:rgb(137,109,86)"/>
<polygon points="591,786 620,771 606,774" style="fill:rgb(40,34,29)"/>
<polygon points="606,774 620,771 609,744" style="fill:rgb(112,88,66)"/>
<polygon points="738,267 717,266 736,277" style="fill:rgb(235,208,179)"/>
<polygon points="805,431 823,444 807,417" style="fill:rgb(92,73,58)"/>
<polygon points="807,417 814,396 774,375" style="fill:rgb(166,133,105)"/>
<polygon points="797,365 827,366 794,352" style="fill:rgb(164,137,112)"/>
<polygon points="821,390 814,396 847,391" style="fill:rgb(63,50,45)"/>
<polygon points="788,330 788,335 835,352" style="fill:rgb(146,121,102)"/>
<polygon points="794,352 788,335 766,327" style="fill:rgb(104,85,68)"/>
<polygon points="220,522 227,554 243,516" style="fill:rgb(112,88,67)"/>
<polygon points="243,516 227,554 262,531" style="fill:rgb(104,83,64)"/>
<polygon points="535,798 558,789 531,761" style="fill:rgb(137,105,75)"/>
<polygon points="576,781 591,786 591,755" style="fill:rgb(126,92,64)"/>
<polygon points="758,282 738,267 746,286" style="fill:rgb(234,205,171)"/>
<polygon points="746,286 738,267 736,277" style="fill:rgb(227,198,164)"/>
<polygon points="719,227 703,227 712,252" style="fill:rgb(155,131,109)"/>
<polygon points="835,352 788,335 794,352" style="fill:rgb(96,81,70)"/>
<polygon points="788,335 788,330 766,327" style="fill:rgb(127,104,84)"/>
<polygon points="229,459 220,522 243,516" style="fill:rgb(101,75,56)"/>
<polygon points="781,288 758,282 766,327" style="fill:rgb(179,151,122)"/>
<polygon points="765,263 739,261 738,267" style="fill:rgb(216,182,145)"/>
<polygon points="738,267 739,261 722,258" style="fill:rgb(178,145,116)"/>
<polygon points="703,227 696,223 690,255" style="fill:rgb(96,78,66)"/>
<polygon points="789,295 861,303 813,275" style="fill:rgb(83,75,66)"/>
<polygon points="788,330 785,315 766,327" style="fill:rgb(158,131,105)"/>
<polygon points="846,435 814,396 807,417" style="fill:rgb(149,119,97)"/>
<polygon points="814,396 821,390 797,365" style="fill:rgb(78,65,55)"/>
<polygon points="220,522 219,550 227,554" style="fill:rgb(145,121,95)"/>
<polygon points="204,634 262,660 283,634" style="fill:rgb(138,107,78)"/>
<polygon points="528,807 535,798 515,807" style="fill:rgb(133,98,70)"/>
<polygon points="703,227 690,255 712,252" style="fill:rgb(136,113,93)"/>
<polygon points="727,241 712,252 722,258" style="fill:rgb(202,173,146)"/>
<polygon points="199,580 277,571 227,554" style="fill:rgb(110,87,68)"/>
<polygon points="823,444 838,442 807,417" style="fill:rgb(102,79,66)"/>
<polygon points="724,230 727,241 743,240" style="fill:rgb(222,195,164)"/>
<polygon points="739,261 727,241 722,258" style="fill:rgb(226,199,171)"/>
<polygon points="719,227 727,241 724,230" style="fill:rgb(204,185,160)"/>
<polygon points="271,410 219,394 261,421" style="fill:rgb(162,104,59)"/>
<polygon points="261,421 210,408 229,459" style="fill:rgb(113,73,49)"/>
<polygon points="229,459 149,503 220,522" style="fill:rgb(87,67,53)"/>
<polygon points="172,579 199,580 219,550" style="fill:rgb(150,124,98)"/>
<polygon points="515,807 535,798 531,761" style="fill:rgb(110,84,63)"/>
<polygon points="515,807 531,761 491,806" style="fill:rgb(86,69,56)"/>
<polygon points="491,806 492,739 464,770" style="fill:rgb(130,101,73)"/>
<polygon points="491,806 464,770 474,821" style="fill:rgb(107,83,62)"/>
<polygon points="474,821 464,770 454,824" style="fill:rgb(102,76,58)"/>
<polygon points="254,678 261,672 262,660" style="fill:rgb(84,65,48)"/>
<polygon points="765,263 738,267 758,282" style="fill:rgb(221,193,161)"/>
<polygon points="727,241 719,227 712,252" style="fill:rgb(160,133,109)"/>
<polygon points="703,227 719,227 696,223" style="fill:rgb(89,77,66)"/>
<polygon points="785,315 781,288 766,327" style="fill:rgb(143,117,94)"/>
<polygon points="789,295 781,288 785,315" style="fill:rgb(165,138,111)"/>
<polygon points="219,394 210,408 261,421" style="fill:rgb(161,102,60)"/>
<polygon points="743,240 727,241 739,261" style="fill:rgb(242,214,186)"/>
<polygon points="847,391 827,366 821,390" style="fill:rgb(104,89,77)"/>
<polygon points="821,390 827,366 797,365" style="fill:rgb(157,130,107)"/>
<polygon points="838,442 846,435 807,417" style="fill:rgb(136,108,88)"/>
<polygon points="835,352 785,315 788,330" style="fill:rgb(185,155,126)"/>
<polygon points="781,288 765,263 758,282" style="fill:rgb(184,158,129)"/>
<polygon points="784,260 765,263 781,288" style="fill:rgb(188,159,130)"/>
<polygon points="765,263 743,240 739,261" style="fill:rgb(221,190,157)"/>
<polygon points="724,230 771,231 719,227" style="fill:rgb(132,120,108)"/>
<polygon points="221,668 254,678 262,660" style="fill:rgb(148,113,82)"/>
<polygon points="219,394 204,397 210,408" style="fill:rgb(171,110,63)"/>
<polygon points="210,408 195,434 229,459" style="fill:rgb(90,61,47)"/>
<polygon points="187,407 195,434 210,408" style="fill:rgb(151,97,59)"/>
<polygon points="846,435 847,391 814,396" style="fill:rgb(104,84,69)"/>
<polygon points="873,423 847,391 846,435" style="fill:rgb(111,91,78)"/>
<polygon points="827,366 835,352 794,352" style="fill:rgb(54,48,43)"/>
<polygon points="847,391 835,352 827,366" style="fill:rgb(92,79,68)"/>
<polygon points="771,231 758,237 785,244" style="fill:rgb(60,63,60)"/>
<polygon points="491,806 494,822 515,807" style="fill:rgb(107,84,65)"/>
<polygon points="515,807 494,822 528,807" style="fill:rgb(88,71,56)"/>
<polygon points="172,579 219,550 149,503" style="fill:rgb(112,93,78)"/>
<polygon points="219,550 199,580 227,554" style="fill:rgb(133,106,81)"/>
<polygon points="784,260 781,288 813,275" style="fill:rgb(170,145,119)"/>
<polygon points="765,263 758,237 743,240" style="fill:rgb(176,149,121)"/>
<polygon points="743,240 758,237 724,230" style="fill:rgb(120,102,84)"/>
<polygon points="474,821 485,825 491,806" style="fill:rgb(71,56,43)"/>
<polygon points="813,275 781,288 789,295" style="fill:rgb(114,98,81)"/>
<polygon points="204,397 187,407 210,408" style="fill:rgb(179,120,73)"/>
<polygon points="195,434 149,503 229,459" style="fill:rgb(98,72,56)"/>
<polygon points="187,407 174,427 195,434" style="fill:rgb(113,80,57)"/>
<polygon points="199,580 204,634 277,571" style="fill:rgb(116,93,73)"/>
<polygon points="858,457 873,423 846,435" style="fill:rgb(118,93,79)"/>
<polygon points="847,391 912,409 835,352" style="fill:rgb(106,88,75)"/>
<polygon points="204,634 221,668 262,660" style="fill:rgb(134,104,79)"/>
<polygon points="785,244 765,263 784,260" style="fill:rgb(101,89,77)"/>
<polygon points="785,244 758,237 765,263" style="fill:rgb(125,111,95)"/>
<polygon points="758,237 771,231 724,230" style="fill:rgb(68,64,58)"/>
<polygon points="785,244 784,260 804,256" style="fill:rgb(99,88,79)"/>
<polygon points="789,295 785,315 861,303" style="fill:rgb(160,136,111)"/>
<polygon points="199,580 186,629 204,634" style="fill:rgb(142,115,92)"/>
<polygon points="825,273 813,275 861,303" style="fill:rgb(113,100,90)"/>
<polygon points="813,275 804,256 784,260" style="fill:rgb(106,94,81)"/>
<polygon points="785,244 882,263 771,231" style="fill:rgb(75,71,64)"/>
<polygon points="149,503 219,550 220,522" style="fill:rgb(137,113,91)"/>
<polygon points="204,634 186,629 221,668" style="fill:rgb(138,111,85)"/>
<polygon points="169,623 186,629 199,580" style="fill:rgb(133,107,86)"/>
<polygon points="861,303 785,315 835,352" style="fill:rgb(110,95,81)"/>
<polygon points="813,275 825,273 804,256" style="fill:rgb(101,90,80)"/>
<polygon points="223,705 230,707 221,668" style="fill:rgb(71,57,49)"/>
<polygon points="221,668 230,707 254,678" style="fill:rgb(142,109,81)"/>
<polygon points="905,440 888,414 873,423" style="fill:rgb(134,113,98)"/>
<polygon points="873,423 888,414 847,391" style="fill:rgb(138,114,96)"/>
<polygon points="901,452 873,423 858,457" style="fill:rgb(102,84,73)"/>
<polygon points="210,712 223,705 221,668" style="fill:rgb(124,94,74)"/>
<polygon points="141,471 149,503 195,434" style="fill:rgb(127,91,68)"/>
<polygon points="172,579 169,623 199,580" style="fill:rgb(137,111,89)"/>
<polygon points="898,461 901,452 858,457" style="fill:rgb(104,81,69)"/>
<polygon points="155,621 169,623 172,579" style="fill:rgb(118,96,77)"/>
<polygon points="186,629 210,712 221,668" style="fill:rgb(143,110,83)"/>
<polygon points="953,353 861,303 835,352" style="fill:rgb(124,107,91)"/>
<polygon points="174,427 141,471 195,434" style="fill:rgb(129,88,61)"/>
<polygon points="149,503 148,568 172,579" style="fill:rgb(127,107,88)"/>
<polygon points="120,510 140,512 149,503" style="fill:rgb(168,135,108)"/>
<polygon points="140,512 148,568 149,503" style="fill:rgb(149,122,97)"/>
<polygon points="912,409 847,391 888,414" style="fill:rgb(111,92,78)"/>
<polygon points="861,303 855,281 825,273" style="fill:rgb(127,111,96)"/>
<polygon points="825,273 861,267 804,256" style="fill:rgb(56,56,53)"/>
<polygon points="804,256 882,263 785,244" style="fill:rgb(172,150,127)"/>
<polygon points="210,712 218,721 223,705" style="fill:rgb(128,98,81)"/>
<polygon points="223,705 218,721 230,707" style="fill:rgb(70,56,48)"/>
<polygon points="178,737 210,712 186,629" style="fill:rgb(104,83,68)"/>
<polygon points="864,301 855,281 861,303" style="fill:rgb(111,100,92)"/>
<polygon points="148,621 155,621 136,590" style="fill:rgb(159,134,108)"/>
<polygon points="145,738 178,737 186,629" style="fill:rgb(142,117,95)"/>
<polygon points="155,621 172,579 136,590" style="fill:rgb(172,146,119)"/>
<polygon points="905,440 912,409 888,414" style="fill:rgb(129,105,88)"/>
<polygon points="136,590 172,579 148,568" style="fill:rgb(189,158,128)"/>
<polygon points="145,738 186,629 169,623" style="fill:rgb(109,89,72)"/>
<polygon points="115,529 129,551 140,512" style="fill:rgb(206,176,145)"/>
<polygon points="140,512 129,551 148,568" style="fill:rgb(179,148,120)"/>
<polygon points="878,289 855,281 864,301" style="fill:rgb(167,145,121)"/>
<polygon points="873,272 861,267 855,281" style="fill:rgb(52,49,47)"/>
<polygon points="855,281 861,267 825,273" style="fill:rgb(74,69,63)"/>
<polygon points="117,572 136,590 148,568" style="fill:rgb(226,198,166)"/>
<polygon points="884,286 922,298 913,289" style="fill:rgb(94,82,70)"/>
<polygon points="141,471 120,510 149,503" style="fill:rgb(126,94,74)"/>
<polygon points="115,617 130,611 136,590" style="fill:rgb(133,112,91)"/>
<polygon points="943,440 923,404 912,409" style="fill:rgb(44,41,41)"/>
<polygon points="912,409 923,404 835,352" style="fill:rgb(63,56,51)"/>
<polygon points="943,440 912,409 905,440" style="fill:rgb(126,103,87)"/>
<polygon points="884,286 873,272 878,289" style="fill:rgb(76,69,64)"/>
<polygon points="878,289 873,272 855,281" style="fill:rgb(81,76,66)"/>
<polygon points="120,510 116,519 140,512" style="fill:rgb(207,171,138)"/>
<polygon points="884,286 878,289 922,298" style="fill:rgb(127,112,93)"/>
<polygon points="116,519 115,529 140,512" style="fill:rgb(222,195,164)"/>
<polygon points="117,572 148,568 129,551" style="fill:rgb(217,188,155)"/>
<polygon points="136,590 130,611 148,621" style="fill:rgb(160,133,106)"/>
<polygon points="178,737 218,721 210,712" style="fill:rgb(128,99,81)"/>
<polygon points="113,553 117,572 129,551" style="fill:rgb(238,209,178)"/>
<polygon points="115,529 113,553 129,551" style="fill:rgb(240,212,183)"/>
<polygon points="169,623 137,736 145,738" style="fill:rgb(47,41,38)"/>
<polygon points="178,737 211,763 218,721" style="fill:rgb(119,93,75)"/>
<polygon points="913,289 890,279 884,286" style="fill:rgb(51,47,46)"/>
<polygon points="115,617 129,624 130,611" style="fill:rgb(66,57,49)"/>
<polygon points="130,611 129,624 148,621" style="fill:rgb(164,136,109)"/>
<polygon points="940,389 835,352 923,404" style="fill:rgb(137,116,100)"/>
<polygon points="884,286 890,279 873,272" style="fill:rgb(41,40,40)"/>
<polygon points="873,272 882,263 861,267" style="fill:rgb(146,128,110)"/>
<polygon points="942,449 943,440 905,440" style="fill:rgb(128,106,92)"/>
<polygon points="888,270 882,263 873,272" style="fill:rgb(130,117,102)"/>
<polygon points="861,267 882,263 804,256" style="fill:rgb(157,135,115)"/>
<polygon points="942,449 947,442 943,440" style="fill:rgb(134,107,84)"/>
<polygon points="944,400 940,389 923,404" style="fill:rgb(153,131,111)"/>
<polygon points="948,434 923,404 943,440" style="fill:rgb(34,33,33)"/>
<polygon points="947,442 948,434 943,440" style="fill:rgb(75,67,65)"/>
<polygon points="951,412 944,400 923,404" style="fill:rgb(101,90,83)"/>
<polygon points="169,623 155,621 137,736" style="fill:rgb(142,118,99)"/>
<polygon points="113,553 94,576 117,572" style="fill:rgb(177,154,130)"/>
<polygon points="117,572 115,617 136,590" style="fill:rgb(179,151,122)"/>
<polygon points="115,529 100,542 113,553" style="fill:rgb(143,126,107)"/>
<polygon points="116,519 100,542 115,529" style="fill:rgb(201,189,165)"/>
<polygon points="108,617 115,617 117,572" style="fill:rgb(169,149,124)"/>
<polygon points="118,727 155,621 148,621" style="fill:rgb(101,87,72)"/>
<polygon points="947,388 951,412 978,403" style="fill:rgb(129,110,95)"/>
<polygon points="944,400 947,388 940,389" style="fill:rgb(143,117,98)"/>
<polygon points="922,298 878,289 864,301" style="fill:rgb(165,141,119)"/>
<polygon points="951,412 947,388 944,400" style="fill:rgb(129,110,92)"/>
<polygon points="947,388 947,379 940,389" style="fill:rgb(112,98,87)"/>
<polygon points="94,576 108,617 117,572" style="fill:rgb(122,105,90)"/>
<polygon points="115,617 110,627 129,624" style="fill:rgb(36,34,31)"/>
<polygon points="110,627 112,633 129,624" style="fill:rgb(119,106,89)"/>
<polygon points="936,310 922,298 864,301" style="fill:rgb(124,108,96)"/>
<polygon points="88,554 94,576 113,553" style="fill:rgb(95,90,81)"/>
<polygon points="178,737 199,784 211,763" style="fill:rgb(99,79,65)"/>
<polygon points="100,542 88,554 113,553" style="fill:rgb(109,101,92)"/>
<polygon points="110,627 106,638 112,633" style="fill:rgb(102,97,85)"/>
<polygon points="137,736 155,621 118,727" style="fill:rgb(137,117,98)"/>
<polygon points="95,646 108,617 80,599" style="fill:rgb(111,101,91)"/>
<polygon points="947,379 953,353 940,389" style="fill:rgb(41,38,34)"/>
<polygon points="953,353 835,352 940,389" style="fill:rgb(96,83,72)"/>
<polygon points="922,298 963,308 913,289" style="fill:rgb(80,71,59)"/>
<polygon points="953,359 953,353 947,379" style="fill:rgb(81,72,63)"/>
<polygon points="953,353 952,341 861,303" style="fill:rgb(127,109,94)"/>
<polygon points="953,359 960,364 953,353" style="fill:rgb(111,99,90)"/>
<polygon points="953,353 977,354 952,341" style="fill:rgb(149,131,112)"/>
<polygon points="979,395 947,379 947,388" style="fill:rgb(45,44,42)"/>
<polygon points="936,310 963,308 922,298" style="fill:rgb(148,129,109)"/>
<polygon points="104,714 108,719 118,727" style="fill:rgb(73,67,60)"/>
<polygon points="80,599 108,617 94,576" style="fill:rgb(115,103,90)"/>
<polygon points="148,621 129,624 93,692" style="fill:rgb(150,130,109)"/>
<polygon points="145,738 147,746 178,737" style="fill:rgb(130,108,90)"/>
<polygon points="137,736 147,746 145,738" style="fill:rgb(13,14,14)"/>
<polygon points="88,554 80,599 94,576" style="fill:rgb(93,88,80)"/>
<polygon points="960,364 977,354 953,353" style="fill:rgb(138,122,107)"/>
<polygon points="129,624 112,633 93,692" style="fill:rgb(145,124,101)"/>
<polygon points="70,645 94,653 95,646" style="fill:rgb(101,93,86)"/>
<polygon points="157,776 178,737 147,746" style="fill:rgb(140,114,93)"/>
<polygon points="157,776 174,788 178,737" style="fill:rgb(95,80,67)"/>
<polygon points="978,403 979,395 947,388" style="fill:rgb(74,63,60)"/>
<polygon points="148,768 157,776 147,746" style="fill:rgb(124,104,86)"/>
<polygon points="138,752 147,746 137,736" style="fill:rgb(16,16,15)"/>
<polygon points="116,737 138,752 137,736" style="fill:rgb(122,102,87)"/>
<polygon points="138,752 148,768 147,746" style="fill:rgb(22,22,21)"/>
<polygon points="982,362 977,354 960,364" style="fill:rgb(118,102,90)"/>
<polygon points="91,682 112,633 106,638" style="fill:rgb(76,73,65)"/>
<polygon points="138,752 146,774 148,768" style="fill:rgb(28,29,28)"/>
<polygon points="977,354 985,349 952,341" style="fill:rgb(89,79,72)"/>
<polygon points="146,774 157,776 148,768" style="fill:rgb(95,81,66)"/>
<polygon points="146,774 165,795 157,776" style="fill:rgb(49,43,38)"/>
<polygon points="118,727 116,737 137,736" style="fill:rgb(143,120,100)"/>
<polygon points="104,714 118,727 148,621" style="fill:rgb(54,50,46)"/>
<polygon points="91,682 93,692 112,633" style="fill:rgb(126,113,98)"/>
<polygon points="93,692 104,714 148,621" style="fill:rgb(122,107,93)"/>
<polygon points="996,362 985,349 982,362" style="fill:rgb(72,63,57)"/>
<polygon points="982,362 985,349 977,354" style="fill:rgb(116,97,87)"/>
<polygon points="88,554 60,611 80,599" style="fill:rgb(102,94,87)"/>
<polygon points="80,599 70,645 95,646" style="fill:rgb(95,88,81)"/>
<polygon points="60,611 70,645 80,599" style="fill:rgb(91,84,76)"/>
<polygon points="83,709 104,714 93,692" style="fill:rgb(126,110,95)"/>
<polygon points="80,733 105,736 104,714" style="fill:rgb(112,98,87)"/>
<polygon points="104,714 105,736 108,719" style="fill:rgb(90,81,74)"/>
<polygon points="106,775 127,781 138,752" style="fill:rgb(100,87,78)"/>
<polygon points="146,774 153,810 165,795" style="fill:rgb(87,73,63)"/>
<polygon points="59,671 94,653 70,645" style="fill:rgb(94,87,80)"/>
<polygon points="59,671 75,685 94,653" style="fill:rgb(92,85,78)"/>
<polygon points="106,775 138,752 116,737" style="fill:rgb(126,109,92)"/>
<polygon points="83,709 80,733 104,714" style="fill:rgb(109,96,84)"/>
<polygon points="43,662 51,664 70,645" style="fill:rgb(68,63,62)"/>
<polygon points="52,683 75,685 59,671" style="fill:rgb(71,67,64)"/>
<polygon points="80,733 88,769 105,736" style="fill:rgb(89,80,74)"/>
<polygon points="52,683 65,712 75,685" style="fill:rgb(77,72,70)"/>
<polygon points="60,611 43,662 70,645" style="fill:rgb(89,81,76)"/>
<polygon points="43,662 45,671 51,664" style="fill:rgb(84,76,74)"/>
<polygon points="66,774 88,769 80,733" style="fill:rgb(75,69,66)"/>
<polygon points="106,775 111,802 127,781" style="fill:rgb(89,78,71)"/>
<polygon points="99,801 111,802 106,775" style="fill:rgb(54,49,47)"/>
<polygon points="35,741 65,712 52,683" style="fill:rgb(58,56,56)"/>
<polygon points="66,774 71,784 88,769" style="fill:rgb(68,62,63)"/>
</svg>