<svg xmlns="http://www.w3.org/2000/svg" viewBox="-30 0 400 400" shape-rendering="crispEdges">
<polygon points="161,201 161,203 165,198" style="fill:rgb(121,116,108)"/>
<polygon points="161,203 171,199 165,198" style="fill:rgb(55,53,49)"/>
<polygon points="174,196 159,196 165,198" style="fill:rgb(192,184,174)"/>
<polygon points="165,198 159,196 161,201" style="fill:rgb(172,165,156)"/>
<polygon points="161,201 152,198 161,203" style="fill:rgb(56,54,51)"/>
<polygon points="171,199 174,196 165,198" style="fill:rgb(148,143,132)"/>
<polygon points="181,167 156,195 159,196" style="fill:rgb(226,218,207)"/>
<polygon points="159,196 152,198 161,201" style="fill:rgb(91,86,81)"/>
<polygon points="156,195 152,198 159,196" style="fill:rgb(190,183,175)"/>
<polygon points="156,195 150,197 152,198" style="fill:rgb(196,189,180)"/>
<polygon points="160,227 167,221 161,203" style="fill:rgb(19,21,20)"/>
<polygon points="187,201 180,191 174,196" style="fill:rgb(44,41,40)"/>
<polygon points="174,196 180,191 159,196" style="fill:rgb(201,194,184)"/>
<polygon points="166,226 167,221 160,227" style="fill:rgb(22,21,20)"/>
<polygon points="161,203 167,221 171,199" style="fill:rgb(21,22,22)"/>
<polygon points="171,199 187,201 174,196" style="fill:rgb(23,25,23)"/>
<polygon points="167,221 187,201 171,199" style="fill:rgb(20,21,21)"/>
<polygon points="160,227 161,203 152,198" style="fill:rgb(28,29,28)"/>
<polygon points="167,221 194,222 187,201" style="fill:rgb(24,23,21)"/>
<polygon points="201,201 189,199 187,201" style="fill:rgb(83,76,68)"/>
<polygon points="187,201 189,199 180,191" style="fill:rgb(159,153,145)"/>
<polygon points="129,202 160,227 152,198" style="fill:rgb(30,31,30)"/>
<polygon points="201,201 191,197 189,199" style="fill:rgb(126,117,105)"/>
<polygon points="189,199 191,197 180,191" style="fill:rgb(195,188,176)"/>
<polygon points="190,188 184,182 180,191" style="fill:rgb(218,209,200)"/>
<polygon points="180,191 184,182 159,196" style="fill:rgb(215,206,197)"/>
<polygon points="124,170 132,196 150,197" style="fill:rgb(220,213,207)"/>
<polygon points="152,243 160,230 160,227" style="fill:rgb(40,38,33)"/>
<polygon points="160,227 160,230 166,226" style="fill:rgb(45,42,38)"/>
<polygon points="191,197 190,188 180,191" style="fill:rgb(209,200,190)"/>
<polygon points="160,230 165,235 166,226" style="fill:rgb(102,88,72)"/>
<polygon points="166,226 194,222 167,221" style="fill:rgb(72,62,53)"/>
<polygon points="165,235 167,235 166,226" style="fill:rgb(117,99,80)"/>
<polygon points="124,170 150,197 128,162" style="fill:rgb(223,216,208)"/>
<polygon points="150,197 131,200 152,198" style="fill:rgb(159,154,146)"/>
<polygon points="132,196 131,200 150,197" style="fill:rgb(199,194,188)"/>
<polygon points="167,235 194,222 166,226" style="fill:rgb(142,120,89)"/>
<polygon points="191,197 203,197 190,188" style="fill:rgb(202,191,176)"/>
<polygon points="132,196 129,202 131,200" style="fill:rgb(194,189,185)"/>
<polygon points="131,200 129,202 152,198" style="fill:rgb(135,132,126)"/>
<polygon points="160,230 152,243 165,235" style="fill:rgb(52,45,37)"/>
<polygon points="194,222 201,201 187,201" style="fill:rgb(30,29,28)"/>
<polygon points="207,208 203,197 201,201" style="fill:rgb(36,37,35)"/>
<polygon points="201,201 203,197 191,197" style="fill:rgb(168,160,146)"/>
<polygon points="213,184 181,167 184,182" style="fill:rgb(229,219,207)"/>
<polygon points="213,184 184,182 190,188" style="fill:rgb(219,209,196)"/>
<polygon points="184,182 181,167 159,196" style="fill:rgb(225,217,206)"/>
<polygon points="194,222 207,208 201,201" style="fill:rgb(37,34,32)"/>
<polygon points="118,210 152,243 160,227" style="fill:rgb(19,20,19)"/>
<polygon points="165,235 157,247 167,235" style="fill:rgb(152,131,102)"/>
<polygon points="196,247 201,238 194,222" style="fill:rgb(166,146,116)"/>
<polygon points="194,222 208,209 207,208" style="fill:rgb(113,88,75)"/>
<polygon points="209,194 208,193 203,197" style="fill:rgb(152,148,133)"/>
<polygon points="213,184 180,161 181,167" style="fill:rgb(232,223,210)"/>
<polygon points="181,167 133,154 156,195" style="fill:rgb(226,218,207)"/>
<polygon points="209,194 203,197 207,208" style="fill:rgb(45,45,42)"/>
<polygon points="203,197 208,193 190,188" style="fill:rgb(204,193,178)"/>
<polygon points="216,195 209,194 207,208" style="fill:rgb(61,55,53)"/>
<polygon points="208,193 213,184 190,188" style="fill:rgb(213,201,184)"/>
<polygon points="152,243 157,247 165,235" style="fill:rgb(147,120,87)"/>
<polygon points="117,195 118,204 129,202" style="fill:rgb(201,197,193)"/>
<polygon points="129,202 118,210 160,227" style="fill:rgb(27,27,27)"/>
<polygon points="117,195 129,202 132,196" style="fill:rgb(208,204,199)"/>
<polygon points="118,204 118,207 129,202" style="fill:rgb(171,168,163)"/>
<polygon points="118,207 118,210 129,202" style="fill:rgb(81,78,74)"/>
<polygon points="122,171 117,195 132,196" style="fill:rgb(215,208,202)"/>
<polygon points="118,204 95,205 118,207" style="fill:rgb(151,148,144)"/>
<polygon points="118,207 95,206 118,210" style="fill:rgb(88,85,82)"/>
<polygon points="196,247 194,222 167,235" style="fill:rgb(160,140,110)"/>
<polygon points="194,222 215,220 208,209" style="fill:rgb(174,155,129)"/>
<polygon points="215,185 208,193 209,194" style="fill:rgb(180,179,160)"/>
<polygon points="215,185 213,184 208,193" style="fill:rgb(197,194,177)"/>
<polygon points="218,218 216,195 208,209" style="fill:rgb(174,157,135)"/>
<polygon points="208,209 216,195 207,208" style="fill:rgb(108,80,77)"/>
<polygon points="201,238 209,229 194,222" style="fill:rgb(166,147,117)"/>
<polygon points="124,168 124,170 128,162" style="fill:rgb(134,122,119)"/>
<polygon points="187,137 175,151 180,161" style="fill:rgb(244,240,234)"/>
<polygon points="133,154 128,162 156,195" style="fill:rgb(226,219,211)"/>
<polygon points="124,170 122,171 132,196" style="fill:rgb(217,210,203)"/>
<polygon points="216,195 215,185 209,194" style="fill:rgb(49,49,44)"/>
<polygon points="213,184 223,178 180,161" style="fill:rgb(232,224,210)"/>
<polygon points="128,162 150,197 156,195" style="fill:rgb(224,217,210)"/>
<polygon points="124,170 124,168 122,171" style="fill:rgb(198,190,184)"/>
<polygon points="209,229 215,220 194,222" style="fill:rgb(165,147,120)"/>
<polygon points="157,247 177,254 167,235" style="fill:rgb(161,142,114)"/>
<polygon points="133,154 181,167 180,161" style="fill:rgb(234,226,214)"/>
<polygon points="224,180 216,183 215,185" style="fill:rgb(57,52,45)"/>
<polygon points="215,185 216,183 213,184" style="fill:rgb(186,189,172)"/>
<polygon points="152,243 148,254 157,247" style="fill:rgb(158,132,94)"/>
<polygon points="157,247 160,257 177,254" style="fill:rgb(163,144,118)"/>
<polygon points="133,266 148,254 115,259" style="fill:rgb(159,133,94)"/>
<polygon points="185,254 196,247 167,235" style="fill:rgb(159,137,108)"/>
<polygon points="148,254 156,256 157,247" style="fill:rgb(162,142,113)"/>
<polygon points="156,256 160,257 157,247" style="fill:rgb(165,147,119)"/>
<polygon points="109,169 119,171 124,168" style="fill:rgb(44,43,43)"/>
<polygon points="124,168 119,171 122,171" style="fill:rgb(139,122,121)"/>
<polygon points="122,171 110,178 117,195" style="fill:rgb(224,218,212)"/>
<polygon points="215,220 218,218 208,209" style="fill:rgb(168,153,131)"/>
<polygon points="224,180 223,178 216,183" style="fill:rgb(106,98,87)"/>
<polygon points="181,256 185,254 177,254" style="fill:rgb(159,129,104)"/>
<polygon points="177,254 185,254 167,235" style="fill:rgb(159,139,110)"/>
<polygon points="185,254 194,250 196,247" style="fill:rgb(149,103,76)"/>
<polygon points="178,258 181,256 177,254" style="fill:rgb(132,108,86)"/>
<polygon points="185,254 191,294 194,250" style="fill:rgb(148,78,64)"/>
<polygon points="148,254 148,256 156,256" style="fill:rgb(90,82,69)"/>
<polygon points="156,256 160,259 160,257" style="fill:rgb(109,98,84)"/>
<polygon points="133,266 148,256 148,254" style="fill:rgb(86,73,53)"/>
<polygon points="160,257 160,259 177,254" style="fill:rgb(116,104,90)"/>
<polygon points="181,256 185,292 185,254" style="fill:rgb(185,129,109)"/>
<polygon points="175,151 133,154 180,161" style="fill:rgb(237,230,220)"/>
<polygon points="128,162 109,169 124,168" style="fill:rgb(40,38,39)"/>
<polygon points="133,154 129,156 128,162" style="fill:rgb(149,134,133)"/>
<polygon points="157,141 134,152 133,154" style="fill:rgb(138,135,132)"/>
<polygon points="133,154 134,152 129,156" style="fill:rgb(125,122,120)"/>
<polygon points="111,175 110,178 119,171" style="fill:rgb(111,97,94)"/>
<polygon points="119,171 110,178 122,171" style="fill:rgb(193,179,177)"/>
<polygon points="117,195 95,205 118,204" style="fill:rgb(184,181,177)"/>
<polygon points="110,178 107,186 117,195" style="fill:rgb(219,212,205)"/>
<polygon points="109,169 111,175 119,171" style="fill:rgb(49,46,47)"/>
<polygon points="104,184 104,186 107,186" style="fill:rgb(121,109,103)"/>
<polygon points="175,151 157,141 133,154" style="fill:rgb(241,236,229)"/>
<polygon points="224,180 215,185 216,195" style="fill:rgb(58,49,48)"/>
<polygon points="216,183 223,178 213,184" style="fill:rgb(153,150,131)"/>
<polygon points="104,184 107,186 110,178" style="fill:rgb(158,146,138)"/>
<polygon points="107,186 94,200 117,195" style="fill:rgb(214,207,200)"/>
<polygon points="233,195 224,180 216,195" style="fill:rgb(167,147,122)"/>
<polygon points="187,137 161,139 175,151" style="fill:rgb(247,244,239)"/>
<polygon points="175,151 161,139 157,141" style="fill:rgb(240,236,230)"/>
<polygon points="109,169 104,184 110,178" style="fill:rgb(57,54,53)"/>
<polygon points="129,156 109,169 128,162" style="fill:rgb(53,50,50)"/>
<polygon points="111,175 109,169 110,178" style="fill:rgb(51,49,50)"/>
<polygon points="224,180 227,174 223,178" style="fill:rgb(194,180,162)"/>
<polygon points="223,178 227,174 180,161" style="fill:rgb(238,231,219)"/>
<polygon points="242,172 227,174 224,180" style="fill:rgb(207,192,168)"/>
<polygon points="234,200 233,195 216,195" style="fill:rgb(163,144,116)"/>
<polygon points="227,174 187,137 180,161" style="fill:rgb(243,237,229)"/>
<polygon points="218,218 234,200 216,195" style="fill:rgb(167,149,126)"/>
<polygon points="94,200 95,205 117,195" style="fill:rgb(198,193,188)"/>
<polygon points="115,259 148,254 152,243" style="fill:rgb(151,121,83)"/>
<polygon points="94,200 107,186 104,186" style="fill:rgb(166,154,149)"/>
<polygon points="94,200 104,186 104,184" style="fill:rgb(77,70,67)"/>
<polygon points="95,205 95,206 118,207" style="fill:rgb(117,113,109)"/>
<polygon points="82,207 94,200 73,201" style="fill:rgb(18,20,21)"/>
<polygon points="95,205 92,206 95,206" style="fill:rgb(120,114,111)"/>
<polygon points="234,200 239,196 233,195" style="fill:rgb(165,144,114)"/>
<polygon points="233,195 242,172 224,180" style="fill:rgb(181,163,138)"/>
<polygon points="101,242 152,243 118,210" style="fill:rgb(17,18,17)"/>
<polygon points="94,200 92,206 95,205" style="fill:rgb(128,121,118)"/>
<polygon points="88,213 101,242 118,210" style="fill:rgb(16,19,17)"/>
<polygon points="110,267 135,269 133,266" style="fill:rgb(89,77,58)"/>
<polygon points="133,266 135,269 148,256" style="fill:rgb(12,10,7)"/>
<polygon points="88,213 118,210 95,206" style="fill:rgb(34,35,33)"/>
<polygon points="101,242 115,259 152,243" style="fill:rgb(25,23,21)"/>
<polygon points="82,207 88,213 92,206" style="fill:rgb(32,33,33)"/>
<polygon points="92,206 88,213 95,206" style="fill:rgb(56,53,50)"/>
<polygon points="196,122 191,127 199,122" style="fill:rgb(241,232,219)"/>
<polygon points="187,137 187,125 161,139" style="fill:rgb(244,241,237)"/>
<polygon points="191,127 187,125 187,137" style="fill:rgb(247,243,236)"/>
<polygon points="239,196 246,191 233,195" style="fill:rgb(152,132,110)"/>
<polygon points="199,122 191,127 187,137" style="fill:rgb(248,244,238)"/>
<polygon points="246,191 242,172 233,195" style="fill:rgb(170,147,116)"/>
<polygon points="94,200 82,207 92,206" style="fill:rgb(50,51,52)"/>
<polygon points="88,213 78,229 101,242" style="fill:rgb(14,17,16)"/>
<polygon points="73,201 94,200 104,184" style="fill:rgb(18,20,20)"/>
<polygon points="246,191 243,172 242,172" style="fill:rgb(183,158,128)"/>
<polygon points="199,122 187,137 239,143" style="fill:rgb(251,250,247)"/>
<polygon points="246,191 253,187 243,172" style="fill:rgb(197,179,156)"/>
<polygon points="99,266 110,267 115,259" style="fill:rgb(137,112,87)"/>
<polygon points="115,259 110,267 133,266" style="fill:rgb(156,132,95)"/>
<polygon points="99,266 115,259 101,242" style="fill:rgb(22,21,20)"/>
<polygon points="242,163 227,174 242,172" style="fill:rgb(211,196,174)"/>
<polygon points="191,127 196,122 187,125" style="fill:rgb(222,213,202)"/>
<polygon points="255,173 242,163 243,172" style="fill:rgb(206,186,164)"/>
<polygon points="243,172 242,163 242,172" style="fill:rgb(188,165,139)"/>
<polygon points="239,143 187,137 227,174" style="fill:rgb(249,246,242)"/>
<polygon points="82,207 78,229 88,213" style="fill:rgb(24,26,27)"/>
<polygon points="178,258 185,292 181,256" style="fill:rgb(148,93,70)"/>
<polygon points="185,301 180,292 181,305" style="fill:rgb(138,69,59)"/>
<polygon points="180,292 181,292 178,258" style="fill:rgb(98,52,47)"/>
<polygon points="84,273 99,266 101,242" style="fill:rgb(22,23,22)"/>
<polygon points="109,169 73,201 104,184" style="fill:rgb(22,23,26)"/>
<polygon points="82,207 65,225 78,229" style="fill:rgb(16,19,19)"/>
<polygon points="181,292 185,292 178,258" style="fill:rgb(138,73,58)"/>
<polygon points="185,301 184,293 181,292" style="fill:rgb(158,71,62)"/>
<polygon points="181,292 184,293 185,292" style="fill:rgb(163,78,67)"/>
<polygon points="253,187 255,173 243,172" style="fill:rgb(209,192,168)"/>
<polygon points="242,163 239,143 227,174" style="fill:rgb(241,235,223)"/>
<polygon points="260,180 255,173 253,187" style="fill:rgb(193,176,154)"/>
<polygon points="266,146 239,143 242,163" style="fill:rgb(230,218,200)"/>
<polygon points="188,298 191,294 185,292" style="fill:rgb(175,105,90)"/>
<polygon points="185,292 191,294 185,254" style="fill:rgb(168,91,76)"/>
<polygon points="99,278 101,274 85,275" style="fill:rgb(152,129,97)"/>
<polygon points="99,266 101,274 110,267" style="fill:rgb(153,129,94)"/>
<polygon points="185,301 188,298 184,293" style="fill:rgb(222,147,128)"/>
<polygon points="255,173 263,165 242,163" style="fill:rgb(221,207,185)"/>
<polygon points="185,301 181,292 180,292" style="fill:rgb(150,70,61)"/>
<polygon points="184,293 188,298 185,292" style="fill:rgb(221,144,125)"/>
<polygon points="239,143 214,115 199,122" style="fill:rgb(249,247,243)"/>
<polygon points="85,275 101,274 99,266" style="fill:rgb(150,127,94)"/>
<polygon points="101,274 99,278 110,267" style="fill:rgb(120,101,76)"/>
<polygon points="239,143 218,115 214,115" style="fill:rgb(246,243,238)"/>
<polygon points="73,201 65,225 82,207" style="fill:rgb(11,13,14)"/>
<polygon points="63,250 84,273 101,242" style="fill:rgb(16,17,16)"/>
<polygon points="260,180 265,174 255,173" style="fill:rgb(183,163,141)"/>
<polygon points="264,166 263,165 255,173" style="fill:rgb(191,174,147)"/>
<polygon points="265,174 264,166 255,173" style="fill:rgb(179,159,131)"/>
<polygon points="229,111 218,115 239,143" style="fill:rgb(248,246,241)"/>
<polygon points="181,305 185,321 185,301" style="fill:rgb(171,90,76)"/>
<polygon points="185,301 194,325 188,298" style="fill:rgb(228,175,152)"/>
<polygon points="63,250 101,242 78,229" style="fill:rgb(12,14,13)"/>
<polygon points="84,273 85,275 99,266" style="fill:rgb(61,52,45)"/>
<polygon points="265,174 269,168 264,166" style="fill:rgb(202,182,165)"/>
<polygon points="264,166 270,163 263,165" style="fill:rgb(178,153,128)"/>
<polygon points="85,275 89,283 99,278" style="fill:rgb(150,129,98)"/>
<polygon points="266,146 242,163 263,165" style="fill:rgb(229,216,197)"/>
<polygon points="273,159 270,163 269,168" style="fill:rgb(225,210,198)"/>
<polygon points="269,168 270,163 264,166" style="fill:rgb(202,181,161)"/>
<polygon points="65,225 63,250 78,229" style="fill:rgb(25,25,25)"/>
<polygon points="79,289 89,283 85,275" style="fill:rgb(153,132,101)"/>
<polygon points="79,289 89,287 89,283" style="fill:rgb(144,126,100)"/>
<polygon points="79,289 85,275 69,287" style="fill:rgb(147,130,108)"/>
<polygon points="89,283 89,287 99,278" style="fill:rgb(116,100,77)"/>
<polygon points="270,148 266,146 263,165" style="fill:rgb(200,188,164)"/>
<polygon points="270,163 270,148 263,165" style="fill:rgb(178,155,130)"/>
<polygon points="273,159 270,148 270,163" style="fill:rgb(212,195,179)"/>
<polygon points="266,146 264,130 239,143" style="fill:rgb(237,227,212)"/>
<polygon points="65,225 52,239 63,250" style="fill:rgb(24,25,24)"/>
<polygon points="69,287 85,275 68,286" style="fill:rgb(87,75,64)"/>
<polygon points="73,201 52,239 65,225" style="fill:rgb(3,4,4)"/>
<polygon points="188,298 194,325 191,294" style="fill:rgb(168,118,108)"/>
<polygon points="196,342 185,321 194,346" style="fill:rgb(202,142,122)"/>
<polygon points="183,320 185,321 181,305" style="fill:rgb(141,72,58)"/>
<polygon points="62,277 84,273 63,250" style="fill:rgb(13,15,13)"/>
<polygon points="273,144 264,130 266,146" style="fill:rgb(220,205,186)"/>
<polygon points="244,107 229,111 253,114" style="fill:rgb(233,226,219)"/>
<polygon points="270,148 273,144 266,146" style="fill:rgb(190,169,147)"/>
<polygon points="273,159 273,144 270,148" style="fill:rgb(201,183,162)"/>
<polygon points="253,114 229,111 239,143" style="fill:rgb(249,246,240)"/>
<polygon points="264,130 253,114 239,143" style="fill:rgb(246,241,232)"/>
<polygon points="196,342 193,325 185,321" style="fill:rgb(205,144,126)"/>
<polygon points="185,321 194,325 185,301" style="fill:rgb(215,146,127)"/>
<polygon points="193,325 194,325 185,321" style="fill:rgb(86,44,38)"/>
<polygon points="254,110 246,105 244,107" style="fill:rgb(212,202,192)"/>
<polygon points="31,268 62,277 63,250" style="fill:rgb(10,12,11)"/>
<polygon points="265,121 254,110 253,114" style="fill:rgb(246,241,232)"/>
<polygon points="253,114 254,110 244,107" style="fill:rgb(243,236,228)"/>
<polygon points="265,121 253,114 264,130" style="fill:rgb(245,239,229)"/>
<polygon points="68,286 85,275 84,273" style="fill:rgb(53,48,43)"/>
<polygon points="79,289 75,299 89,287" style="fill:rgb(149,133,109)"/>
<polygon points="62,277 68,286 84,273" style="fill:rgb(21,21,20)"/>
<polygon points="286,136 265,121 264,130" style="fill:rgb(235,223,206)"/>
<polygon points="273,159 281,142 273,144" style="fill:rgb(219,204,188)"/>
<polygon points="273,144 281,142 264,130" style="fill:rgb(218,201,179)"/>
<polygon points="251,93 250,102 258,97" style="fill:rgb(211,198,185)"/>
<polygon points="254,110 250,102 246,105" style="fill:rgb(219,205,195)"/>
<polygon points="73,301 69,287 58,299" style="fill:rgb(161,153,143)"/>
<polygon points="73,301 75,299 69,287" style="fill:rgb(162,153,141)"/>
<polygon points="69,287 75,299 79,289" style="fill:rgb(162,152,138)"/>
<polygon points="57,296 69,287 68,286" style="fill:rgb(73,66,58)"/>
<polygon points="75,299 76,307 89,287" style="fill:rgb(118,107,89)"/>
<polygon points="243,88 246,105 250,102" style="fill:rgb(158,145,138)"/>
<polygon points="250,102 254,110 258,97" style="fill:rgb(226,213,201)"/>
<polygon points="281,142 286,136 264,130" style="fill:rgb(229,215,197)"/>
<polygon points="73,301 76,307 75,299" style="fill:rgb(130,117,97)"/>
<polygon points="251,93 243,88 250,102" style="fill:rgb(187,172,162)"/>
<polygon points="258,97 254,110 265,121" style="fill:rgb(240,232,219)"/>
<polygon points="239,77 237,83 243,88" style="fill:rgb(142,134,126)"/>
<polygon points="274,93 258,97 265,121" style="fill:rgb(246,240,230)"/>
<polygon points="249,78 239,77 243,88" style="fill:rgb(181,167,158)"/>
<polygon points="68,313 71,313 76,307" style="fill:rgb(72,70,68)"/>
<polygon points="62,277 57,296 68,286" style="fill:rgb(23,22,21)"/>
<polygon points="52,297 57,296 62,277" style="fill:rgb(30,28,26)"/>
<polygon points="194,346 185,321 189,351" style="fill:rgb(165,86,71)"/>
<polygon points="193,325 196,342 194,325" style="fill:rgb(108,70,66)"/>
<polygon points="57,296 58,299 69,287" style="fill:rgb(112,102,88)"/>
<polygon points="249,78 243,88 251,93" style="fill:rgb(205,191,178)"/>
<polygon points="68,313 76,307 73,301" style="fill:rgb(123,113,100)"/>
<polygon points="189,351 185,321 183,320" style="fill:rgb(122,63,50)"/>
<polygon points="286,136 290,126 265,121" style="fill:rgb(242,234,222)"/>
<polygon points="258,97 249,78 251,93" style="fill:rgb(216,200,185)"/>
<polygon points="58,299 62,307 73,301" style="fill:rgb(166,161,154)"/>
<polygon points="62,307 68,313 73,301" style="fill:rgb(156,146,133)"/>
<polygon points="58,299 57,307 62,307" style="fill:rgb(133,125,117)"/>
<polygon points="57,296 52,297 58,299" style="fill:rgb(62,57,53)"/>
<polygon points="31,268 52,297 62,277" style="fill:rgb(10,12,11)"/>
<polygon points="67,314 68,313 62,311" style="fill:rgb(131,122,110)"/>
<polygon points="67,314 69,315 68,313" style="fill:rgb(49,47,44)"/>
<polygon points="68,313 69,315 71,313" style="fill:rgb(27,26,26)"/>
<polygon points="290,126 286,108 265,121" style="fill:rgb(247,241,231)"/>
<polygon points="62,311 68,313 62,307" style="fill:rgb(147,140,133)"/>
<polygon points="52,239 31,268 63,250" style="fill:rgb(17,18,19)"/>
<polygon points="259,70 249,78 258,97" style="fill:rgb(240,230,218)"/>
<polygon points="57,307 58,299 52,306" style="fill:rgb(142,130,121)"/>
<polygon points="52,306 58,299 52,297" style="fill:rgb(85,77,69)"/>
<polygon points="67,314 63,314 69,315" style="fill:rgb(97,90,82)"/>
<polygon points="189,381 179,393 184,390" style="fill:rgb(171,98,77)"/>
<polygon points="62,311 63,314 67,314" style="fill:rgb(77,72,68)"/>
<polygon points="249,78 241,71 239,77" style="fill:rgb(191,176,166)"/>
<polygon points="190,357 189,381 193,379" style="fill:rgb(193,110,85)"/>
<polygon points="189,351 190,353 194,346" style="fill:rgb(181,101,85)"/>
<polygon points="188,353 190,353 189,351" style="fill:rgb(192,120,91)"/>
<polygon points="249,78 247,64 241,71" style="fill:rgb(235,223,209)"/>
<polygon points="37,315 52,306 52,297" style="fill:rgb(61,55,52)"/>
<polygon points="286,108 274,93 265,121" style="fill:rgb(248,244,236)"/>
<polygon points="276,90 274,93 286,108" style="fill:rgb(228,224,213)"/>
<polygon points="37,315 52,308 52,306" style="fill:rgb(75,69,65)"/>
<polygon points="52,306 52,308 57,307" style="fill:rgb(101,95,87)"/>
<polygon points="52,308 55,312 57,307" style="fill:rgb(59,54,61)"/>
<polygon points="194,359 190,357 193,379" style="fill:rgb(186,103,80)"/>
<polygon points="194,359 193,379 200,374" style="fill:rgb(53,27,17)"/>
<polygon points="188,353 190,357 190,353" style="fill:rgb(192,116,98)"/>
<polygon points="190,353 194,359 194,346" style="fill:rgb(124,73,61)"/>
<polygon points="194,346 200,361 196,342" style="fill:rgb(165,115,95)"/>
<polygon points="274,93 259,70 258,97" style="fill:rgb(248,243,234)"/>
<polygon points="218,52 239,77 227,53" style="fill:rgb(163,154,148)"/>
<polygon points="218,52 237,83 239,77" style="fill:rgb(146,139,131)"/>
<polygon points="227,53 239,77 241,71" style="fill:rgb(190,177,169)"/>
<polygon points="190,357 194,359 190,353" style="fill:rgb(187,112,96)"/>
<polygon points="276,90 259,70 274,93" style="fill:rgb(209,205,193)"/>
<polygon points="259,70 247,64 249,78" style="fill:rgb(243,237,225)"/>
<polygon points="238,53 227,53 241,71" style="fill:rgb(224,212,199)"/>
<polygon points="231,44 224,50 227,53" style="fill:rgb(183,171,163)"/>
<polygon points="194,359 200,361 194,346" style="fill:rgb(169,106,88)"/>
<polygon points="238,53 241,71 247,64" style="fill:rgb(238,227,213)"/>
<polygon points="227,53 224,50 218,52" style="fill:rgb(153,146,142)"/>
<polygon points="299,105 298,105 307,117" style="fill:rgb(146,74,61)"/>
<polygon points="259,70 252,62 247,64" style="fill:rgb(210,200,176)"/>
<polygon points="298,105 301,103 279,85" style="fill:rgb(147,73,63)"/>
<polygon points="256,56 247,58 252,62" style="fill:rgb(135,107,85)"/>
<polygon points="252,62 247,58 247,64" style="fill:rgb(209,197,166)"/>
<polygon points="247,58 238,53 247,64" style="fill:rgb(228,218,195)"/>
<polygon points="307,117 301,103 299,105" style="fill:rgb(195,109,106)"/>
<polygon points="238,45 231,44 238,53" style="fill:rgb(202,189,171)"/>
<polygon points="309,117 301,103 307,117" style="fill:rgb(142,102,101)"/>
<polygon points="299,105 301,103 298,105" style="fill:rgb(197,98,101)"/>
<polygon points="279,85 282,80 262,68" style="fill:rgb(160,75,68)"/>
<polygon points="262,68 262,58 255,61" style="fill:rgb(138,61,55)"/>
<polygon points="301,103 282,80 279,85" style="fill:rgb(187,111,103)"/>
<polygon points="31,268 16,284 52,297" style="fill:rgb(13,15,14)"/>
<polygon points="52,308 38,317 55,312" style="fill:rgb(54,50,49)"/>
<polygon points="27,309 37,315 52,297" style="fill:rgb(30,28,27)"/>
<polygon points="194,359 200,374 200,361" style="fill:rgb(155,84,55)"/>
<polygon points="38,321 38,317 37,315" style="fill:rgb(27,24,25)"/>
<polygon points="37,315 38,317 52,308" style="fill:rgb(74,67,64)"/>
<polygon points="238,45 238,53 247,58" style="fill:rgb(167,146,119)"/>
<polygon points="238,53 231,44 227,53" style="fill:rgb(218,207,194)"/>
<polygon points="224,50 220,35 218,52" style="fill:rgb(148,144,142)"/>
<polygon points="256,56 252,62 255,61" style="fill:rgb(82,46,35)"/>
<polygon points="282,80 267,64 262,68" style="fill:rgb(171,82,79)"/>
<polygon points="262,58 256,56 255,61" style="fill:rgb(143,79,72)"/>
<polygon points="256,56 238,45 247,58" style="fill:rgb(155,127,101)"/>
<polygon points="267,64 262,58 262,68" style="fill:rgb(166,73,72)"/>
<polygon points="256,56 248,35 238,45" style="fill:rgb(188,171,151)"/>
<polygon points="269,54 262,58 267,64" style="fill:rgb(223,166,158)"/>
<polygon points="27,309 38,321 37,315" style="fill:rgb(55,48,46)"/>
<polygon points="38,317 38,321 55,312" style="fill:rgb(30,28,28)"/>
<polygon points="301,103 284,75 282,80" style="fill:rgb(198,154,145)"/>
<polygon points="282,80 284,75 267,64" style="fill:rgb(223,160,153)"/>
<polygon points="16,284 27,309 52,297" style="fill:rgb(12,14,13)"/>
<polygon points="190,357 188,353 189,381" style="fill:rgb(106,64,48)"/>
<polygon points="240,37 231,44 238,45" style="fill:rgb(206,192,180)"/>
<polygon points="231,44 220,35 224,50" style="fill:rgb(177,168,163)"/>
<polygon points="284,75 273,58 267,64" style="fill:rgb(217,158,153)"/>
<polygon points="262,58 262,50 256,56" style="fill:rgb(194,135,129)"/>
<polygon points="273,58 272,57 267,64" style="fill:rgb(211,157,152)"/>
<polygon points="269,54 262,50 262,58" style="fill:rgb(203,163,151)"/>
<polygon points="188,387 189,381 184,390" style="fill:rgb(203,123,103)"/>
<polygon points="272,57 269,54 267,64" style="fill:rgb(217,161,156)"/>
<polygon points="248,35 240,37 238,45" style="fill:rgb(215,204,191)"/>
<polygon points="225,26 240,37 243,30" style="fill:rgb(220,210,200)"/>
<polygon points="9,296 18,309 27,309" style="fill:rgb(41,37,38)"/>
<polygon points="27,309 18,309 38,321" style="fill:rgb(26,23,21)"/>
<polygon points="16,284 9,296 27,309" style="fill:rgb(22,22,23)"/>
<polygon points="196,384 200,374 193,379" style="fill:rgb(140,63,31)"/>
<polygon points="196,384 205,381 200,374" style="fill:rgb(167,70,27)"/>
<polygon points="200,374 205,381 200,361" style="fill:rgb(153,71,31)"/>
<polygon points="225,26 231,44 240,37" style="fill:rgb(220,210,202)"/>
<polygon points="225,26 220,35 231,44" style="fill:rgb(201,192,186)"/>
<polygon points="188,387 196,384 189,381" style="fill:rgb(198,115,91)"/>
<polygon points="189,381 196,384 193,379" style="fill:rgb(188,98,69)"/>
<polygon points="9,296 11,306 18,309" style="fill:rgb(70,63,63)"/>
<polygon points="248,35 256,56 262,50" style="fill:rgb(143,130,114)"/>
<polygon points="211,387 212,386 205,381" style="fill:rgb(71,39,27)"/>
<polygon points="258,36 248,35 262,50" style="fill:rgb(46,39,39)"/>
<polygon points="251,32 243,30 248,35" style="fill:rgb(116,101,101)"/>
<polygon points="248,35 243,30 240,37" style="fill:rgb(202,197,186)"/>
<polygon points="188,387 190,390 196,384" style="fill:rgb(210,126,103)"/>
<polygon points="184,390 190,390 188,387" style="fill:rgb(91,51,40)"/>
<polygon points="211,387 208,393 210,392" style="fill:rgb(185,95,64)"/>
<polygon points="260,35 262,50 269,54" style="fill:rgb(208,178,163)"/>
<polygon points="260,35 258,36 262,50" style="fill:rgb(144,110,97)"/>
<polygon points="260,35 269,54 261,33" style="fill:rgb(223,201,183)"/>
<polygon points="269,54 263,30 261,33" style="fill:rgb(239,227,216)"/>
<polygon points="258,36 251,32 248,35" style="fill:rgb(66,46,54)"/>
<polygon points="211,387 205,381 208,393" style="fill:rgb(158,69,34)"/>
<polygon points="184,390 179,393 190,390" style="fill:rgb(50,25,16)"/>
<polygon points="208,393 205,381 196,384" style="fill:rgb(171,75,35)"/>
<polygon points="258,36 252,30 251,32" style="fill:rgb(167,137,130)"/>
<polygon points="251,32 252,30 243,30" style="fill:rgb(183,165,159)"/>
<polygon points="269,54 272,57 263,30" style="fill:rgb(179,167,162)"/>
<polygon points="261,33 252,30 258,36" style="fill:rgb(194,165,147)"/>
<polygon points="252,30 244,26 243,30" style="fill:rgb(205,187,177)"/>
<polygon points="232,18 225,26 243,30" style="fill:rgb(224,215,206)"/>
<polygon points="260,35 261,33 258,36" style="fill:rgb(196,166,144)"/>
<polygon points="255,23 242,18 244,26" style="fill:rgb(239,235,229)"/>
<polygon points="244,26 232,18 243,30" style="fill:rgb(222,209,200)"/>
<polygon points="208,393 196,384 205,396" style="fill:rgb(163,87,61)"/>
<polygon points="211,387 218,391 212,386" style="fill:rgb(149,73,41)"/>
<polygon points="198,397 196,384 190,390" style="fill:rgb(205,123,101)"/>
<polygon points="242,18 232,18 244,26" style="fill:rgb(223,217,211)"/>
<polygon points="216,395 218,391 210,392" style="fill:rgb(183,90,61)"/>
<polygon points="210,392 218,391 211,387" style="fill:rgb(157,59,25)"/>
<polygon points="208,393 216,395 210,392" style="fill:rgb(154,82,60)"/>
<polygon points="261,33 261,27 252,30" style="fill:rgb(236,225,214)"/>
<polygon points="200,397 205,396 196,384" style="fill:rgb(192,113,91)"/>
<polygon points="198,397 200,397 196,384" style="fill:rgb(211,128,106)"/>
<polygon points="255,23 244,26 252,30" style="fill:rgb(238,228,220)"/>
<polygon points="209,402 208,393 205,396" style="fill:rgb(115,73,59)"/>
<polygon points="263,30 261,27 261,33" style="fill:rgb(202,201,195)"/>
<polygon points="261,27 255,23 252,30" style="fill:rgb(233,228,222)"/>
<polygon points="198,397 205,399 200,397" style="fill:rgb(110,66,55)"/>
<polygon points="200,397 205,399 205,396" style="fill:rgb(198,121,100)"/>
<polygon points="221,398 222,397 216,395" style="fill:rgb(15,8,6)"/>
<polygon points="216,395 222,397 218,391" style="fill:rgb(168,85,59)"/>
<polygon points="218,391 238,397 212,386" style="fill:rgb(143,80,56)"/>
<polygon points="205,399 209,402 205,396" style="fill:rgb(99,61,51)"/>
<polygon points="221,398 238,397 222,397" style="fill:rgb(26,15,12)"/>
<polygon points="222,397 238,397 218,391" style="fill:rgb(185,104,74)"/>
</svg>