<svg width="155" height="54" viewBox="0 0 155 54" fill="none" xmlns="http://www.w3.org/2000/svg">
<path d="M24.6244 11.7619L29.7403 40.2806L2.91575 29.3292L24.6244 11.7619Z" stroke="white" stroke-width="3"/>
<path d="M56.3281 20.0312C56.3698 20.1771 56.4531 20.3333 56.5781 20.5C56.7031 20.6667 56.7656 20.7917 56.7656 20.875C56.599 21.2708 56.474 21.5833 56.3906 21.8125C56.3073 22.0208 56.1719 22.2083 55.9844 22.375C55.9844 22.4375 55.9219 22.5729 55.7969 22.7812C55.6719 22.9896 55.526 23.2188 55.3594 23.4688C55.2135 23.6979 55.0573 23.9271 54.8906 24.1562C54.7448 24.3646 54.651 24.5104 54.6094 24.5938C54.5052 24.7604 54.4219 24.9271 54.3594 25.0938C54.2969 25.2396 54.224 25.3854 54.1406 25.5312C53.9531 25.8646 53.7552 26.1771 53.5469 26.4688C53.3594 26.7604 53.1823 27.0833 53.0156 27.4375C52.9115 27.5417 52.8177 27.6562 52.7344 27.7812C52.651 27.9062 52.5573 28.0208 52.4531 28.125C52.2031 28.5833 51.9115 29.0104 51.5781 29.4062C51.2656 29.8021 50.974 30.2396 50.7031 30.7188C50.9323 30.9479 51.0469 31.2396 51.0469 31.5938C51.0469 31.7812 50.9948 31.8854 50.8906 31.9062C50.7865 31.9062 50.6927 31.9271 50.6094 31.9688C50.401 32.1146 50.2135 32.1979 50.0469 32.2188C49.8802 32.2396 49.7448 32.25 49.6406 32.25C49.4115 32.25 49.1615 32.2396 48.8906 32.2188C48.6198 32.2188 48.3906 32.2396 48.2031 32.2812C48.1406 32.3021 48.0677 32.3333 47.9844 32.375C47.901 32.4375 47.8385 32.4688 47.7969 32.4688C47.6302 32.4688 47.5052 32.4375 47.4219 32.375C47.3594 32.3333 47.2656 32.2917 47.1406 32.25C46.974 32.0625 46.8177 31.8646 46.6719 31.6562C46.5469 31.4479 46.4115 31.2396 46.2656 31.0312C46.1406 30.8854 46.0052 30.7604 45.8594 30.6562C45.7135 30.5312 45.5781 30.3854 45.4531 30.2188C45.1198 29.7396 44.776 29.2812 44.4219 28.8438C44.0885 28.4062 43.7448 27.9688 43.3906 27.5312C43.224 27.3021 43.0365 27.0833 42.8281 26.875C42.6406 26.6667 42.4635 26.4583 42.2969 26.25C42.1302 26.0208 41.974 25.7812 41.8281 25.5312C41.6823 25.2812 41.526 25.0417 41.3594 24.8125C41.2344 24.6042 41.0573 24.3542 40.8281 24.0625C40.599 23.75 40.3594 23.4375 40.1094 23.125C39.8594 22.8125 39.599 22.5208 39.3281 22.25C39.0781 21.9583 38.8594 21.7396 38.6719 21.5938C38.6719 21.4479 38.6302 21.3438 38.5469 21.2812C38.4635 21.2188 38.3698 21.1458 38.2656 21.0625C38.224 20.9583 38.1719 20.8646 38.1094 20.7812C38.0469 20.6771 38.0156 20.5625 38.0156 20.4375C38.0156 20.2917 38.0469 20.1562 38.1094 20.0312C38.151 19.9479 38.1719 19.875 38.1719 19.8125C38.1927 19.7292 38.224 19.6458 38.2656 19.5625C38.3698 19.2917 38.5156 19.0521 38.7031 18.8438C38.9115 18.6354 39.0677 18.3958 39.1719 18.125C39.1927 18.0417 39.2031 17.9688 39.2031 17.9062C39.2031 17.8229 39.224 17.7396 39.2656 17.6562C39.3281 17.5104 39.4219 17.3854 39.5469 17.2812C39.6719 17.1562 39.7865 17.0208 39.8906 16.875C39.9948 16.6875 40.099 16.5 40.2031 16.3125C40.3073 16.125 40.4115 15.9375 40.5156 15.75C40.8073 15.2708 41.1302 14.8125 41.4844 14.375C41.8385 13.9167 42.1719 13.4688 42.4844 13.0312C42.776 12.6146 43.0469 12.2083 43.2969 11.8125C43.5469 11.3958 43.8177 10.9792 44.1094 10.5625C44.2552 10.3542 44.4219 10.125 44.6094 9.875C44.7969 9.60417 44.9844 9.34375 45.1719 9.09375C45.3802 8.84375 45.5885 8.61458 45.7969 8.40625C46.0052 8.17708 46.2135 8.01042 46.4219 7.90625C46.776 7.86458 47.0052 7.92708 47.1094 8.09375C47.2135 8.23958 47.3594 8.3125 47.5469 8.3125C47.8385 8.375 48.0365 8.46875 48.1406 8.59375C48.2448 8.71875 48.349 8.83333 48.4531 8.9375C48.724 8.9375 48.9531 8.98958 49.1406 9.09375C49.3281 9.19792 49.5156 9.35417 49.7031 9.5625C49.6198 9.79167 49.5052 10 49.3594 10.1875C49.2344 10.375 49.1198 10.5729 49.0156 10.7812C48.849 10.8438 48.724 10.9479 48.6406 11.0938C48.5781 11.2396 48.474 11.3646 48.3281 11.4688C48.099 11.8229 47.8698 12.1771 47.6406 12.5312C47.4115 12.8646 47.1823 13.1875 46.9531 13.5C46.849 13.625 46.7344 13.7292 46.6094 13.8125C46.4844 13.875 46.3698 13.9792 46.2656 14.125C46.224 14.1875 46.1927 14.2604 46.1719 14.3438C46.151 14.4062 46.1198 14.4688 46.0781 14.5312C45.8281 14.9271 45.5469 15.3125 45.2344 15.6875C44.9219 16.0625 44.651 16.4583 44.4219 16.875C44.3177 17.0208 44.2344 17.1771 44.1719 17.3438C44.1094 17.4896 44.0365 17.6354 43.9531 17.7812C43.8698 17.9271 43.7448 18.1146 43.5781 18.3438C43.4323 18.5521 43.276 18.7708 43.1094 19C42.9635 19.2292 42.8281 19.4583 42.7031 19.6875C42.599 19.9167 42.5469 20.1042 42.5469 20.25C42.5677 20.3542 42.7031 20.5625 42.9531 20.875C43.2031 21.1875 43.4844 21.5208 43.7969 21.875C44.1094 22.2292 44.401 22.5729 44.6719 22.9062C44.9635 23.2188 45.1406 23.4062 45.2031 23.4688C45.2448 23.5729 45.401 23.8021 45.6719 24.1562C45.9427 24.4896 46.2448 24.8646 46.5781 25.2812C46.9323 25.6771 47.276 26.0625 47.6094 26.4375C47.9427 26.8125 48.1719 27.0833 48.2969 27.25L48.5469 27.6562C48.5885 27.6354 48.6927 27.4896 48.8594 27.2188C49.0469 26.9479 49.2344 26.6458 49.4219 26.3125C49.6094 25.9792 49.776 25.6667 49.9219 25.375C50.0885 25.0833 50.1927 24.8958 50.2344 24.8125C50.2969 24.75 50.401 24.5833 50.5469 24.3125C50.6927 24.0417 50.849 23.75 51.0156 23.4375C51.2031 23.125 51.3594 22.8333 51.4844 22.5625C51.6302 22.2917 51.7135 22.1146 51.7344 22.0312H51.3594C51.026 22.0312 50.6927 22.0521 50.3594 22.0938C50.0469 22.1146 49.724 22.1771 49.3906 22.2812C49.2448 22.2604 49.1198 22.2188 49.0156 22.1562C48.9115 22.0938 48.7865 22.0312 48.6406 21.9688C48.5781 21.7604 48.5469 21.6146 48.5469 21.5312C48.5677 21.4479 48.5677 21.3854 48.5469 21.3438C48.526 21.2604 48.4948 21.1979 48.4531 21.1562C48.4323 21.1146 48.4219 21.0521 48.4219 20.9688C48.4219 20.8229 48.401 20.7083 48.3594 20.625C48.3177 20.5208 48.276 20.4062 48.2344 20.2812C48.2344 20.1979 48.2344 20.1146 48.2344 20.0312C48.2552 19.9479 48.2448 19.875 48.2031 19.8125C48.2448 19.4375 48.2135 19.1667 48.1094 19C48.1094 18.7083 48.151 18.5208 48.2344 18.4375C48.3177 18.3542 48.3802 18.2292 48.4219 18.0625C48.6094 18.125 48.7656 18.1146 48.8906 18.0312C49.0365 17.9271 49.1823 17.875 49.3281 17.875C49.6615 17.875 49.9323 17.8229 50.1406 17.7188C50.3281 17.6979 50.5156 17.6875 50.7031 17.6875C50.9115 17.6875 51.1094 17.6667 51.2969 17.625C51.401 17.6042 51.4844 17.5833 51.5469 17.5625C51.6302 17.5417 51.724 17.5208 51.8281 17.5C51.9531 17.4792 52.0885 17.4688 52.2344 17.4688C52.3802 17.4688 52.5156 17.4688 52.6406 17.4688C52.974 17.4271 53.3073 17.4062 53.6406 17.4062C53.974 17.3854 54.3073 17.3646 54.6406 17.3438C54.7448 17.3854 54.8385 17.4167 54.9219 17.4375C55.026 17.4583 55.1198 17.4896 55.2031 17.5312C55.2656 17.5729 55.3177 17.625 55.3594 17.6875C55.401 17.7292 55.474 17.7604 55.5781 17.7812C55.6823 17.8854 55.7552 17.9896 55.7969 18.0938C55.7552 18.2812 55.7656 18.4167 55.8281 18.5C55.724 18.6042 55.6615 18.75 55.6406 18.9375C55.6406 19.1042 55.6302 19.2604 55.6094 19.4062C55.7552 19.4479 55.8802 19.5625 55.9844 19.75C56.0885 19.9375 56.1615 20.0312 56.2031 20.0312H56.3281ZM59.8906 31.5C59.8281 31.5417 59.7656 31.5833 59.7031 31.625C59.6406 31.6667 59.5781 31.7083 59.5156 31.75C59.2865 31.875 59.0781 31.9479 58.8906 31.9688C58.7031 31.9688 58.4948 32.0729 58.2656 32.2812C58.1823 32.1771 58.1198 32.125 58.0781 32.125C58.0365 32.125 57.9635 32.125 57.8594 32.125C57.5885 32.125 57.4323 32.0521 57.3906 31.9062C57.3073 31.9271 57.1719 31.9792 56.9844 32.0625C56.8177 32.1458 56.6927 32.2083 56.6094 32.25C56.7969 31.9792 56.9219 31.7708 56.9844 31.625C57.0469 31.4792 57.0781 31.3438 57.0781 31.2188C57.099 31.0938 57.1094 30.9688 57.1094 30.8438C57.1302 30.6979 57.1823 30.5 57.2656 30.25C57.3073 30.1667 57.3385 30.0833 57.3594 30C57.3802 29.9167 57.4115 29.8229 57.4531 29.7188C57.5573 29.4062 57.6406 29.0521 57.7031 28.6562C57.7865 28.2604 57.9115 27.9167 58.0781 27.625C58.0781 27.2708 58.151 26.9375 58.2969 26.625C58.4635 26.3125 58.599 25.9896 58.7031 25.6562C58.7448 25.5312 58.7969 25.4062 58.8594 25.2812C58.9427 25.1562 59.0052 25.0312 59.0469 24.9062C59.1302 24.6979 59.1927 24.5 59.2344 24.3125C59.2969 24.1042 59.3594 23.9062 59.4219 23.7188C59.5885 23.1146 59.7552 22.5208 59.9219 21.9375C60.0885 21.3333 60.2448 20.7292 60.3906 20.125C60.4115 20.0208 60.4323 19.9062 60.4531 19.7812C60.4948 19.6562 60.5365 19.5417 60.5781 19.4375C60.6823 19.125 60.7448 18.8125 60.7656 18.5C60.8073 18.1667 60.9115 17.8542 61.0781 17.5625C61.0573 17.4167 61.0573 17.2812 61.0781 17.1562C61.1198 17.0312 61.1615 16.8958 61.2031 16.75C61.2448 16.6042 61.2865 16.4688 61.3281 16.3438C61.3698 16.2188 61.401 16.125 61.4219 16.0625C61.526 15.7917 61.599 15.5521 61.6406 15.3438C61.7031 15.1146 61.8177 14.875 61.9844 14.625C61.9844 14.625 62.0156 14.5208 62.0781 14.3125C62.1406 14.0833 62.2135 13.8333 62.2969 13.5625C62.3802 13.2917 62.4531 13.0417 62.5156 12.8125C62.5781 12.5625 62.6094 12.4167 62.6094 12.375C62.651 12.2083 62.6823 12.0521 62.7031 11.9062C62.7448 11.7604 62.7865 11.6042 62.8281 11.4375C62.8698 11.3333 62.9115 11.25 62.9531 11.1875C62.9948 11.1042 63.0365 11.0104 63.0781 10.9062C63.1406 10.6771 63.2031 10.3958 63.2656 10.0625C63.3281 9.72917 63.4115 9.46875 63.5156 9.28125C63.5781 9.13542 63.6927 9.02083 63.8594 8.9375C64.0469 8.83333 64.2031 8.72917 64.3281 8.625C64.7031 8.66667 64.974 8.64583 65.1406 8.5625C65.3281 8.47917 65.5052 8.375 65.6719 8.25C65.776 8.27083 65.8698 8.30208 65.9531 8.34375C66.0573 8.36458 66.1615 8.375 66.2656 8.375C66.6615 8.8125 66.9323 9.26042 67.0781 9.71875C67.2448 10.1771 67.401 10.6354 67.5469 11.0938C67.6094 11.3229 67.6719 11.5521 67.7344 11.7812C67.7969 11.9896 67.8698 12.1979 67.9531 12.4062C67.974 12.4688 68.0052 12.5417 68.0469 12.625C68.0885 12.6875 68.1302 12.7604 68.1719 12.8438C68.276 13.0104 68.3594 13.1875 68.4219 13.375C68.5052 13.5625 68.5781 13.75 68.6406 13.9375C68.7656 14.0833 68.8594 14.2604 68.9219 14.4688C68.9844 14.6562 69.0365 14.8542 69.0781 15.0625C69.1406 15.25 69.2031 15.4375 69.2656 15.625C69.3281 15.7917 69.4219 15.9375 69.5469 16.0625C69.5885 16.2917 69.6615 16.5208 69.7656 16.75C69.8698 16.9583 69.9427 17.1875 69.9844 17.4375C70.1094 17.6042 70.2552 17.9271 70.4219 18.4062C70.5885 18.8646 70.7552 19.3646 70.9219 19.9062C71.0885 20.4479 71.2448 20.9688 71.3906 21.4688C71.5365 21.9688 71.6406 22.3229 71.7031 22.5312C71.7448 22.6979 71.8281 22.9167 71.9531 23.1875C72.0781 23.4375 72.1927 23.6667 72.2969 23.875C72.3802 24.1042 72.4635 24.3438 72.5469 24.5938C72.651 24.8438 72.7344 25.0833 72.7969 25.3125C72.8385 25.5417 72.8802 25.7604 72.9219 25.9688C72.9844 26.1771 73.0469 26.3958 73.1094 26.625C73.151 26.7708 73.2135 26.9062 73.2969 27.0312C73.3802 27.1354 73.4427 27.2708 73.4844 27.4375C73.5677 27.6042 73.6198 27.7604 73.6406 27.9062C73.6823 28.0521 73.7552 28.2083 73.8594 28.375C73.8385 28.6042 73.849 28.75 73.8906 28.8125C73.9323 28.875 73.974 28.9479 74.0156 29.0312C74.099 29.4688 74.1927 29.8229 74.2969 30.0938C74.401 30.3438 74.4531 30.6146 74.4531 30.9062C74.4531 31.1562 74.401 31.3125 74.2969 31.375C74.2135 31.4375 74.099 31.5417 73.9531 31.6875C73.7865 31.8333 73.6406 31.9479 73.5156 32.0312C73.4115 32.1146 73.2448 32.1562 73.0156 32.1562C72.7656 32.1354 72.6094 32.1667 72.5469 32.25C72.5052 32.3542 72.474 32.4271 72.4531 32.4688C72.2031 32.4479 72.0365 32.4375 71.9531 32.4375C71.8906 32.4583 71.8177 32.4688 71.7344 32.4688C71.6719 32.4688 71.599 32.4792 71.5156 32.5C71.4531 32.5417 71.3802 32.6146 71.2969 32.7188C71.151 32.5521 71.0052 32.3958 70.8594 32.25C70.7344 32.125 70.6198 31.9792 70.5156 31.8125C70.5156 31.4583 70.4635 31.0417 70.3594 30.5625C70.276 30.0833 70.1823 29.7083 70.0781 29.4375C69.8698 28.8958 69.6719 28.3646 69.4844 27.8438C69.3177 27.3229 69.151 26.7917 68.9844 26.25C68.9219 26.0208 68.849 25.8125 68.7656 25.625C68.7031 25.4375 68.6302 25.2396 68.5469 25.0312C68.5885 25.1979 68.599 25.375 68.5781 25.5625C68.5781 25.7292 68.526 25.8958 68.4219 26.0625C68.3802 26.1042 68.3177 26.1562 68.2344 26.2188C68.151 26.2812 68.1094 26.3333 68.1094 26.375C67.8594 26.5833 67.6406 26.7812 67.4531 26.9688C67.474 27.3438 67.4219 27.6042 67.2969 27.75C67.1719 27.8958 67.0365 28.0312 66.8906 28.1562C66.5365 28.1771 66.3177 28.1562 66.2344 28.0938C66.151 28.0312 66.0365 27.9896 65.8906 27.9688C65.8073 27.9479 65.724 27.9479 65.6406 27.9688C65.5573 27.9688 65.474 27.9688 65.3906 27.9688C65.224 27.9688 65.0677 27.9271 64.9219 27.8438C64.8594 27.8021 64.8073 27.7604 64.7656 27.7188C64.7448 27.6771 64.7135 27.6354 64.6719 27.5938C64.5052 27.4271 64.3073 27.2917 64.0781 27.1875C63.8698 27.0625 63.6615 26.9583 63.4531 26.875C63.2865 26.7292 63.1094 26.5833 62.9219 26.4375C62.7552 26.2708 62.5781 26.1354 62.3906 26.0312C62.224 26.4271 62.0885 26.7812 61.9844 27.0938C61.901 27.3854 61.7969 27.6771 61.6719 27.9688C61.4427 28.6771 61.2552 29.3021 61.1094 29.8438C60.9635 30.3646 60.7969 30.8958 60.6094 31.4375C60.526 31.4583 60.4427 31.4896 60.3594 31.5312C60.2969 31.5729 60.2135 31.5938 60.1094 31.5938L59.8906 31.5ZM62.9531 24.8438C63.1198 24.5521 63.2656 24.3958 63.3906 24.375C63.5365 24.3333 63.6615 24.25 63.7656 24.125C63.8073 24.0833 63.849 24.0312 63.8906 23.9688C63.9531 23.9062 64.0156 23.8438 64.0781 23.7812C64.1406 23.7396 64.2135 23.6979 64.2969 23.6562C64.3802 23.6146 64.4531 23.5625 64.5156 23.5C64.6823 23.3542 64.8177 23.2292 64.9219 23.125C65.0469 23.0208 65.224 22.9688 65.4531 22.9688C65.8073 22.9688 66.099 23.0625 66.3281 23.25C66.5573 23.4167 66.8385 23.5312 67.1719 23.5938C67.2135 23.7188 67.349 23.8125 67.5781 23.875C67.8073 23.9167 67.9844 23.9792 68.1094 24.0625C67.901 23.5417 67.7344 23.0208 67.6094 22.5C67.5052 21.9583 67.3698 21.4271 67.2031 20.9062C67.0781 20.4479 66.9323 20 66.7656 19.5625C66.599 19.1042 66.4323 18.6667 66.2656 18.25C66.1198 17.8333 65.9948 17.4271 65.8906 17.0312C65.7865 16.6354 65.651 16.25 65.4844 15.875C65.3177 16.25 65.151 16.7083 64.9844 17.25C64.8177 17.7917 64.6927 18.2708 64.6094 18.6875C64.6094 18.875 64.599 19.0208 64.5781 19.125C64.5365 19.2708 64.4948 19.4062 64.4531 19.5312C64.4115 19.6354 64.3698 19.75 64.3281 19.875C64.0573 20.6875 63.8073 21.5104 63.5781 22.3438C63.3698 23.1771 63.1198 24.0104 62.8281 24.8438H62.9531ZM89.5156 8.53125C89.7448 8.53125 89.9115 8.5625 90.0156 8.625C90.1198 8.83333 90.1823 9.02083 90.2031 9.1875C90.2448 9.33333 90.2656 9.51042 90.2656 9.71875C90.2865 10.0312 90.2865 10.2604 90.2656 10.4062C90.2656 10.5312 90.2552 10.6667 90.2344 10.8125C90.2135 11.1458 90.2031 11.4688 90.2031 11.7812C90.2031 12.0729 90.2031 12.3854 90.2031 12.7188C90.2031 13.4479 90.2135 14.1875 90.2344 14.9375C90.2552 15.6875 90.2656 16.4271 90.2656 17.1562C90.2656 17.4479 90.2552 17.7396 90.2344 18.0312C90.2344 18.3021 90.2344 18.5833 90.2344 18.875C90.2344 18.9375 90.2344 19.0104 90.2344 19.0938C90.2552 19.1562 90.2656 19.2188 90.2656 19.2812C90.2656 19.4688 90.2552 19.6562 90.2344 19.8438C90.2344 20.0104 90.2344 20.1771 90.2344 20.3438C90.2344 20.4271 90.2344 20.5 90.2344 20.5625C90.2344 20.625 90.2448 20.7083 90.2656 20.8125C90.224 20.9792 90.2031 21.0938 90.2031 21.1562C90.2031 21.4896 90.2135 21.8333 90.2344 22.1875C90.2552 22.5208 90.2656 22.8542 90.2656 23.1875C90.2656 23.5 90.2656 23.8021 90.2656 24.0938C90.2865 24.3854 90.2969 24.6875 90.2969 25C90.2969 25.1667 90.2865 25.3438 90.2656 25.5312C90.2656 25.7188 90.2656 25.9062 90.2656 26.0938C90.2656 26.5312 90.276 26.9792 90.2969 27.4375C90.3177 27.875 90.3385 28.3125 90.3594 28.75C90.3594 29.0417 90.3594 29.3333 90.3594 29.625C90.3594 29.8958 90.3802 30.1771 90.4219 30.4688C90.4219 30.8021 90.401 31.0521 90.3594 31.2188C90.3385 31.3646 90.3073 31.5104 90.2656 31.6562C90.099 31.6979 89.9844 31.7188 89.9219 31.7188C89.8802 31.6979 89.8281 31.6875 89.7656 31.6875C89.474 31.7708 89.2865 31.8542 89.2031 31.9375C89.1198 32 89.026 32.0729 88.9219 32.1562C88.8385 32.1562 88.7344 32.1562 88.6094 32.1562C88.5052 32.1771 88.4219 32.2188 88.3594 32.2812C88.2552 32.2396 88.1719 32.2292 88.1094 32.25C88.0469 32.2708 87.9844 32.2812 87.9219 32.2812C87.6302 32.3021 87.4323 32.3333 87.3281 32.375C87.224 32.4375 87.0781 32.4688 86.8906 32.4688C86.724 32.1979 86.599 31.9896 86.5156 31.8438C86.4323 31.6771 86.2969 31.6042 86.1094 31.625C85.8385 31.2083 85.6406 30.7708 85.5156 30.3125C85.4115 29.8542 85.224 29.4375 84.9531 29.0625C84.9323 28.8958 84.901 28.7917 84.8594 28.75C84.8177 28.7083 84.776 28.625 84.7344 28.5C84.651 28.3333 84.5781 28.1562 84.5156 27.9688C84.4531 27.7812 84.3698 27.6042 84.2656 27.4375C84.099 27.0833 83.9323 26.7396 83.7656 26.4062C83.599 26.0521 83.4427 25.6875 83.2969 25.3125C83.2344 25.1458 83.1823 24.9792 83.1406 24.8125C83.099 24.625 83.0469 24.4479 82.9844 24.2812C82.9427 24.1979 82.8906 24.1146 82.8281 24.0312C82.7865 23.9479 82.7448 23.875 82.7031 23.8125C82.5781 23.5833 82.4531 23.3542 82.3281 23.125C82.224 22.8958 82.099 22.6667 81.9531 22.4375C81.9115 22.3333 81.849 22.2396 81.7656 22.1562C81.7031 22.0521 81.6302 21.9479 81.5469 21.8438C81.4844 21.6979 81.4219 21.5521 81.3594 21.4062C81.3177 21.2604 81.2656 21.1146 81.2031 20.9688C81.1615 20.8438 81.099 20.7188 81.0156 20.5938C80.9323 20.4479 80.8698 20.3125 80.8281 20.1875C80.7865 20.0833 80.7552 19.9792 80.7344 19.875C80.7135 19.7708 80.651 19.6771 80.5469 19.5938C80.401 19.8438 80.3281 20.0104 80.3281 20.0938C80.3073 20.3438 80.2865 20.5521 80.2656 20.7188C80.2656 20.8646 80.2656 21 80.2656 21.125C80.2656 21.2708 80.276 21.4167 80.2969 21.5625C80.3385 21.6875 80.3594 21.8125 80.3594 21.9375C80.401 22.4375 80.4323 22.9479 80.4531 23.4688C80.474 23.9688 80.4844 24.4688 80.4844 24.9688C80.4635 25.3646 80.4531 25.6667 80.4531 25.875C80.474 26.0833 80.4948 26.2917 80.5156 26.5C80.5365 26.7083 80.5365 26.9271 80.5156 27.1562C80.5156 27.3646 80.526 27.5729 80.5469 27.7812C80.5469 28.2604 80.5469 28.7292 80.5469 29.1875C80.5677 29.625 80.5781 30.0833 80.5781 30.5625V31.3125C80.5781 31.5417 80.5469 31.75 80.4844 31.9375C80.1719 31.9375 79.9635 31.9271 79.8594 31.9062C79.776 31.8854 79.6823 31.8542 79.5781 31.8125C79.4531 31.8333 79.349 31.8854 79.2656 31.9688C79.2031 32.0312 79.1198 32.0938 79.0156 32.1562C78.7865 32.1354 78.6615 32.1354 78.6406 32.1562C78.6198 32.1979 78.5781 32.2396 78.5156 32.2812C78.4531 32.3021 78.3906 32.3021 78.3281 32.2812C78.2865 32.2604 78.2344 32.25 78.1719 32.25C78.0052 32.2083 77.8698 32.1875 77.7656 32.1875C77.6406 32.2292 77.5156 32.2708 77.3906 32.3125C77.2865 32.3542 77.1719 32.3854 77.0469 32.4062C76.9219 32.1771 76.849 31.9062 76.8281 31.5938C76.8073 31.2812 76.724 31.0104 76.5781 30.7812C76.6198 30.6979 76.6406 30.6458 76.6406 30.625C76.6615 30.6042 76.6719 30.5417 76.6719 30.4375C76.6719 29.9583 76.6615 29.4792 76.6406 29C76.6198 28.5208 76.6094 28.0417 76.6094 27.5625C76.6094 27.1667 76.5781 26.7812 76.5156 26.4062C76.474 26.0312 76.4531 25.6458 76.4531 25.25C76.4531 25.125 76.4635 25 76.4844 24.875C76.5052 24.75 76.5156 24.6146 76.5156 24.4688C76.5156 24.4062 76.5052 24.3438 76.4844 24.2812C76.4844 24.2188 76.4844 24.1667 76.4844 24.125C76.4427 23.75 76.4115 23.3646 76.3906 22.9688C76.3906 22.5729 76.3906 22.1771 76.3906 21.7812C76.3698 21.5521 76.349 21.3125 76.3281 21.0625C76.3281 20.8125 76.3281 20.5521 76.3281 20.2812C76.3281 20.1771 76.3385 20.0625 76.3594 19.9375C76.3802 19.8125 76.3906 19.6875 76.3906 19.5625V18.25C76.349 18 76.3281 17.8333 76.3281 17.75C76.349 17.6667 76.3594 17.5833 76.3594 17.5C76.3594 17.3125 76.3385 17.1354 76.2969 16.9688C76.276 16.7812 76.2656 16.5833 76.2656 16.375C76.2656 16.2292 76.276 16.0938 76.2969 15.9688C76.3385 15.8229 76.3594 15.6771 76.3594 15.5312C76.3594 15.2188 76.3385 14.9167 76.2969 14.625C76.276 14.3333 76.2656 14.0312 76.2656 13.7188V11.0625C76.2656 10.9167 76.2552 10.7708 76.2344 10.625C76.2135 10.4792 76.2031 10.3229 76.2031 10.1562C76.3281 9.86458 76.4427 9.71875 76.5469 9.71875C76.651 9.69792 76.7448 9.65625 76.8281 9.59375C77.0573 9.63542 77.2552 9.61458 77.4219 9.53125C77.6927 9.55208 77.8594 9.52083 77.9219 9.4375C77.9635 9.47917 78.0156 9.5 78.0781 9.5C78.1615 9.47917 78.2344 9.47917 78.2969 9.5C78.3594 9.45833 78.4115 9.41667 78.4531 9.375C78.4948 9.33333 78.5573 9.29167 78.6406 9.25C78.8698 9.125 79.0052 9.05208 79.0469 9.03125C79.0885 8.98958 79.1406 8.94792 79.2031 8.90625C79.3073 8.90625 79.3698 8.9375 79.3906 9C79.4323 9.0625 79.5052 9.09375 79.6094 9.09375C79.651 9.17708 79.7031 9.26042 79.7656 9.34375C79.8281 9.42708 79.901 9.48958 79.9844 9.53125C80.151 9.88542 80.349 10.1875 80.5781 10.4375C80.7656 10.9792 80.974 11.5 81.2031 12C81.4531 12.5 81.7135 13 81.9844 13.5C81.9844 13.5625 81.9948 13.6458 82.0156 13.75C82.0365 13.8333 82.0573 13.8958 82.0781 13.9375C82.1823 14.1667 82.3281 14.4688 82.5156 14.8438C82.724 15.1979 82.901 15.4896 83.0469 15.7188C83.0885 15.8021 83.1406 15.875 83.2031 15.9375C83.2656 16 83.3177 16.0729 83.3594 16.1562C83.4219 16.2604 83.474 16.375 83.5156 16.5C83.5573 16.625 83.6094 16.7396 83.6719 16.8438C83.776 17.0938 83.8906 17.3438 84.0156 17.5938C84.1615 17.8229 84.3073 18.0625 84.4531 18.3125C84.4948 18.4375 84.5365 18.5625 84.5781 18.6875C84.6406 18.8125 84.7031 18.9375 84.7656 19.0625C84.9323 19.4375 85.0781 19.7292 85.2031 19.9375C85.349 20.125 85.4531 20.3333 85.5156 20.5625C85.6615 20.7292 85.776 20.9167 85.8594 21.125C85.9427 21.3125 86.0677 21.4688 86.2344 21.5938C86.2552 21.4896 86.276 21.1875 86.2969 20.6875C86.3177 20.1667 86.3281 19.6042 86.3281 19C86.3281 18.3958 86.3281 17.8229 86.3281 17.2812C86.3281 16.7396 86.3281 16.375 86.3281 16.1875C86.3281 15.625 86.3177 15.0729 86.2969 14.5312C86.276 13.9688 86.2656 13.4167 86.2656 12.875C86.2656 12.4375 86.2656 12 86.2656 11.5625C86.2865 11.1042 86.3073 10.6562 86.3281 10.2188C86.349 9.98958 86.349 9.78125 86.3281 9.59375C86.3281 9.38542 86.3385 9.17708 86.3594 8.96875C86.3802 8.86458 86.4219 8.76042 86.4844 8.65625C86.5469 8.55208 86.599 8.44792 86.6406 8.34375C86.9115 8.30208 87.1198 8.35417 87.2656 8.5C87.3906 8.4375 87.5365 8.40625 87.7031 8.40625C87.8906 8.40625 88.0469 8.39583 88.1719 8.375C88.3385 8.35417 88.4323 8.34375 88.4531 8.34375C88.474 8.32292 88.5052 8.3125 88.5469 8.3125C88.6302 8.35417 88.7031 8.38542 88.7656 8.40625C88.849 8.42708 88.9427 8.45833 89.0469 8.5C89.2344 8.4375 89.3906 8.44792 89.5156 8.53125ZM94.4844 32.375C94.401 32.2917 94.3594 32.1771 94.3594 32.0312C94.3594 31.9271 94.3594 31.8438 94.3594 31.7812C94.3802 31.6979 94.401 31.6042 94.4219 31.5C94.526 31.0208 94.5781 30.5417 94.5781 30.0625C94.5781 29.5625 94.599 29.0729 94.6406 28.5938C94.6615 28.3021 94.6719 28.0104 94.6719 27.7188C94.6927 27.4271 94.7031 27.1354 94.7031 26.8438C94.7031 25.1146 94.651 23.3958 94.5469 21.6875C94.4427 19.9583 94.3906 18.2188 94.3906 16.4688C94.3906 15.2604 94.4115 14.0521 94.4531 12.8438C94.4948 11.6146 94.526 10.3854 94.5469 9.15625C94.7344 9.05208 94.9635 9.01042 95.2344 9.03125C95.5052 9.05208 95.724 8.95833 95.8906 8.75C95.9948 8.72917 96.099 8.72917 96.2031 8.75C96.3073 8.75 96.4115 8.75 96.5156 8.75C96.7448 8.75 96.9635 8.67708 97.1719 8.53125C97.3802 8.38542 97.6094 8.26042 97.8594 8.15625C97.9844 8.19792 98.0677 8.21875 98.1094 8.21875C98.1719 8.19792 98.2344 8.1875 98.2969 8.1875C98.3594 8.1875 98.4948 8.26042 98.7031 8.40625C98.9115 8.55208 99.1406 8.71875 99.3906 8.90625C99.6406 9.09375 99.8698 9.27083 100.078 9.4375C100.307 9.60417 100.453 9.70833 100.516 9.75C101.036 10.1458 101.495 10.5833 101.891 11.0625C102.307 11.5208 102.714 11.9896 103.109 12.4688C103.484 12.9479 103.891 13.4375 104.328 13.9375C104.766 14.4167 105.193 14.8646 105.609 15.2812C105.755 15.4479 105.901 15.5938 106.047 15.7188C106.214 15.8438 106.37 15.9896 106.516 16.1562C106.578 16.2396 106.63 16.3333 106.672 16.4375C106.734 16.5208 106.797 16.6146 106.859 16.7188C106.984 16.8646 107.13 16.9896 107.297 17.0938C107.464 17.1979 107.62 17.3229 107.766 17.4688C107.87 17.5521 108.026 17.7188 108.234 17.9688C108.443 18.2188 108.547 18.4062 108.547 18.5312C108.547 18.6146 108.526 18.6875 108.484 18.75C108.443 18.8125 108.401 18.8854 108.359 18.9688C108.339 19.0312 108.328 19.125 108.328 19.25C108.328 19.375 108.318 19.4583 108.297 19.5C108.089 19.6667 107.974 19.7708 107.953 19.8125C107.932 19.8542 107.901 19.8958 107.859 19.9375C107.797 20.0208 107.714 20.0938 107.609 20.1562C107.526 20.1979 107.464 20.2708 107.422 20.375C107.38 20.4375 107.359 20.5 107.359 20.5625C107.38 20.625 107.37 20.6979 107.328 20.7812C107.224 21.0104 107.057 21.2292 106.828 21.4375C106.599 21.6458 106.401 21.875 106.234 22.125C106.005 22.5 105.776 22.875 105.547 23.25C105.318 23.625 105.057 23.9896 104.766 24.3438C104.641 24.5104 104.505 24.6771 104.359 24.8438C104.234 24.9896 104.109 25.1458 103.984 25.3125C103.88 25.4375 103.786 25.5729 103.703 25.7188C103.62 25.8438 103.526 25.9896 103.422 26.1562C103.193 26.4479 102.974 26.7396 102.766 27.0312C102.557 27.3021 102.339 27.5833 102.109 27.875C101.859 28.2292 101.589 28.5833 101.297 28.9375C101.005 29.2708 100.745 29.6146 100.516 29.9688C100.286 30.3438 100.047 30.6875 99.7969 31C99.5469 31.3125 99.276 31.6146 98.9844 31.9062C98.901 31.9688 98.7969 32.0625 98.6719 32.1875C98.5469 32.3125 98.4219 32.375 98.2969 32.375C98.2135 32.375 98.1406 32.3438 98.0781 32.2812C98.0365 32.2188 97.9635 32.1875 97.8594 32.1875C97.8385 32.1875 97.776 32.1979 97.6719 32.2188C97.5677 32.2396 97.4427 32.2604 97.2969 32.2812L96.7344 32.3438C96.401 32.5104 96.1615 32.5833 96.0156 32.5625C95.8698 32.5625 95.724 32.5729 95.5781 32.5938C95.4948 32.6146 95.4219 32.6458 95.3594 32.6875C95.3177 32.7292 95.2656 32.75 95.2031 32.75C95.0573 32.75 94.9427 32.6771 94.8594 32.5312C94.776 32.4062 94.651 32.3542 94.4844 32.375ZM103.859 18.875C103.859 18.7708 103.755 18.625 103.547 18.4375C103.359 18.25 103.214 18.1146 103.109 18.0312C102.964 17.9062 102.786 17.7917 102.578 17.6875C102.391 17.5625 102.234 17.4271 102.109 17.2812C102.005 17.1562 101.901 17.0312 101.797 16.9062C101.714 16.7604 101.62 16.625 101.516 16.5C101.141 16.0833 100.755 15.6667 100.359 15.25C99.9844 14.8333 99.651 14.375 99.3594 13.875C99.1719 13.75 98.9948 13.6042 98.8281 13.4375C98.6615 13.2708 98.4635 13.1354 98.2344 13.0312C98.1927 13.1562 98.1719 13.2917 98.1719 13.4375C98.1927 13.5625 98.2031 13.6875 98.2031 13.8125C98.2031 14.2917 98.1823 14.7604 98.1406 15.2188C98.099 15.6771 98.0781 16.1354 98.0781 16.5938C98.0781 17.7188 98.099 18.8333 98.1406 19.9375C98.2031 21.0208 98.2344 22.1146 98.2344 23.2188C98.2344 23.6354 98.2344 24.0521 98.2344 24.4688C98.2552 24.8854 98.2969 25.3021 98.3594 25.7188C98.3177 25.8438 98.2969 25.9583 98.2969 26.0625C98.2969 26.1667 98.3177 26.3021 98.3594 26.4688C98.526 26.3646 98.6615 26.2396 98.7656 26.0938C98.8906 25.9271 99.0052 25.7708 99.1094 25.625C99.4635 25.1667 99.8073 24.7083 100.141 24.25C100.495 23.7708 100.849 23.2917 101.203 22.8125C101.432 22.5 101.661 22.1979 101.891 21.9062C102.141 21.5938 102.38 21.2708 102.609 20.9375C102.672 20.8542 102.766 20.7083 102.891 20.5C103.036 20.2917 103.172 20.0833 103.297 19.875C103.443 19.6458 103.568 19.4375 103.672 19.25C103.797 19.0625 103.859 18.9375 103.859 18.875ZM123.984 16.9375C123.797 17.3333 123.536 17.7083 123.203 18.0625C122.891 18.4167 122.589 18.75 122.297 19.0625C122.068 19.2917 121.87 19.5417 121.703 19.8125C121.536 20.0833 121.349 20.3333 121.141 20.5625C120.974 20.75 120.807 20.9271 120.641 21.0938C120.474 21.2396 120.318 21.4062 120.172 21.5938C120.068 21.6771 119.964 21.7604 119.859 21.8438C119.776 21.9271 119.693 22.0312 119.609 22.1562C119.922 22.8229 120.286 23.4271 120.703 23.9688C121.141 24.5104 121.589 25.0521 122.047 25.5938C122.276 25.8646 122.505 26.125 122.734 26.375C122.964 26.6042 123.161 26.8542 123.328 27.125C123.474 27.4375 123.62 27.6771 123.766 27.8438C123.932 27.9896 124.078 28.1458 124.203 28.3125C124.328 28.5208 124.432 28.7083 124.516 28.875C124.62 29.0208 124.755 29.1667 124.922 29.3125C124.922 29.4167 124.984 29.5208 125.109 29.625C125.234 29.7083 125.318 29.8021 125.359 29.9062C125.359 30.0104 125.359 30.0938 125.359 30.1562C125.38 30.2188 125.391 30.2708 125.391 30.3125C125.328 30.4792 125.214 30.625 125.047 30.75C124.901 30.8542 124.766 30.9688 124.641 31.0938C124.432 31.0938 124.255 31.1562 124.109 31.2812C123.964 31.4062 123.766 31.4688 123.516 31.4688C123.411 31.5521 123.328 31.6458 123.266 31.75C123.203 31.8333 123.12 31.9167 123.016 32C122.849 32 122.693 32.0417 122.547 32.125C122.422 32.2292 122.276 32.3021 122.109 32.3438C121.901 32.2188 121.734 32.0625 121.609 31.875C121.484 31.6667 121.318 31.5104 121.109 31.4062C121.089 31.3021 121.047 31.2188 120.984 31.1562C120.943 31.0729 120.901 30.9896 120.859 30.9062C120.505 30.5104 120.172 30.0938 119.859 29.6562C119.547 29.2188 119.234 28.7812 118.922 28.3438C118.755 28.1562 118.578 27.9792 118.391 27.8125C118.224 27.625 118.057 27.4271 117.891 27.2188C117.786 27.0938 117.682 26.9479 117.578 26.7812C117.474 26.6146 117.359 26.4583 117.234 26.3125C117.089 26.1875 116.964 26.0417 116.859 25.875C116.755 25.7083 116.63 25.5729 116.484 25.4688C116.297 25.5729 116.13 25.7083 115.984 25.875C115.839 26.0417 115.672 26.1875 115.484 26.3125C115.318 26.4583 115.151 26.6042 114.984 26.75C114.839 26.8958 114.682 27.0312 114.516 27.1562C114.474 27.6354 114.453 28.1042 114.453 28.5625C114.453 29 114.453 29.4375 114.453 29.875C114.453 30.2292 114.443 30.5729 114.422 30.9062C114.422 31.2188 114.38 31.5417 114.297 31.875C114.193 31.8958 114.089 31.8438 113.984 31.7188C113.901 31.5729 113.807 31.4896 113.703 31.4688C113.62 31.4896 113.547 31.5312 113.484 31.5938C113.443 31.6562 113.37 31.6667 113.266 31.625C113.161 31.7292 113.005 31.8229 112.797 31.9062C112.693 31.9062 112.578 31.9271 112.453 31.9688C112.328 31.9896 112.214 32 112.109 32C111.943 32 111.828 31.9792 111.766 31.9375C111.557 32.0833 111.38 32.1562 111.234 32.1562C111.109 32.1771 111.005 32.1875 110.922 32.1875C110.88 32.0417 110.839 31.9062 110.797 31.7812C110.755 31.6354 110.724 31.4792 110.703 31.3125C110.641 31.2292 110.589 31.1354 110.547 31.0312C110.526 30.9271 110.495 30.8229 110.453 30.7188C110.474 30.6562 110.484 30.5833 110.484 30.5C110.484 30.4167 110.484 30.3333 110.484 30.25C110.484 29.8958 110.474 29.5521 110.453 29.2188C110.432 28.8854 110.443 28.5417 110.484 28.1875C110.443 28.0833 110.411 27.9792 110.391 27.875C110.37 27.7708 110.359 27.6667 110.359 27.5625C110.359 27.5 110.359 27.4271 110.359 27.3438C110.38 27.2604 110.411 27.1979 110.453 27.1562C110.391 26.8854 110.349 26.6042 110.328 26.3125C110.328 26 110.328 25.7083 110.328 25.4375C110.328 25.2917 110.339 25.1458 110.359 25C110.401 24.8333 110.422 24.6667 110.422 24.5C110.422 24.1458 110.401 23.8021 110.359 23.4688C110.318 23.1354 110.297 22.8021 110.297 22.4688C110.318 22.2396 110.328 22.0625 110.328 21.9375C110.328 21.8125 110.339 21.6875 110.359 21.5625C110.38 21.4375 110.37 21.3125 110.328 21.1875C110.349 21.0833 110.37 21.0104 110.391 20.9688C110.432 20.9062 110.453 20.8229 110.453 20.7188C110.453 20.4479 110.453 20.1875 110.453 19.9375C110.474 19.6667 110.484 19.3854 110.484 19.0938C110.484 18.8854 110.484 18.6875 110.484 18.5C110.505 18.2917 110.516 18.0729 110.516 17.8438C110.516 17.6562 110.526 17.4792 110.547 17.3125C110.589 17.1458 110.62 16.9792 110.641 16.8125C110.661 16.625 110.672 16.4479 110.672 16.2812C110.672 16.0938 110.672 15.9167 110.672 15.75C110.672 15.3125 110.672 14.875 110.672 14.4375C110.672 13.9792 110.651 13.5312 110.609 13.0938C110.589 12.9896 110.568 12.875 110.547 12.75C110.526 12.625 110.516 12.5 110.516 12.375C110.474 11.9792 110.443 11.5729 110.422 11.1562C110.401 10.7396 110.359 10.3229 110.297 9.90625C110.339 9.84375 110.359 9.78125 110.359 9.71875C110.359 9.63542 110.359 9.5625 110.359 9.5C110.359 9.39583 110.359 9.30208 110.359 9.21875C110.359 9.11458 110.349 9.01042 110.328 8.90625C110.37 8.86458 110.411 8.82292 110.453 8.78125C110.495 8.71875 110.536 8.66667 110.578 8.625C110.703 8.625 110.828 8.63542 110.953 8.65625C111.099 8.65625 111.224 8.69792 111.328 8.78125C111.432 8.73958 111.547 8.69792 111.672 8.65625C111.818 8.59375 111.943 8.5625 112.047 8.5625C112.214 8.5625 112.339 8.60417 112.422 8.6875C112.526 8.64583 112.578 8.60417 112.578 8.5625C112.599 8.5 112.682 8.46875 112.828 8.46875C113.099 8.44792 113.286 8.4375 113.391 8.4375C113.516 8.4375 113.63 8.42708 113.734 8.40625C113.797 8.44792 113.849 8.5 113.891 8.5625C113.932 8.625 113.974 8.6875 114.016 8.75C114.474 8.91667 114.839 9.15625 115.109 9.46875C115.401 9.76042 115.724 10.0104 116.078 10.2188C116.161 10.2812 116.245 10.3333 116.328 10.375C116.411 10.4167 116.495 10.4583 116.578 10.5C116.766 10.625 116.953 10.7604 117.141 10.9062C117.328 11.0521 117.526 11.1771 117.734 11.2812C117.943 11.3854 118.057 11.4479 118.078 11.4688C118.12 11.4688 118.151 11.4896 118.172 11.5312C118.63 11.6979 119.036 11.9271 119.391 12.2188C119.766 12.4896 120.161 12.7396 120.578 12.9688C120.724 13.0521 120.901 13.1354 121.109 13.2188C121.339 13.3021 121.557 13.3958 121.766 13.5C121.995 13.5833 122.203 13.6771 122.391 13.7812C122.599 13.8854 122.755 14 122.859 14.125C123.089 14.3542 123.286 14.5208 123.453 14.625C123.641 14.7083 123.818 14.8125 123.984 14.9375L124.016 15.7812C124.016 15.9271 123.995 16.0625 123.953 16.1875C123.932 16.3125 123.922 16.4479 123.922 16.5938C123.922 16.6979 123.943 16.8125 123.984 16.9375ZM119.703 16.125C119.474 16 119.245 15.8854 119.016 15.7812C118.786 15.6562 118.589 15.4896 118.422 15.2812C118.276 15.2396 118.016 15.1458 117.641 15C117.266 14.8333 116.88 14.6667 116.484 14.5C116.109 14.3125 115.755 14.1562 115.422 14.0312C115.109 13.8854 114.932 13.8125 114.891 13.8125C114.828 13.8333 114.797 13.9688 114.797 14.2188C114.797 14.4688 114.797 14.7396 114.797 15.0312C114.797 15.3229 114.797 15.6042 114.797 15.875C114.797 16.1458 114.797 16.3125 114.797 16.375C114.797 16.7708 114.786 17.1562 114.766 17.5312C114.745 17.9062 114.714 18.2917 114.672 18.6875C114.63 18.75 114.599 18.8125 114.578 18.875C114.557 18.9167 114.536 18.9688 114.516 19.0312C114.474 19.3229 114.453 19.7083 114.453 20.1875C114.453 20.6667 114.453 21.0521 114.453 21.3438C114.453 21.4896 114.453 21.625 114.453 21.75C114.453 21.875 114.464 22.0208 114.484 22.1875C114.589 22.1875 114.661 22.1667 114.703 22.125C114.745 22.0625 114.818 22.0104 114.922 21.9688C115.193 21.6771 115.464 21.3958 115.734 21.125C116.005 20.8542 116.286 20.5729 116.578 20.2812C116.703 20.1562 116.828 20.0208 116.953 19.875C117.078 19.7292 117.214 19.6042 117.359 19.5C117.464 19.375 117.557 19.2604 117.641 19.1562C117.724 19.0312 117.818 18.9167 117.922 18.8125C118.214 18.5 118.516 18.1979 118.828 17.9062C119.141 17.5938 119.401 17.25 119.609 16.875C119.755 16.7708 119.891 16.6042 120.016 16.375C119.87 16.3542 119.766 16.2708 119.703 16.125ZM128.203 31.5C128.141 31.5417 128.078 31.5833 128.016 31.625C127.953 31.6667 127.891 31.7083 127.828 31.75C127.599 31.875 127.391 31.9479 127.203 31.9688C127.016 31.9688 126.807 32.0729 126.578 32.2812C126.495 32.1771 126.432 32.125 126.391 32.125C126.349 32.125 126.276 32.125 126.172 32.125C125.901 32.125 125.745 32.0521 125.703 31.9062C125.62 31.9271 125.484 31.9792 125.297 32.0625C125.13 32.1458 125.005 32.2083 124.922 32.25C125.109 31.9792 125.234 31.7708 125.297 31.625C125.359 31.4792 125.391 31.3438 125.391 31.2188C125.411 31.0938 125.422 30.9688 125.422 30.8438C125.443 30.6979 125.495 30.5 125.578 30.25C125.62 30.1667 125.651 30.0833 125.672 30C125.693 29.9167 125.724 29.8229 125.766 29.7188C125.87 29.4062 125.953 29.0521 126.016 28.6562C126.099 28.2604 126.224 27.9167 126.391 27.625C126.391 27.2708 126.464 26.9375 126.609 26.625C126.776 26.3125 126.911 25.9896 127.016 25.6562C127.057 25.5312 127.109 25.4062 127.172 25.2812C127.255 25.1562 127.318 25.0312 127.359 24.9062C127.443 24.6979 127.505 24.5 127.547 24.3125C127.609 24.1042 127.672 23.9062 127.734 23.7188C127.901 23.1146 128.068 22.5208 128.234 21.9375C128.401 21.3333 128.557 20.7292 128.703 20.125C128.724 20.0208 128.745 19.9062 128.766 19.7812C128.807 19.6562 128.849 19.5417 128.891 19.4375C128.995 19.125 129.057 18.8125 129.078 18.5C129.12 18.1667 129.224 17.8542 129.391 17.5625C129.37 17.4167 129.37 17.2812 129.391 17.1562C129.432 17.0312 129.474 16.8958 129.516 16.75C129.557 16.6042 129.599 16.4688 129.641 16.3438C129.682 16.2188 129.714 16.125 129.734 16.0625C129.839 15.7917 129.911 15.5521 129.953 15.3438C130.016 15.1146 130.13 14.875 130.297 14.625C130.297 14.625 130.328 14.5208 130.391 14.3125C130.453 14.0833 130.526 13.8333 130.609 13.5625C130.693 13.2917 130.766 13.0417 130.828 12.8125C130.891 12.5625 130.922 12.4167 130.922 12.375C130.964 12.2083 130.995 12.0521 131.016 11.9062C131.057 11.7604 131.099 11.6042 131.141 11.4375C131.182 11.3333 131.224 11.25 131.266 11.1875C131.307 11.1042 131.349 11.0104 131.391 10.9062C131.453 10.6771 131.516 10.3958 131.578 10.0625C131.641 9.72917 131.724 9.46875 131.828 9.28125C131.891 9.13542 132.005 9.02083 132.172 8.9375C132.359 8.83333 132.516 8.72917 132.641 8.625C133.016 8.66667 133.286 8.64583 133.453 8.5625C133.641 8.47917 133.818 8.375 133.984 8.25C134.089 8.27083 134.182 8.30208 134.266 8.34375C134.37 8.36458 134.474 8.375 134.578 8.375C134.974 8.8125 135.245 9.26042 135.391 9.71875C135.557 10.1771 135.714 10.6354 135.859 11.0938C135.922 11.3229 135.984 11.5521 136.047 11.7812C136.109 11.9896 136.182 12.1979 136.266 12.4062C136.286 12.4688 136.318 12.5417 136.359 12.625C136.401 12.6875 136.443 12.7604 136.484 12.8438C136.589 13.0104 136.672 13.1875 136.734 13.375C136.818 13.5625 136.891 13.75 136.953 13.9375C137.078 14.0833 137.172 14.2604 137.234 14.4688C137.297 14.6562 137.349 14.8542 137.391 15.0625C137.453 15.25 137.516 15.4375 137.578 15.625C137.641 15.7917 137.734 15.9375 137.859 16.0625C137.901 16.2917 137.974 16.5208 138.078 16.75C138.182 16.9583 138.255 17.1875 138.297 17.4375C138.422 17.6042 138.568 17.9271 138.734 18.4062C138.901 18.8646 139.068 19.3646 139.234 19.9062C139.401 20.4479 139.557 20.9688 139.703 21.4688C139.849 21.9688 139.953 22.3229 140.016 22.5312C140.057 22.6979 140.141 22.9167 140.266 23.1875C140.391 23.4375 140.505 23.6667 140.609 23.875C140.693 24.1042 140.776 24.3438 140.859 24.5938C140.964 24.8438 141.047 25.0833 141.109 25.3125C141.151 25.5417 141.193 25.7604 141.234 25.9688C141.297 26.1771 141.359 26.3958 141.422 26.625C141.464 26.7708 141.526 26.9062 141.609 27.0312C141.693 27.1354 141.755 27.2708 141.797 27.4375C141.88 27.6042 141.932 27.7604 141.953 27.9062C141.995 28.0521 142.068 28.2083 142.172 28.375C142.151 28.6042 142.161 28.75 142.203 28.8125C142.245 28.875 142.286 28.9479 142.328 29.0312C142.411 29.4688 142.505 29.8229 142.609 30.0938C142.714 30.3438 142.766 30.6146 142.766 30.9062C142.766 31.1562 142.714 31.3125 142.609 31.375C142.526 31.4375 142.411 31.5417 142.266 31.6875C142.099 31.8333 141.953 31.9479 141.828 32.0312C141.724 32.1146 141.557 32.1562 141.328 32.1562C141.078 32.1354 140.922 32.1667 140.859 32.25C140.818 32.3542 140.786 32.4271 140.766 32.4688C140.516 32.4479 140.349 32.4375 140.266 32.4375C140.203 32.4583 140.13 32.4688 140.047 32.4688C139.984 32.4688 139.911 32.4792 139.828 32.5C139.766 32.5417 139.693 32.6146 139.609 32.7188C139.464 32.5521 139.318 32.3958 139.172 32.25C139.047 32.125 138.932 31.9792 138.828 31.8125C138.828 31.4583 138.776 31.0417 138.672 30.5625C138.589 30.0833 138.495 29.7083 138.391 29.4375C138.182 28.8958 137.984 28.3646 137.797 27.8438C137.63 27.3229 137.464 26.7917 137.297 26.25C137.234 26.0208 137.161 25.8125 137.078 25.625C137.016 25.4375 136.943 25.2396 136.859 25.0312C136.901 25.1979 136.911 25.375 136.891 25.5625C136.891 25.7292 136.839 25.8958 136.734 26.0625C136.693 26.1042 136.63 26.1562 136.547 26.2188C136.464 26.2812 136.422 26.3333 136.422 26.375C136.172 26.5833 135.953 26.7812 135.766 26.9688C135.786 27.3438 135.734 27.6042 135.609 27.75C135.484 27.8958 135.349 28.0312 135.203 28.1562C134.849 28.1771 134.63 28.1562 134.547 28.0938C134.464 28.0312 134.349 27.9896 134.203 27.9688C134.12 27.9479 134.036 27.9479 133.953 27.9688C133.87 27.9688 133.786 27.9688 133.703 27.9688C133.536 27.9688 133.38 27.9271 133.234 27.8438C133.172 27.8021 133.12 27.7604 133.078 27.7188C133.057 27.6771 133.026 27.6354 132.984 27.5938C132.818 27.4271 132.62 27.2917 132.391 27.1875C132.182 27.0625 131.974 26.9583 131.766 26.875C131.599 26.7292 131.422 26.5833 131.234 26.4375C131.068 26.2708 130.891 26.1354 130.703 26.0312C130.536 26.4271 130.401 26.7812 130.297 27.0938C130.214 27.3854 130.109 27.6771 129.984 27.9688C129.755 28.6771 129.568 29.3021 129.422 29.8438C129.276 30.3646 129.109 30.8958 128.922 31.4375C128.839 31.4583 128.755 31.4896 128.672 31.5312C128.609 31.5729 128.526 31.5938 128.422 31.5938L128.203 31.5ZM131.266 24.8438C131.432 24.5521 131.578 24.3958 131.703 24.375C131.849 24.3333 131.974 24.25 132.078 24.125C132.12 24.0833 132.161 24.0312 132.203 23.9688C132.266 23.9062 132.328 23.8438 132.391 23.7812C132.453 23.7396 132.526 23.6979 132.609 23.6562C132.693 23.6146 132.766 23.5625 132.828 23.5C132.995 23.3542 133.13 23.2292 133.234 23.125C133.359 23.0208 133.536 22.9688 133.766 22.9688C134.12 22.9688 134.411 23.0625 134.641 23.25C134.87 23.4167 135.151 23.5312 135.484 23.5938C135.526 23.7188 135.661 23.8125 135.891 23.875C136.12 23.9167 136.297 23.9792 136.422 24.0625C136.214 23.5417 136.047 23.0208 135.922 22.5C135.818 21.9583 135.682 21.4271 135.516 20.9062C135.391 20.4479 135.245 20 135.078 19.5625C134.911 19.1042 134.745 18.6667 134.578 18.25C134.432 17.8333 134.307 17.4271 134.203 17.0312C134.099 16.6354 133.964 16.25 133.797 15.875C133.63 16.25 133.464 16.7083 133.297 17.25C133.13 17.7917 133.005 18.2708 132.922 18.6875C132.922 18.875 132.911 19.0208 132.891 19.125C132.849 19.2708 132.807 19.4062 132.766 19.5312C132.724 19.6354 132.682 19.75 132.641 19.875C132.37 20.6875 132.12 21.5104 131.891 22.3438C131.682 23.1771 131.432 24.0104 131.141 24.8438H131.266ZM151.172 8.75C151.318 9.02083 151.391 9.33333 151.391 9.6875C151.391 10 151.328 10.3333 151.203 10.6875C151.078 11.0417 150.88 11.3125 150.609 11.5C150.422 11.9167 150.234 12.2604 150.047 12.5312C149.88 12.7812 149.714 13.0312 149.547 13.2812C149.484 13.4271 149.422 13.5729 149.359 13.7188C149.297 13.8438 149.214 13.9792 149.109 14.125C149.047 14.2292 148.911 14.4375 148.703 14.75C148.495 15.0625 148.276 15.3958 148.047 15.75C147.839 16.0833 147.651 16.4062 147.484 16.7188C147.318 17.0312 147.234 17.2292 147.234 17.3125C147.234 17.3958 147.328 17.5 147.516 17.625C147.724 17.75 147.859 17.8438 147.922 17.9062C148.026 18.0104 148.12 18.1146 148.203 18.2188C148.307 18.3229 148.411 18.4271 148.516 18.5312C148.745 18.7188 148.964 18.9062 149.172 19.0938C149.401 19.2812 149.63 19.4896 149.859 19.7188C150.297 20.1146 150.755 20.4896 151.234 20.8438C151.714 21.1979 152.141 21.6146 152.516 22.0938C152.87 22.1979 153.099 22.4479 153.203 22.8438C153.307 23.2396 153.339 23.6146 153.297 23.9688C153.339 24.0312 153.37 24.0938 153.391 24.1562C153.432 24.2188 153.474 24.2917 153.516 24.375C153.516 24.7083 153.464 24.9583 153.359 25.125C153.276 25.2708 153.182 25.4583 153.078 25.6875C152.974 25.8958 152.901 26.1042 152.859 26.3125C152.839 26.5208 152.776 26.7083 152.672 26.875C152.63 26.9375 152.568 26.9896 152.484 27.0312C152.422 27.0729 152.37 27.1354 152.328 27.2188C152.245 27.3646 152.172 27.5417 152.109 27.75C152.068 27.9375 152.005 28.1146 151.922 28.2812C151.859 28.4479 151.776 28.6146 151.672 28.7812C151.589 28.9479 151.516 29.1146 151.453 29.2812C151.411 29.3854 151.37 29.5104 151.328 29.6562C151.307 29.8021 151.214 29.9062 151.047 29.9688C150.943 30.3438 150.797 30.7083 150.609 31.0625C150.443 31.4167 150.307 31.7812 150.203 32.1562C150.016 32.2188 149.776 32.3333 149.484 32.5C149.214 32.6875 148.995 32.7812 148.828 32.7812C148.766 32.7812 148.714 32.75 148.672 32.6875C148.63 32.625 148.568 32.5729 148.484 32.5312C148.443 32.5104 148.38 32.5104 148.297 32.5312C148.234 32.5521 148.182 32.5625 148.141 32.5625C148.036 32.5625 147.953 32.5208 147.891 32.4375C147.849 32.3542 147.786 32.2917 147.703 32.25C147.641 32.2708 147.578 32.2917 147.516 32.3125C147.453 32.3333 147.391 32.3438 147.328 32.3438C147.182 32.3438 147.099 32.3021 147.078 32.2188C147.057 32.1562 146.995 32.0938 146.891 32.0312C146.641 31.9062 146.495 31.7917 146.453 31.6875C146.411 31.5833 146.349 31.5104 146.266 31.4688C146.411 30.9271 146.609 30.4167 146.859 29.9375C147.109 29.4375 147.349 28.9375 147.578 28.4375C147.641 28.2708 147.714 28.1146 147.797 27.9688C147.901 27.8229 147.995 27.6667 148.078 27.5C148.141 27.3542 148.234 27.1667 148.359 26.9375C148.484 26.7083 148.599 26.4688 148.703 26.2188C148.807 25.9688 148.901 25.7396 148.984 25.5312C149.068 25.3021 149.109 25.1146 149.109 24.9688C149.109 24.6771 149.026 24.4583 148.859 24.3125C148.255 23.8125 147.682 23.3021 147.141 22.7812C146.62 22.2604 146.068 21.7292 145.484 21.1875C145.109 20.8542 144.703 20.5104 144.266 20.1562C144.182 20.0938 144.12 20 144.078 19.875C144.036 19.75 143.974 19.6354 143.891 19.5312C143.849 19.4479 143.786 19.3854 143.703 19.3438C143.62 19.3021 143.557 19.2396 143.516 19.1562C143.453 19.0729 143.411 18.9792 143.391 18.875C143.37 18.75 143.307 18.6562 143.203 18.5938C143.099 18.4896 142.974 18.4271 142.828 18.4062C142.682 18.3854 142.557 18.3229 142.453 18.2188C142.516 18.1562 142.547 18.0938 142.547 18.0312C142.526 17.9479 142.516 17.875 142.516 17.8125C142.516 17.6667 142.578 17.5625 142.703 17.5C142.828 17.4375 142.891 17.3229 142.891 17.1562C142.974 16.9896 143.036 16.8854 143.078 16.8438C143.307 16.2812 143.568 15.7396 143.859 15.2188C144.151 14.6979 144.453 14.1771 144.766 13.6562C144.87 13.4896 144.964 13.3333 145.047 13.1875C145.151 13.0208 145.255 12.8542 145.359 12.6875C145.422 12.5417 145.474 12.4167 145.516 12.3125C145.578 12.1875 145.661 12.0729 145.766 11.9688C146.057 11.6354 146.297 11.3229 146.484 11.0312C146.693 10.7396 146.849 10.3854 146.953 9.96875C146.974 9.86458 147.016 9.71875 147.078 9.53125C147.141 9.34375 147.214 9.15625 147.297 8.96875C147.401 8.78125 147.505 8.61458 147.609 8.46875C147.714 8.32292 147.828 8.25 147.953 8.25C148.057 8.25 148.203 8.29167 148.391 8.375C148.599 8.45833 148.776 8.52083 148.922 8.5625C149.047 8.60417 149.172 8.64583 149.297 8.6875C149.443 8.70833 149.578 8.71875 149.703 8.71875C149.786 8.71875 149.87 8.69792 149.953 8.65625C150.036 8.59375 150.13 8.5625 150.234 8.5625C150.401 8.5625 150.557 8.59375 150.703 8.65625C150.849 8.69792 151.005 8.72917 151.172 8.75Z" fill="white"/>
<path d="M41.4036 37.77C41.9303 37.77 42.3803 37.86 42.7536 38.04C43.1269 38.2133 43.4136 38.4667 43.6136 38.8C43.8203 39.1333 43.9236 39.5367 43.9236 40.01C43.9236 40.2967 43.8803 40.58 43.7936 40.86C43.7069 41.1333 43.5669 41.3833 43.3736 41.61C43.1869 41.83 42.9403 42.0067 42.6336 42.14C42.3269 42.2733 41.9536 42.34 41.5136 42.34H40.4436V45H39.4736V37.77H41.4036ZM41.5036 41.41C41.7903 41.41 42.0269 41.3633 42.2136 41.27C42.4003 41.1767 42.5469 41.06 42.6536 40.92C42.7603 40.7733 42.8369 40.62 42.8836 40.46C42.9303 40.3 42.9536 40.1567 42.9536 40.03C42.9536 39.8833 42.9303 39.7333 42.8836 39.58C42.8369 39.42 42.7569 39.2767 42.6436 39.15C42.5369 39.0167 42.3936 38.91 42.2136 38.83C42.0403 38.7433 41.8236 38.7 41.5636 38.7H40.4436V41.41H41.5036ZM46.9109 45.1C46.5242 45.1 46.1709 45.0167 45.8509 44.85C45.5375 44.6833 45.2875 44.44 45.1009 44.12C44.9209 43.7933 44.8309 43.3967 44.8309 42.93C44.8309 42.47 44.9275 42.0733 45.1209 41.74C45.3142 41.4 45.5709 41.14 45.8909 40.96C46.2175 40.78 46.5742 40.69 46.9609 40.69C47.3475 40.69 47.6742 40.78 47.9409 40.96C48.2075 41.1333 48.4109 41.34 48.5509 41.58L48.4909 41.74L48.5809 40.86H49.4409V45H48.5109V43.92L48.6109 44.16C48.5842 44.2267 48.5242 44.3133 48.4309 44.42C48.3442 44.52 48.2242 44.6233 48.0709 44.73C47.9242 44.8367 47.7542 44.9267 47.5609 45C47.3675 45.0667 47.1509 45.1 46.9109 45.1ZM47.1609 44.33C47.3942 44.33 47.6042 44.2867 47.7909 44.2C47.9775 44.1133 48.1309 43.9933 48.2509 43.84C48.3775 43.68 48.4642 43.49 48.5109 43.27V42.46C48.4575 42.26 48.3642 42.0867 48.2309 41.94C48.0975 41.7867 47.9375 41.67 47.7509 41.59C47.5642 41.5033 47.3575 41.46 47.1309 41.46C46.8842 41.46 46.6575 41.52 46.4509 41.64C46.2442 41.76 46.0775 41.9267 45.9509 42.14C45.8309 42.3533 45.7709 42.6033 45.7709 42.89C45.7709 43.1567 45.8342 43.4 45.9609 43.62C46.0875 43.84 46.2575 44.0133 46.4709 44.14C46.6842 44.2667 46.9142 44.33 47.1609 44.33ZM51.4302 41.62C51.2236 41.62 51.0469 41.5567 50.9002 41.43C50.7536 41.3033 50.6802 41.1133 50.6802 40.86V40.47H51.3902V40.6C51.3902 40.7067 51.4169 40.7767 51.4702 40.81C51.5236 40.8433 51.6102 40.86 51.7302 40.86H54.3802L51.9002 44.43L51.7202 44.23H54.3502V45H50.5202L53.0502 41.36L53.2102 41.62H51.4302ZM51.8402 38.63L52.7902 39.62L52.5102 39.68L53.4602 38.63H54.3202L52.6702 40.35H52.6602L50.9802 38.63H51.8402ZM55.6791 40.86H56.6091V45H55.6791V40.86ZM55.6091 39.36C55.6091 39.2133 55.6658 39.09 55.7791 38.99C55.8991 38.89 56.0291 38.84 56.1691 38.84C56.3091 38.84 56.4325 38.89 56.5391 38.99C56.6525 39.09 56.7091 39.2133 56.7091 39.36C56.7091 39.5133 56.6525 39.64 56.5391 39.74C56.4325 39.8333 56.3091 39.88 56.1691 39.88C56.0291 39.88 55.8991 39.83 55.7791 39.73C55.6658 39.63 55.6091 39.5067 55.6091 39.36ZM59.0482 40.86L59.1282 41.87L59.0882 41.71C59.2215 41.4033 59.4382 41.16 59.7382 40.98C60.0382 40.7933 60.3849 40.7 60.7782 40.7C61.1715 40.7 61.4915 40.8167 61.7382 41.05C61.9915 41.2767 62.1215 41.5733 62.1282 41.94V45H61.1882V42.27C61.1815 42.0433 61.1149 41.86 60.9882 41.72C60.8682 41.5733 60.6782 41.5 60.4182 41.5C60.1782 41.5 59.9615 41.5667 59.7682 41.7C59.5749 41.8333 59.4215 42.0167 59.3082 42.25C59.2015 42.4833 59.1482 42.7533 59.1482 43.06V45H58.2182V40.86H59.0482ZM63.7455 45V37.26H64.6755V45H63.7455ZM65.6755 42.25L67.5755 45H66.4855L65.0555 42.77L65.6755 42.25ZM64.3855 43.68L64.2955 42.79L66.8055 40.77L67.3755 41.26L64.3855 43.68ZM72.1201 37.77H73.0901V44.07H76.7601V45H72.1201V37.77ZM78.1108 40.86H79.0408V45H78.1108V40.86ZM78.0408 39.36C78.0408 39.2133 78.0974 39.09 78.2108 38.99C78.3308 38.89 78.4608 38.84 78.6008 38.84C78.7408 38.84 78.8641 38.89 78.9708 38.99C79.0841 39.09 79.1408 39.2133 79.1408 39.36C79.1408 39.5133 79.0841 39.64 78.9708 39.74C78.8641 39.8333 78.7408 39.88 78.6008 39.88C78.4608 39.88 78.3308 39.83 78.2108 39.73C78.0974 39.63 78.0408 39.5067 78.0408 39.36ZM82.5698 45.1C82.0965 45.1 81.6898 45.0067 81.3498 44.82C81.0098 44.6267 80.7465 44.3667 80.5598 44.04C80.3798 43.7067 80.2898 43.3267 80.2898 42.9C80.2898 42.4933 80.3932 42.1233 80.5998 41.79C80.8065 41.4567 81.0832 41.19 81.4298 40.99C81.7765 40.79 82.1632 40.69 82.5898 40.69C83.1365 40.69 83.5898 40.85 83.9498 41.17C84.3098 41.49 84.5532 41.93 84.6798 42.49L81.2698 43.69L81.0498 43.14L83.8498 42.12L83.6498 42.25C83.5698 42.03 83.4365 41.84 83.2498 41.68C83.0632 41.5133 82.8198 41.43 82.5198 41.43C82.2665 41.43 82.0398 41.4933 81.8398 41.62C81.6398 41.74 81.4832 41.9067 81.3698 42.12C81.2565 42.3333 81.1998 42.5767 81.1998 42.85C81.1998 43.1367 81.2598 43.39 81.3798 43.61C81.4998 43.8233 81.6632 43.9933 81.8698 44.12C82.0832 44.24 82.3232 44.3 82.5898 44.3C82.7698 44.3 82.9432 44.2667 83.1098 44.2C83.2832 44.1333 83.4432 44.0467 83.5898 43.94L84.0198 44.63C83.8132 44.77 83.5798 44.8833 83.3198 44.97C83.0665 45.0567 82.8165 45.1 82.5698 45.1ZM86.2452 39.04H87.1752V40.88H88.3152V41.61H87.1752V45H86.2452V41.61H85.4852V40.88H86.2452V39.04ZM90.7489 45.16C90.3756 45.16 90.0656 45.0467 89.8189 44.82C89.5789 44.5867 89.4522 44.2867 89.4389 43.92V40.86H90.3689V43.59C90.3822 43.8167 90.4456 44 90.5589 44.14C90.6789 44.28 90.8656 44.3533 91.1189 44.36C91.3522 44.36 91.5589 44.2933 91.7389 44.16C91.9256 44.02 92.0756 43.8333 92.1889 43.6C92.3022 43.36 92.3589 43.09 92.3589 42.79V40.86H93.2889V45H92.4389L92.3589 43.98L92.4089 44.16C92.3289 44.3533 92.2056 44.5267 92.0389 44.68C91.8789 44.8267 91.6889 44.9433 91.4689 45.03C91.2489 45.1167 91.0089 45.16 90.7489 45.16ZM96.5779 45.12L94.2779 40.86H95.3779L96.9379 44.15L96.3679 44.13L97.7979 40.86H98.8379L96.6279 45.12H96.5779ZM99.3816 42.89C99.3816 42.4767 99.4783 42.1033 99.6716 41.77C99.8716 41.4367 100.145 41.1733 100.492 40.98C100.838 40.7867 101.232 40.69 101.672 40.69C102.125 40.69 102.522 40.7867 102.862 40.98C103.202 41.1733 103.465 41.4367 103.652 41.77C103.838 42.1033 103.932 42.4767 103.932 42.89C103.932 43.3033 103.838 43.68 103.652 44.02C103.465 44.3533 103.198 44.6167 102.852 44.81C102.512 45.0033 102.115 45.1 101.662 45.1C101.222 45.1 100.828 45.01 100.482 44.83C100.142 44.6433 99.8716 44.3867 99.6716 44.06C99.4783 43.7267 99.3816 43.3367 99.3816 42.89ZM100.312 42.9C100.312 43.1667 100.372 43.41 100.492 43.63C100.612 43.8433 100.772 44.0133 100.972 44.14C101.178 44.2667 101.405 44.33 101.652 44.33C101.912 44.33 102.142 44.2667 102.342 44.14C102.548 44.0133 102.708 43.8433 102.822 43.63C102.935 43.41 102.992 43.1667 102.992 42.9C102.992 42.6333 102.935 42.3933 102.822 42.18C102.708 41.96 102.548 41.7867 102.342 41.66C102.142 41.5267 101.912 41.46 101.652 41.46C101.398 41.46 101.168 41.5267 100.962 41.66C100.762 41.7933 100.602 41.97 100.482 42.19C100.368 42.4033 100.312 42.64 100.312 42.9ZM106.351 45.08C106.058 45.08 105.771 45.03 105.491 44.93C105.218 44.8233 104.991 44.6667 104.811 44.46L105.201 43.92C105.374 44.0867 105.551 44.2133 105.731 44.3C105.918 44.38 106.101 44.42 106.281 44.42C106.414 44.42 106.538 44.4033 106.651 44.37C106.764 44.3367 106.854 44.2833 106.921 44.21C106.994 44.13 107.031 44.0233 107.031 43.89C107.031 43.7433 106.981 43.6267 106.881 43.54C106.788 43.4533 106.664 43.3833 106.511 43.33C106.364 43.2767 106.208 43.2267 106.041 43.18C105.701 43.0667 105.441 42.91 105.261 42.71C105.081 42.51 104.991 42.2667 104.991 41.98C104.991 41.76 105.044 41.5567 105.151 41.37C105.264 41.1767 105.428 41.02 105.641 40.9C105.861 40.78 106.131 40.72 106.451 40.72C106.738 40.72 106.994 40.7567 107.221 40.83C107.448 40.8967 107.661 41.01 107.861 41.17L107.491 41.75C107.371 41.6233 107.228 41.53 107.061 41.47C106.894 41.41 106.744 41.3767 106.611 41.37C106.498 41.3633 106.388 41.38 106.281 41.42C106.181 41.46 106.098 41.5167 106.031 41.59C105.964 41.6633 105.931 41.75 105.931 41.85C105.931 41.99 105.978 42.1033 106.071 42.19C106.164 42.2767 106.284 42.3467 106.431 42.4C106.584 42.4467 106.734 42.4967 106.881 42.55C107.088 42.61 107.271 42.69 107.431 42.79C107.591 42.89 107.718 43.0133 107.811 43.16C107.911 43.3067 107.961 43.49 107.961 43.71C107.961 43.9567 107.901 44.1867 107.781 44.4C107.668 44.6067 107.491 44.7733 107.251 44.9C107.018 45.02 106.718 45.08 106.351 45.08ZM114.587 37.77C115.114 37.77 115.564 37.86 115.937 38.04C116.311 38.2133 116.597 38.4667 116.797 38.8C117.004 39.1333 117.107 39.5367 117.107 40.01C117.107 40.2967 117.064 40.58 116.977 40.86C116.891 41.1333 116.751 41.3833 116.557 41.61C116.371 41.83 116.124 42.0067 115.817 42.14C115.511 42.2733 115.137 42.34 114.697 42.34H113.627V45H112.657V37.77H114.587ZM114.687 41.41C114.974 41.41 115.211 41.3633 115.397 41.27C115.584 41.1767 115.731 41.06 115.837 40.92C115.944 40.7733 116.021 40.62 116.067 40.46C116.114 40.3 116.137 40.1567 116.137 40.03C116.137 39.8833 116.114 39.7333 116.067 39.58C116.021 39.42 115.941 39.2767 115.827 39.15C115.721 39.0167 115.577 38.91 115.397 38.83C115.224 38.7433 115.007 38.7 114.747 38.7H113.627V41.41H114.687ZM120.094 45.1C119.708 45.1 119.354 45.0167 119.034 44.85C118.721 44.6833 118.471 44.44 118.284 44.12C118.104 43.7933 118.014 43.3967 118.014 42.93C118.014 42.47 118.111 42.0733 118.304 41.74C118.498 41.4 118.754 41.14 119.074 40.96C119.401 40.78 119.758 40.69 120.144 40.69C120.531 40.69 120.858 40.78 121.124 40.96C121.391 41.1333 121.594 41.34 121.734 41.58L121.674 41.74L121.764 40.86H122.624V45H121.694V43.92L121.794 44.16C121.768 44.2267 121.708 44.3133 121.614 44.42C121.528 44.52 121.408 44.6233 121.254 44.73C121.108 44.8367 120.938 44.9267 120.744 45C120.551 45.0667 120.334 45.1 120.094 45.1ZM120.344 44.33C120.578 44.33 120.788 44.2867 120.974 44.2C121.161 44.1133 121.314 43.9933 121.434 43.84C121.561 43.68 121.648 43.49 121.694 43.27V42.46C121.641 42.26 121.548 42.0867 121.414 41.94C121.281 41.7867 121.121 41.67 120.934 41.59C120.748 41.5033 120.541 41.46 120.314 41.46C120.068 41.46 119.841 41.52 119.634 41.64C119.428 41.76 119.261 41.9267 119.134 42.14C119.014 42.3533 118.954 42.6033 118.954 42.89C118.954 43.1567 119.018 43.4 119.144 43.62C119.271 43.84 119.441 44.0133 119.654 44.14C119.868 44.2667 120.098 44.33 120.344 44.33ZM125.544 45.16C125.17 45.16 124.86 45.0467 124.614 44.82C124.374 44.5867 124.247 44.2867 124.234 43.92V40.86H125.164V43.59C125.177 43.8167 125.24 44 125.354 44.14C125.474 44.28 125.66 44.3533 125.914 44.36C126.147 44.36 126.354 44.2933 126.534 44.16C126.72 44.02 126.87 43.8333 126.984 43.6C127.097 43.36 127.154 43.09 127.154 42.79V40.86H128.084V45H127.234L127.154 43.98L127.204 44.16C127.124 44.3533 127 44.5267 126.834 44.68C126.674 44.8267 126.484 44.9433 126.264 45.03C126.044 45.1167 125.804 45.16 125.544 45.16ZM129.693 45V37.26H130.623V45H129.693ZM131.623 42.25L133.523 45H132.433L131.003 42.77L131.623 42.25ZM130.333 43.68L130.243 42.79L132.753 40.77L133.323 41.26L130.333 43.68ZM135.833 45.08C135.54 45.08 135.253 45.03 134.973 44.93C134.7 44.8233 134.473 44.6667 134.293 44.46L134.683 43.92C134.857 44.0867 135.033 44.2133 135.213 44.3C135.4 44.38 135.583 44.42 135.763 44.42C135.897 44.42 136.02 44.4033 136.133 44.37C136.247 44.3367 136.337 44.2833 136.403 44.21C136.477 44.13 136.513 44.0233 136.513 43.89C136.513 43.7433 136.463 43.6267 136.363 43.54C136.27 43.4533 136.147 43.3833 135.993 43.33C135.847 43.2767 135.69 43.2267 135.523 43.18C135.183 43.0667 134.923 42.91 134.743 42.71C134.563 42.51 134.473 42.2667 134.473 41.98C134.473 41.76 134.527 41.5567 134.633 41.37C134.747 41.1767 134.91 41.02 135.123 40.9C135.343 40.78 135.613 40.72 135.933 40.72C136.22 40.72 136.477 40.7567 136.703 40.83C136.93 40.8967 137.143 41.01 137.343 41.17L136.973 41.75C136.853 41.6233 136.71 41.53 136.543 41.47C136.377 41.41 136.227 41.3767 136.093 41.37C135.98 41.3633 135.87 41.38 135.763 41.42C135.663 41.46 135.58 41.5167 135.513 41.59C135.447 41.6633 135.413 41.75 135.413 41.85C135.413 41.99 135.46 42.1033 135.553 42.19C135.647 42.2767 135.767 42.3467 135.913 42.4C136.067 42.4467 136.217 42.4967 136.363 42.55C136.57 42.61 136.753 42.69 136.913 42.79C137.073 42.89 137.2 43.0133 137.293 43.16C137.393 43.3067 137.443 43.49 137.443 43.71C137.443 43.9567 137.383 44.1867 137.263 44.4C137.15 44.6067 136.973 44.7733 136.733 44.9C136.5 45.02 136.2 45.08 135.833 45.08ZM135.163 38.57L136.113 39.56L135.833 39.62L136.783 38.57H137.643L135.993 40.29H135.983L134.303 38.57H135.163ZM142.106 44.62C141.919 44.7667 141.696 44.8833 141.436 44.97C141.176 45.0567 140.916 45.1 140.656 45.1C140.202 45.1 139.806 45.01 139.466 44.83C139.126 44.65 138.859 44.4 138.666 44.08C138.479 43.7533 138.386 43.37 138.386 42.93C138.386 42.49 138.486 42.1067 138.686 41.78C138.892 41.4533 139.159 41.2033 139.486 41.03C139.819 40.85 140.176 40.76 140.556 40.76C140.889 40.76 141.186 40.8067 141.446 40.9C141.712 40.9933 141.939 41.12 142.126 41.28L141.666 41.88C141.546 41.7867 141.399 41.7033 141.226 41.63C141.052 41.5567 140.856 41.52 140.636 41.52C140.396 41.52 140.172 41.5833 139.966 41.71C139.766 41.83 139.606 41.9967 139.486 42.21C139.372 42.4233 139.316 42.6633 139.316 42.93C139.316 43.1833 139.376 43.42 139.496 43.64C139.616 43.8533 139.782 44.0233 139.996 44.15C140.209 44.27 140.452 44.33 140.726 44.33C140.906 44.33 141.069 44.3033 141.216 44.25C141.369 44.1967 141.506 44.1233 141.626 44.03L142.106 44.62ZM139.726 38.57L140.676 39.56L140.396 39.62L141.346 38.57H142.206L140.556 40.29H140.546L138.866 38.57H139.726ZM143.306 40.86H144.236V45H143.306V40.86ZM143.236 39.36C143.236 39.2133 143.293 39.09 143.406 38.99C143.526 38.89 143.656 38.84 143.796 38.84C143.936 38.84 144.059 38.89 144.166 38.99C144.279 39.09 144.336 39.2133 144.336 39.36C144.336 39.5133 144.279 39.64 144.166 39.74C144.059 39.8333 143.936 39.88 143.796 39.88C143.656 39.88 143.526 39.83 143.406 39.73C143.293 39.63 143.236 39.5067 143.236 39.36ZM147.155 45.16C146.782 45.16 146.472 45.0467 146.225 44.82C145.985 44.5867 145.858 44.2867 145.845 43.92V40.86H146.775V43.59C146.788 43.8167 146.852 44 146.965 44.14C147.085 44.28 147.272 44.3533 147.525 44.36C147.758 44.36 147.965 44.2933 148.145 44.16C148.332 44.02 148.482 43.8333 148.595 43.6C148.708 43.36 148.765 43.09 148.765 42.79V40.86H149.695V45H148.845L148.765 43.98L148.815 44.16C148.735 44.3533 148.612 44.5267 148.445 44.68C148.285 44.8267 148.095 44.9433 147.875 45.03C147.655 45.1167 147.415 45.16 147.155 45.16ZM152.464 45.08C152.171 45.08 151.884 45.03 151.604 44.93C151.331 44.8233 151.104 44.6667 150.924 44.46L151.314 43.92C151.487 44.0867 151.664 44.2133 151.844 44.3C152.031 44.38 152.214 44.42 152.394 44.42C152.527 44.42 152.651 44.4033 152.764 44.37C152.877 44.3367 152.967 44.2833 153.034 44.21C153.107 44.13 153.144 44.0233 153.144 43.89C153.144 43.7433 153.094 43.6267 152.994 43.54C152.901 43.4533 152.777 43.3833 152.624 43.33C152.477 43.2767 152.321 43.2267 152.154 43.18C151.814 43.0667 151.554 42.91 151.374 42.71C151.194 42.51 151.104 42.2667 151.104 41.98C151.104 41.76 151.157 41.5567 151.264 41.37C151.377 41.1767 151.541 41.02 151.754 40.9C151.974 40.78 152.244 40.72 152.564 40.72C152.851 40.72 153.107 40.7567 153.334 40.83C153.561 40.8967 153.774 41.01 153.974 41.17L153.604 41.75C153.484 41.6233 153.341 41.53 153.174 41.47C153.007 41.41 152.857 41.3767 152.724 41.37C152.611 41.3633 152.501 41.38 152.394 41.42C152.294 41.46 152.211 41.5167 152.144 41.59C152.077 41.6633 152.044 41.75 152.044 41.85C152.044 41.99 152.091 42.1033 152.184 42.19C152.277 42.2767 152.397 42.3467 152.544 42.4C152.697 42.4467 152.847 42.4967 152.994 42.55C153.201 42.61 153.384 42.69 153.544 42.79C153.704 42.89 153.831 43.0133 153.924 43.16C154.024 43.3067 154.074 43.49 154.074 43.71C154.074 43.9567 154.014 44.1867 153.894 44.4C153.781 44.6067 153.604 44.7733 153.364 44.9C153.131 45.02 152.831 45.08 152.464 45.08Z" fill="white"/>
</svg>
